<svg xmlns="http://www.w3.org/2000/svg" viewBox="0 0 214.16 215.27"><defs><style>.cls-1{fill:#cfdcea;}.cls-2{fill:#b3c9e1;}.cls-3{fill:#b5a53f;}.cls-4{fill:#9a7e31;}.cls-5{fill:#ed1f24;}.cls-6{fill:#7e5724;}.cls-10,.cls-6,.cls-9{stroke:#7e5724;}.cls-10,.cls-11,.cls-6,.cls-9{stroke-miterlimit:10;}.cls-10,.cls-6{stroke-width:2px;}.cls-7{fill:#fff;}.cls-8{fill:#a8dde8;opacity:0.5;}.cls-11,.cls-9{fill:none;}.cls-9{stroke-width:4px;}.cls-10{fill:#3953a4;}.cls-11{stroke:#3953a4;stroke-width:3px;}</style></defs><title>Resurs 1</title><g id="Lager_2" data-name="Lager 2"><g id="Layer_2" data-name="Layer 2"><circle class="cls-1" cx="107.08" cy="107.08" r="107.08"/><path class="cls-2" d="M203.85,152.81l-2.21,3.29L186.55,146l2.2-3.29a31.65,31.65,0,0,1-3.62-5.45l-3.88.77-3.52-17.83,3.89-.77A31.39,31.39,0,0,1,182.9,113l-3.29-2.21L189.73,95.7,193,97.9a31.65,31.65,0,0,1,5.45-3.62l-.77-3.89,14.94-2.94A107.77,107.77,0,0,0,204.21,62l-1.89-1.26a31.65,31.65,0,0,1-5.45,3.62l.77,3.89-17.83,3.51L179,67.84a31.4,31.4,0,0,1-6.41-1.29l-2.21,3.29L155.33,59.72l2.2-3.29A32,32,0,0,1,153.91,51l-3.89.76-3.51-17.83,3.89-.77a31.39,31.39,0,0,1,1.28-6.41l-3.29-2.2,7.88-11.75A107.1,107.1,0,0,0,13.4,57.2l2.36-.46,1.52,7.7A62.15,62.15,0,0,1,30,67l4.36-6.51,29.9,20L59.88,87a63.32,63.32,0,0,1,7.17,10.78l7.7-1.51,7,35.31L74,133.13a62,62,0,0,1-2.54,12.7L78,150.2l-20,29.9-6.52-4.37a61.78,61.78,0,0,1-10.78,7.17l1.52,7.7-2.36.47a107.08,107.08,0,0,0,165-38C204.48,153,204.16,152.91,203.85,152.81Z"/><path class="cls-3" d="M107.08,214.16A106.64,106.64,0,0,0,155,202.86a58.63,58.63,0,0,0-95.86,0A106.64,106.64,0,0,0,107.08,214.16Z"/><rect class="cls-4" x="104.11" y="27.52" width="5.95" height="17.52"/><path class="cls-5" d="M116.76,20.8a9.68,9.68,0,1,0-9.68,9.68A9.68,9.68,0,0,0,116.76,20.8Z"/><path class="cls-3" d="M107.08,40.25A39.78,39.78,0,0,0,67.29,80v93.88h79.59V80A39.79,39.79,0,0,0,107.08,40.25Z"/><path class="cls-6" d="M143.6,64.25a39.79,39.79,0,0,0-73,0Z"/><ellipse class="cls-4" cx="107.08" cy="155.55" rx="76.53" ry="39.8"/><rect class="cls-7" x="52.49" y="142.29" width="112.24" height="26.38"/><rect class="cls-7" x="76.58" y="86.84" width="24.5" height="5.5"/><rect class="cls-7" x="113.08" y="86.84" width="24.5" height="5.5"/><circle class="cls-8" cx="125.33" cy="89.55" r="18.58" transform="translate(-26.61 114.85) rotate(-45)"/><circle class="cls-8" cx="88.16" cy="89.55" r="18.58" transform="translate(-18.09 22.45) rotate(-13.18)"/><circle class="cls-9" cx="125.33" cy="89.75" r="18.58"/><circle class="cls-9" cx="88.16" cy="89.75" r="18.58"/><path class="cls-10" d="M69.65,91.9h-.11L65.29,116.2c-1,5.09,8.44-14.75,8.44-14.75s-1.87-2.87-2.42-3.86A21.91,21.91,0,0,1,69.65,91.9Z"/><path class="cls-10" d="M144,92.09l-.17,0a21,21,0,0,1-1.62,5.52c-.56,1-2.42,3.86-2.42,3.86s9.43,19.84,8.44,14.75Z"/><circle class="cls-11" cx="125.33" cy="89.55" r="16.77" transform="translate(-26.61 114.85) rotate(-45)"/><circle class="cls-9" cx="125.33" cy="89.55" r="13.31"/><circle class="cls-9" cx="88.16" cy="89.55" r="13.31"/><circle class="cls-11" cx="88.16" cy="89.55" r="16.77" transform="translate(-18.1 22.47) rotate(-13.19)"/><path class="cls-6" d="M87.11,60.25s-25.44,21-25.7,29C60.82,107,42.06,115.16,28.5,113.63l-5.76-8.24c13.56,1.54,31.39-3.62,32.45-22.2.46-8,17.94-22.94,17.94-22.94Z"/><path class="cls-6" d="M127.05,60.25s25.44,21,25.71,29c.59,17.76,19.35,25.91,32.91,24.38l5.75-8.24c-13.56,1.54-31.38-3.62-32.45-22.2-.46-8-17.93-22.94-17.93-22.94Z"/></g></g></svg>