<svg xmlns="http://www.w3.org/2000/svg" viewBox="0 0 214.16 214.2"><defs><style>.cls-1{fill:#fae29e;}.cls-2{fill:#f9f0dd;}.cls-3{fill:#b5a53f;}.cls-4{fill:#9a7e31;}.cls-5{fill:#ed1f24;}.cls-6{fill:#7e5724;}.cls-7{fill:#fff;}.cls-8,.cls-9{fill:none;stroke-miterlimit:10;}.cls-8{stroke:#000;stroke-width:4px;}.cls-9{stroke:#b5a53f;stroke-width:2px;}</style></defs><title>Resurs 2</title><g id="Lager_2" data-name="Lager 2"><g id="Layer_2" data-name="Layer 2"><circle class="cls-1" cx="107.08" cy="107.1" r="107.08" transform="translate(-28.63 174.33) rotate(-71.36)"/><path class="cls-2" d="M203.85,151.75,201.64,155l-15.09-10.12,2.2-3.29a32,32,0,0,1-3.62-5.44l-3.88.76-3.52-17.83,3.89-.76a31.35,31.35,0,0,1,1.28-6.42l-3.29-2.2,10.12-15.1L193,96.84a31.08,31.08,0,0,1,5.45-3.62l-.77-3.89,14.94-3a107.54,107.54,0,0,0-8.43-25.48l-1.89-1.27a31.13,31.13,0,0,1-5.45,3.63l.77,3.88-17.83,3.52L179,66.77a32.08,32.08,0,0,1-6.41-1.28l-2.21,3.29L155.33,58.66l2.2-3.29a32,32,0,0,1-3.62-5.45l-3.88.77-3.52-17.83,3.89-.77a31.94,31.94,0,0,1,1.28-6.41l-3.29-2.21,7.88-11.74A107.08,107.08,0,0,0,13.4,56.14l2.36-.47,1.52,7.7A63.52,63.52,0,0,1,30,65.91l4.36-6.51,29.9,20.05L59.88,86a63.41,63.41,0,0,1,7.17,10.79l7.7-1.52,7,35.32L74,132.07a62.15,62.15,0,0,1-2.54,12.7L78,149.13l-20,29.9-6.52-4.36a62.35,62.35,0,0,1-10.78,7.17l1.52,7.7L39.8,190a107.08,107.08,0,0,0,165-38Z"/><circle class="cls-3" cx="113.02" cy="83.92" r="21.48"/><path class="cls-4" d="M189.47,175.5c-19.19-5.45-47.65-8.9-79.41-8.9-34.49,0-65.08,4.07-84.15,10.34a107.08,107.08,0,0,0,163.56-1.44Z"/><rect class="cls-3" x="154.25" y="77.01" width="17.52" height="5.95" transform="translate(-8.82 138.69) rotate(-45)"/><path class="cls-5" d="M180.8,75.88a9.68,9.68,0,1,0-13.69,0A9.68,9.68,0,0,0,180.8,75.88Z"/><rect class="cls-3" x="57.36" y="71.22" width="5.95" height="17.52" transform="translate(-38.89 66.09) rotate(-45)"/><path class="cls-5" d="M56.23,62.19a9.68,9.68,0,1,0,0,13.69A9.68,9.68,0,0,0,56.23,62.19Z"/><rect class="cls-6" x="37.83" y="83.6" width="150.38" height="78"/><polygon class="cls-3" points="130.72 161.6 89.39 161.6 110.06 192.6 130.72 161.6"/><ellipse class="cls-7" cx="110.06" cy="171.1" rx="8.69" ry="3.5"/><rect class="cls-7" x="146.87" y="101.6" width="24.5" height="5.5"/><rect class="cls-7" x="48.74" y="101.6" width="24.5" height="5.5"/><circle class="cls-8" cx="160.96" cy="110.97" r="22.69" transform="matrix(0.99, -0.16, 0.16, 0.99, -15.6, 27.01)"/><path class="cls-9" d="M166.59,141.39A5.63,5.63,0,1,0,161,147,5.63,5.63,0,0,0,166.59,141.39Z"/><path class="cls-9" d="M166.59,152.66A5.63,5.63,0,1,0,161,158.3,5.63,5.63,0,0,0,166.59,152.66Z"/><path class="cls-9" d="M166.59,163.93a5.63,5.63,0,1,0-5.63,5.63A5.63,5.63,0,0,0,166.59,163.93Z"/><path class="cls-9" d="M166.59,175.2a5.63,5.63,0,1,0-5.63,5.63A5.64,5.64,0,0,0,166.59,175.2Z"/><path class="cls-9" d="M166.59,186.47A5.63,5.63,0,1,0,161,192.1,5.64,5.64,0,0,0,166.59,186.47Z"/><path class="cls-9" d="M166.36,196.13c-2.55-8.46-15.39-1.56-9.72,5.22"/><rect x="68.64" y="77.26" width="82.84" height="3.46"/><rect x="90.9" y="33.02" width="44.24" height="44.24"/><rect class="cls-3" x="90.9" y="69.96" width="44.24" height="7.3"/></g></g></svg>