<svg xmlns="http://www.w3.org/2000/svg" viewBox="0 0 214.16 214.2"><defs><style>.cls-1{fill:#eac3db;}.cls-2{fill:#f1d7e8;}.cls-3{fill:#9a7e31;}.cls-4{fill:#b5a53f;}.cls-5{fill:#7e5724;}.cls-6{fill:#ed1f24;}.cls-7{fill:#fff;}.cls-8{fill:#397f8e;}.cls-9{fill:#1d606b;}</style></defs><title>Resurs 4</title><g id="Lager_2" data-name="Lager 2"><g id="Layer_2" data-name="Layer 2"><circle class="cls-1" cx="107.08" cy="107.1" r="107.08"/><path class="cls-2" d="M203.15,151.75,201,155l-15.1-10.12,2.21-3.29a31.38,31.38,0,0,1-3.62-5.44l-3.89.76L177,119.11l3.89-.76a32,32,0,0,1,1.28-6.42l-3.29-2.2L189,94.63l3.28,2.21a31.46,31.46,0,0,1,5.45-3.62L197,89.33l14.94-3a107.09,107.09,0,0,0-8.43-25.48l-1.89-1.27a31.43,31.43,0,0,1-5.44,3.63l.76,3.88-17.83,3.52-.76-3.89a32,32,0,0,1-6.42-1.28l-2.2,3.29-15.1-10.12,2.21-3.29a31.46,31.46,0,0,1-3.62-5.45l-3.89.77-3.52-17.83,3.89-.77A31.94,31.94,0,0,1,151,25.68l-3.29-2.21,7.88-11.74A107.08,107.08,0,0,0,12.7,56.14l2.36-.47,1.52,7.7a62.84,62.84,0,0,1,12.7,2.55l4.37-6.52L63.54,79.45,59.18,86a62.82,62.82,0,0,1,7.17,10.79l7.7-1.52,7,35.32-7.7,1.52a63.52,63.52,0,0,1-2.54,12.7l6.51,4.36L57.24,179l-6.51-4.36a62.82,62.82,0,0,1-10.79,7.17l1.52,7.7L39.1,190a107.09,107.09,0,0,0,165-38Z"/><rect class="cls-3" x="73.74" y="39.46" width="66.69" height="50.52"/><path class="cls-4" d="M151.7,88.1H65.31a25.88,25.88,0,0,0,0,51.76H151.7a25.88,25.88,0,0,0,0-51.76Z"/><rect class="cls-5" x="104.11" y="21.94" width="5.95" height="17.52"/><path class="cls-6" d="M116.76,15.22a9.68,9.68,0,1,0-9.68,9.68A9.68,9.68,0,0,0,116.76,15.22Z"/><polygon class="cls-7" points="109.03 126.16 165.5 101.8 51.5 101.8 109.03 126.16"/><path class="cls-7" d="M87.57,48.35a5.34,5.34,0,1,0-5.34,5.33A5.33,5.33,0,0,0,87.57,48.35Z"/><path class="cls-7" d="M137.26,48.35a5.33,5.33,0,1,0-5.33,5.33A5.33,5.33,0,0,0,137.26,48.35Z"/><rect class="cls-3" x="98.28" y="139.86" width="20.44" height="29.24"/><path class="cls-4" d="M107.08,214.18a106.69,106.69,0,0,0,69.66-25.75,25.89,25.89,0,0,0-25-19.33H65.31a25.88,25.88,0,0,0-25.47,21.33A106.63,106.63,0,0,0,107.08,214.18Z"/><polygon class="cls-8" points="109.25 166.37 61.67 190.15 61.67 142.58 109.25 166.37 109.25 166.37"/><polygon class="cls-8" points="108.5 166.37 156.08 142.58 156.08 190.15 108.5 166.37 108.5 166.37"/><path class="cls-9" d="M93.89,166.37A15.36,15.36,0,1,0,109.25,151,15.36,15.36,0,0,0,93.89,166.37Z"/></g></g></svg>