<svg xmlns="http://www.w3.org/2000/svg" viewBox="0 0 214.16 214.2"><defs><style>.cls-1{fill:#eac3db;}.cls-2{fill:#f1d7e8;}.cls-3{fill:#7e5724;}.cls-4{fill:#9a7e31;}.cls-5{fill:#b5a53f;}.cls-6{fill:#ed1f24;}.cls-7{fill:#fff;}</style></defs><title>Resurs 6</title><g id="Lager_2" data-name="Lager 2"><g id="Layer_2" data-name="Layer 2"><circle class="cls-1" cx="107.08" cy="107.1" r="107.08"/><path class="cls-2" d="M203.15,151.75,201,155l-15.1-10.12,2.21-3.29a31.38,31.38,0,0,1-3.62-5.44l-3.89.76L177,119.11l3.89-.76a32,32,0,0,1,1.28-6.42l-3.29-2.2L189,94.63l3.28,2.21a31.46,31.46,0,0,1,5.45-3.62L197,89.33l14.94-3a107.09,107.09,0,0,0-8.43-25.48l-1.89-1.27a31.43,31.43,0,0,1-5.44,3.63l.76,3.88-17.83,3.52-.76-3.89a32,32,0,0,1-6.42-1.28l-2.2,3.29-15.1-10.13,2.21-3.28a31.46,31.46,0,0,1-3.62-5.45l-3.89.77-3.52-17.83,3.89-.77A31.94,31.94,0,0,1,151,25.68l-3.29-2.21,7.88-11.74A107.08,107.08,0,0,0,12.7,56.14l2.36-.47,1.52,7.7a63.52,63.52,0,0,1,12.7,2.54l4.37-6.51L63.54,79.45,59.18,86a62.82,62.82,0,0,1,7.17,10.79l7.7-1.52,7,35.32-7.7,1.52a63.52,63.52,0,0,1-2.54,12.7l6.51,4.36L57.24,179l-6.51-4.36a62.82,62.82,0,0,1-10.79,7.17l1.52,7.7L39.1,190a107.08,107.08,0,0,0,165-38Z"/><rect class="cls-3" x="107.08" y="137.35" width="6.67" height="29.33"/><path class="cls-4" d="M79.67,210.64a107.73,107.73,0,0,0,61.25-1.92c-3.56-26.3-15.86-45.7-30.51-45.7C95.42,163,82.88,183.37,79.67,210.64Z"/><rect class="cls-5" x="127.07" y="35.83" width="17.52" height="5.95" transform="translate(12.35 107.41) rotate(-45)"/><path class="cls-6" d="M153.62,34.7a9.68,9.68,0,1,0-13.69,0A9.68,9.68,0,0,0,153.62,34.7Z"/><rect class="cls-5" x="75.19" y="30.04" width="5.95" height="17.52" transform="translate(-4.54 66.64) rotate(-45)"/><path class="cls-6" d="M60.37,34.7a9.68,9.68,0,1,1,13.69,0A9.68,9.68,0,0,1,60.37,34.7Z"/><path class="cls-3" d="M137.08,64a30,30,0,1,0-30,30A30,30,0,0,0,137.08,64Z"/><rect class="cls-4" x="43.75" y="64.02" width="130.67" height="78.29"/><polygon class="cls-7" points="109.94 113.96 166.41 89.61 52.41 89.61 109.94 113.96"/><circle class="cls-7" cx="91.08" cy="56.69" r="5.33"/><circle class="cls-7" cx="122.69" cy="56.69" r="5.33"/><path class="cls-6" d="M97.86,178a6.1,6.1,0,1,0-6.1,6.1A6.1,6.1,0,0,0,97.86,178Z"/><path class="cls-6" d="M106,188.12a6.1,6.1,0,1,0-6.1,6.1A6.1,6.1,0,0,0,106,188.12Z"/><path class="cls-6" d="M116.79,196a6.1,6.1,0,1,0-6.1,6.1A6.1,6.1,0,0,0,116.79,196Z"/><path class="cls-6" d="M123.51,178a6.11,6.11,0,1,1,6.11,6.1A6.11,6.11,0,0,1,123.51,178Z"/><path class="cls-6" d="M115.41,188.12a6.1,6.1,0,1,1,6.1,6.1A6.1,6.1,0,0,1,115.41,188.12Z"/><path class="cls-6" d="M185.17,101.78c0,8.16-2.09,14.77-4.67,14.77s-4.67-6.61-4.67-14.77S177.92,87,180.5,87,185.17,93.63,185.17,101.78Z"/><path class="cls-3" d="M186.58,80.94A6.08,6.08,0,1,0,180.5,87,6.08,6.08,0,0,0,186.58,80.94Z"/><path class="cls-6" d="M42.33,101.78c0,8.16-2.09,14.77-4.66,14.77S33,109.94,33,101.78,35.09,87,37.67,87,42.33,93.63,42.33,101.78Z"/><path class="cls-3" d="M43.75,80.94A6.09,6.09,0,1,0,37.67,87,6.08,6.08,0,0,0,43.75,80.94Z"/></g></g></svg>