<svg xmlns="http://www.w3.org/2000/svg" viewBox="0 0 214.16 214.2"><defs><style>.cls-1{fill:#cfdcea;}.cls-2{fill:#b3c9e1;}.cls-3{fill:#7e5724;}.cls-4{fill:#ed1f24;}.cls-5{fill:#9a7e31;}.cls-6{fill:#fff;}.cls-7{fill:#b5a53f;}.cls-8{fill:#565656;}</style></defs><title>Resurs 3</title><g id="Lager_2" data-name="Lager 2"><g id="Layer_2" data-name="Layer 2"><circle class="cls-1" cx="107.08" cy="107.1" r="107.08" transform="translate(-34.33 161.32) rotate(-65.98)"/><path class="cls-2" d="M204.28,151.75l-2.2,3.28L187,144.91l2.21-3.29a31.38,31.38,0,0,1-3.62-5.44l-3.89.76-3.52-17.83,3.89-.76a32,32,0,0,1,1.28-6.42l-3.28-2.2,10.12-15.1,3.29,2.21a31,31,0,0,1,5.44-3.62l-.77-3.89,14.94-3a107.09,107.09,0,0,0-8.43-25.48l-1.89-1.27a31.43,31.43,0,0,1-5.44,3.63l.77,3.88-17.84,3.52-.76-3.89a32,32,0,0,1-6.42-1.28l-2.2,3.29-15.1-10.13L158,55.37a31.46,31.46,0,0,1-3.62-5.45l-3.89.77-3.52-17.83,3.89-.77a31.94,31.94,0,0,1,1.28-6.41l-3.28-2.21,7.87-11.74A107.08,107.08,0,0,0,13.83,56.14l2.36-.47,1.52,7.7a63.52,63.52,0,0,1,12.7,2.54l4.37-6.51,29.9,20.05L60.31,86a62.24,62.24,0,0,1,7.17,10.79l7.7-1.52,7,35.32-7.7,1.52a63.52,63.52,0,0,1-2.54,12.7l6.51,4.36L58.37,179l-6.51-4.36a62.82,62.82,0,0,1-10.79,7.17l1.52,7.7-2.36.46a107.08,107.08,0,0,0,165-38Z"/><path class="cls-3" d="M202.08,126.23H18.6v41A107.11,107.11,0,0,0,202.08,156Z"/><rect class="cls-3" x="54.26" y="46.26" width="5.95" height="17.52" transform="translate(-22.14 56.58) rotate(-45)"/><path class="cls-4" d="M53.13,37.22a9.68,9.68,0,1,0,0,13.7A9.68,9.68,0,0,0,53.13,37.22Z"/><rect class="cls-3" x="148.65" y="52.04" width="17.52" height="5.95" transform="translate(7.21 127.44) rotate(-45.01)"/><path class="cls-4" d="M175.21,50.92a9.68,9.68,0,1,0-13.69,0A9.69,9.69,0,0,0,175.21,50.92Z"/><rect class="cls-5" x="90.09" y="161.7" width="33.99" height="33.99"/><path class="cls-6" d="M113.92,174.59H100.24a4.1,4.1,0,1,0,0,8.19h13.68a4.1,4.1,0,1,0,0-8.19Z"/><path class="cls-7" d="M171.66,108a64.58,64.58,0,1,0-64.58,64.58A64.57,64.57,0,0,0,171.66,108Z"/><path class="cls-6" d="M163.49,120.9a5.33,5.33,0,1,0-5.33,5.33A5.33,5.33,0,0,0,163.49,120.9Z"/><path class="cls-6" d="M62.12,120.9a5.34,5.34,0,1,0-5.34,5.33A5.33,5.33,0,0,0,62.12,120.9Z"/><path class="cls-8" d="M111.79,42c9.94,3.37,20,6.56,29.82,10.15a4.15,4.15,0,0,1,1.75,1.15,18.64,18.64,0,1,0-32.18-11.44A4.84,4.84,0,0,1,111.79,42Z"/><path d="M115,29.18a18.36,18.36,0,0,0-2.87,5.33,17.57,17.57,0,0,0-.6,2.29c6.73,2.29,13.51,4.55,20,7.45,4.66,2.09,9.15,4.48,13.81,6.54a18.57,18.57,0,0,0,2.1-4.26,18.85,18.85,0,0,0,1-6Z"/><path class="cls-8" d="M150.38,47.53l-41.18-14a5.33,5.33,0,1,0-3.44,10.09l41.18,14a5.33,5.33,0,0,0,3.44-10.1Z"/></g></g></svg>