<svg xmlns="http://www.w3.org/2000/svg" viewBox="0 0 214.16 214.2"><defs><style>.cls-1{fill:#fae29e;}.cls-2{fill:#f9f0dd;}.cls-3{fill:#7e5724;}.cls-4{fill:#ed1f24;}.cls-5{fill:#9a7e31;}.cls-6{fill:#b5a53f;}.cls-7{fill:#fff;}.cls-8{fill:#725120;}</style></defs><title>Resurs 5</title><g id="Lager_2" data-name="Lager 2"><g id="Layer_2" data-name="Layer 2"><circle class="cls-1" cx="107.08" cy="107.1" r="107.08"/><path class="cls-2" d="M203.4,151.75,201.19,155,186.1,144.91l2.2-3.29a32,32,0,0,1-3.62-5.44l-3.89.76-3.51-17.83,3.89-.76a30.69,30.69,0,0,1,1.28-6.42l-3.29-2.2,10.12-15.1,3.29,2.21A31.08,31.08,0,0,1,198,93.22l-.77-3.89,14.94-3a107.54,107.54,0,0,0-8.43-25.48l-1.89-1.27a31.51,31.51,0,0,1-5.45,3.63l.77,3.88-17.83,3.52-.77-3.89a31.94,31.94,0,0,1-6.41-1.28L170,68.78,154.88,58.65l2.2-3.28a32,32,0,0,1-3.62-5.45l-3.89.77-3.51-17.83,3.89-.77a30.6,30.6,0,0,1,1.28-6.41l-3.29-2.21,7.88-11.74A107.08,107.08,0,0,0,13,56.14l2.36-.47,1.51,7.7a63.62,63.62,0,0,1,12.71,2.54l4.36-6.51,29.9,20.05L59.42,86A62.87,62.87,0,0,1,66.6,96.75l7.7-1.52,7,35.32-7.7,1.52A62.15,62.15,0,0,1,71,144.77l6.51,4.36L57.48,179,51,174.67a62.73,62.73,0,0,1-10.78,7.17l1.51,7.7-2.35.46a107.08,107.08,0,0,0,165-38Z"/><rect class="cls-3" x="177.56" y="91.05" width="17.52" height="5.95"/><path class="cls-4" d="M201.81,103.7A9.68,9.68,0,1,0,192.13,94,9.68,9.68,0,0,0,201.81,103.7Z"/><rect class="cls-3" x="24.64" y="91.05" width="17.52" height="5.95"/><path class="cls-4" d="M17.91,84.34A9.68,9.68,0,1,0,27.59,94,9.68,9.68,0,0,0,17.91,84.34Z"/><path class="cls-5" d="M153.05,68.14H66.67a25.88,25.88,0,0,0,0,51.76h86.38a25.88,25.88,0,0,0,0-51.76Z"/><rect class="cls-6" x="79.08" y="119.9" width="56" height="29.58"/><rect class="cls-7" x="89.08" y="130.02" width="37.33" height="7.33"/><rect class="cls-5" x="105.49" y="149.47" width="8.75" height="5.65"/><path class="cls-6" d="M184.47,155.13H35.25v31.39a107.09,107.09,0,0,0,149.22-5.41Z"/><rect class="cls-7" x="49.11" y="91.27" width="24.5" height="5.5"/><rect class="cls-7" x="146.11" y="91.27" width="24.5" height="5.5"/><path class="cls-8" d="M147.17,106.1c-3.72-3.85-9.17-3.28-12.95,0-2.94,2.53,1.32,6.75,4.24,4.25,2.58-2.21,6.58.45,5.9,3.69-.77,3.7-8.3,3.08-10.76,2.68-6.66-1.08-12.71-4.46-19.13-6.39-3.71-1.11-5.29,4.68-1.59,5.79,10.57,3.17,25.94,12.64,35.63,2.48C152,114.85,150.29,109.34,147.17,106.1Z"/><path class="cls-8" d="M68.33,106.1c3.72-3.85,9.17-3.28,13,0,2.94,2.53-1.33,6.75-4.24,4.25-2.59-2.21-6.58.45-5.91,3.69.78,3.7,8.31,3.08,10.76,2.68,6.67-1.08,12.72-4.46,19.14-6.39,3.71-1.11,5.29,4.68,1.59,5.79C92,119.24,76.68,128.71,67,118.55,63.46,114.85,65.21,109.34,68.33,106.1Z"/></g></g></svg>