<svg xmlns="http://www.w3.org/2000/svg" xmlns:xlink="http://www.w3.org/1999/xlink" viewBox="0 0 456 221.81"><defs><style>.cls-1,.cls-9{fill:none;}.cls-2{fill:#5f193d;}.cls-3{clip-path:url(#clip-path);}.cls-4,.cls-8,.cls-9{opacity:0.3;}.cls-5{clip-path:url(#clip-path-2);}.cls-6,.cls-8{fill:#55608e;}.cls-7{clip-path:url(#clip-path-3);}.cls-9{stroke:#55608e;stroke-miterlimit:10;stroke-width:9px;}.cls-10{clip-path:url(#clip-path-4);}.cls-11{clip-path:url(#clip-path-5);}.cls-12{clip-path:url(#clip-path-6);}.cls-13{clip-path:url(#clip-path-7);}.cls-14{clip-path:url(#clip-path-8);}.cls-15{clip-path:url(#clip-path-9);}.cls-16{clip-path:url(#clip-path-10);}</style><clipPath id="clip-path"><rect class="cls-1" x="-0.16" y="-0.2" width="456" height="222"/></clipPath><clipPath id="clip-path-2"><rect class="cls-1" x="-0.16" y="-0.2" width="228" height="222"/></clipPath><clipPath id="clip-path-3"><rect class="cls-1" x="-0.16" y="182.8" width="8" height="16" transform="translate(7.68 381.6) rotate(180)"/></clipPath><clipPath id="clip-path-4"><rect class="cls-1" x="227.84" y="-0.2" width="228" height="222"/></clipPath><clipPath id="clip-path-5"><path class="cls-1" d="M5.75,126.69,6,130.52l-13.09.83,1.38-1.57Q-3.32,127-2,125.32A19.92,19.92,0,0,0,.14,122a6.12,6.12,0,0,0,.75-3.16A2.34,2.34,0,0,0,0,117a3,3,0,0,0-2.07-.56,2.76,2.76,0,0,0-1.87.75,1.88,1.88,0,0,0-.62,1.47,3.86,3.86,0,0,0,1.24,2.67l-2.3,2.36A3.26,3.26,0,0,1-7,122.56a7,7,0,0,1-1-1.84A6.18,6.18,0,0,1-8.4,119a5.56,5.56,0,0,1,.66-3,6.22,6.22,0,0,1,2.34-2.39,8.35,8.35,0,0,1,3.79-1.09,6.36,6.36,0,0,1,3.27.63A6,6,0,0,1,4,115.3a6,6,0,0,1,1,2.9,7.49,7.49,0,0,1-.39,2.88,13.2,13.2,0,0,1-1.25,2.73c-.52.87-1.22,1.92-2.09,3.17Z"/></clipPath><clipPath id="clip-path-6"><path class="cls-1" d="M3.42,96.37l.08,3-2.17.06.11,4-4,.11-.1-4-7.62.2v0L.93,85H1l.31,11.39Zm-6.16.17-.07-2.41-1.74,2.45Z"/></clipPath><clipPath id="clip-path-7"><path class="cls-1" d="M.86,227.78l-13.09-.91,1.58-1.38c1.83-1.62,3.26-2.94,4.27-3.93a19.67,19.67,0,0,0,2.57-3,6.23,6.23,0,0,0,1.17-3,2.41,2.41,0,0,0-.64-1.88,3,3,0,0,0-2-.83,2.73,2.73,0,0,0-1.95.5A1.85,1.85,0,0,0-8,214.64a3.83,3.83,0,0,0,.88,2.8l-2.59,2.05A3.42,3.42,0,0,1-11,218.17a7.1,7.1,0,0,1-.75-1.95,6,6,0,0,1-.17-1.74,5.44,5.44,0,0,1,1.05-2.86,6.18,6.18,0,0,1,2.62-2.05,8.26,8.26,0,0,1,3.9-.58,6.34,6.34,0,0,1,3.17,1.06,6.05,6.05,0,0,1,2.06,2.38,5.86,5.86,0,0,1,.58,3,7.46,7.46,0,0,1-.76,2.81,13.66,13.66,0,0,1-1.6,2.53c-.63.79-1.46,1.75-2.49,2.86l4.47.32-.26,3.82"/></clipPath><clipPath id="clip-path-8"><path class="cls-1" d="M456.86,5.78l-13.09-.91,1.58-1.38c1.83-1.62,3.26-2.94,4.27-3.93a19.67,19.67,0,0,0,2.57-3,6.23,6.23,0,0,0,1.17-3,2.41,2.41,0,0,0-.64-1.88,3,3,0,0,0-2-.83,2.73,2.73,0,0,0-1.95.5A1.85,1.85,0,0,0,448-7.36a3.83,3.83,0,0,0,.88,2.8l-2.59,2.05A3.42,3.42,0,0,1,445-3.83a7.1,7.1,0,0,1-.75-1.95,6,6,0,0,1-.17-1.74,5.44,5.44,0,0,1,1.05-2.86,6.18,6.18,0,0,1,2.62-2,8.26,8.26,0,0,1,3.9-.58,6.34,6.34,0,0,1,3.17,1.06,6.05,6.05,0,0,1,2.06,2.38,5.86,5.86,0,0,1,.58,3,7.46,7.46,0,0,1-.76,2.81,13.66,13.66,0,0,1-1.6,2.53c-.63.79-1.46,1.75-2.49,2.86l4.47.32-.26,3.82"/></clipPath><clipPath id="clip-path-9"><path class="cls-1" d="M.86,5.78l-13.09-.91,1.58-1.38C-8.82,1.87-7.39.55-6.38-.44a19.67,19.67,0,0,0,2.57-3,6.23,6.23,0,0,0,1.17-3A2.41,2.41,0,0,0-3.28-8.4a3,3,0,0,0-2-.83,2.73,2.73,0,0,0-1.95.5A1.85,1.85,0,0,0-8-7.36a3.83,3.83,0,0,0,.88,2.8L-9.74-2.51A3.42,3.42,0,0,1-11-3.83a7.1,7.1,0,0,1-.75-1.95,6,6,0,0,1-.17-1.74,5.44,5.44,0,0,1,1.05-2.86,6.18,6.18,0,0,1,2.62-2A8.26,8.26,0,0,1-4.31-13a6.34,6.34,0,0,1,3.17,1.06A6.05,6.05,0,0,1,.92-9.57a5.86,5.86,0,0,1,.58,3A7.46,7.46,0,0,1,.74-3.75,13.66,13.66,0,0,1-.86-1.22C-1.49-.43-2.32.53-3.35,1.64L1.12,2,.86,5.78"/></clipPath><clipPath id="clip-path-10"><rect class="cls-1" x="30.84" y="208.8" width="400" height="13"/></clipPath></defs><title>Rityta 1</title><g id="Lager_6" data-name="Lager 6"><rect class="cls-2" x="-38.16" y="-47.2" width="547" height="302"/></g><g id="Lager_3" data-name="Lager 3"><g class="cls-3"><g class="cls-4"><g class="cls-5"><line class="cls-6" x1="1" y1="134.53" x2="-4.43" y2="135"/><path class="cls-6" d="M-10.17,159.14l8.53-8.53.21,2.36,4-.34"/><path class="cls-6" d="M16.63,86.87a6.17,6.17,0,0,0-.64-.09A2.82,2.82,0,0,0,13.22,88a8,8,0,0,0-1,3.86,12.7,12.7,0,0,0,0,2l.36-.37c1.56-1.56,3.12-3.13,4.69-4.69l1-1A2.91,2.91,0,0,0,16.63,86.87Z"/><path class="cls-6" d="M50.29,85.67a6.62,6.62,0,0,1,2.41,2.57,6.72,6.72,0,0,1,.75,3.51,10,10,0,0,1-1.48,5,13.33,13.33,0,0,1-3.31,3.62,40.52,40.52,0,0,1-4.72,3l-2.52-3A21.74,21.74,0,0,0,45,98.74a11.49,11.49,0,0,0,2.59-2,5.63,5.63,0,0,1-2.74.48,4.9,4.9,0,0,1-2.52-.87,5.58,5.58,0,0,1-1.91-2.19,6,6,0,0,1-.63-3,6.94,6.94,0,0,1,1.11-3.61,6.47,6.47,0,0,1,2.6-2.25,6.93,6.93,0,0,1,3.31-.67A7.34,7.34,0,0,1,50.29,85.67Zm-5.73,7.48a2.7,2.7,0,0,0,1.93.83,2.75,2.75,0,0,0,2-.65,2.22,2.22,0,0,0,.88-1.63l0-.63a2.73,2.73,0,0,0-.7-2,2.59,2.59,0,0,0-1.91-.93,2.64,2.64,0,0,0-2,.69A3,3,0,0,0,43.89,91,2.75,2.75,0,0,0,44.56,93.15Z"/><path class="cls-6" d="M100,98.85m-8.6-2.58-.15.14a2.82,2.82,0,0,0-.91,2.06A3,3,0,0,0,91.61,101c0-1,0-.49.07-2.25,0-1,0-1.89,0-2.7Z"/><path class="cls-6" d="M137.35,95.21a6,6,0,0,1,1,3.8,6.18,6.18,0,0,1-.91,3.34,6,6,0,0,1-2.39,2.18,7.07,7.07,0,0,1-3.23.75,7.83,7.83,0,0,1-2.84-.58,6.46,6.46,0,0,1-2.34-1.49l2-3.28a4.23,4.23,0,0,0,1.32,1,3.43,3.43,0,0,0,1.72.47,2.5,2.5,0,0,0,1.76-.72,2.58,2.58,0,0,0,.77-2,2.7,2.7,0,0,0-.68-1.92,2.49,2.49,0,0,0-1.87-.71,8.84,8.84,0,0,0-1.15.05,9.07,9.07,0,0,0-.93.19l-.08-.11,3-5.53h-4.33V86.89h9.89l-3.46,6.63A4.57,4.57,0,0,1,137.35,95.21Z"/><path class="cls-6" d="M153.36,86.83,146.7,105l-4.43,0,5.36-14.36-6.52,0,0-3.84Z"/><path class="cls-6" d="M168.58,101l0,3.84L155.5,105l1.46-1.5c1.7-1.77,3-3.2,3.94-4.27A20.27,20.27,0,0,0,163.21,96a6.17,6.17,0,0,0,.9-3.12,2.33,2.33,0,0,0-.79-1.83,2.89,2.89,0,0,0-2-.65,2.79,2.79,0,0,0-1.91.65,1.91,1.91,0,0,0-.7,1.43,3.83,3.83,0,0,0,1.11,2.73l-2.41,2.25a3.36,3.36,0,0,1-1.33-1.21,7.23,7.23,0,0,1-.9-1.88,6.48,6.48,0,0,1-.33-1.72,5.54,5.54,0,0,1,.81-2.93,6.2,6.2,0,0,1,2.45-2.27,8.25,8.25,0,0,1,3.84-.9,6.33,6.33,0,0,1,3.24.79,6.08,6.08,0,0,1,3.09,5.16,7.65,7.65,0,0,1-.53,2.85A12.71,12.71,0,0,1,166.33,98q-.84,1.26-2.25,3.06Z"/><path class="cls-6" d="M189.77,86.89a6.64,6.64,0,0,1,2.57,2.39,6.81,6.81,0,0,1,1,3.46,10,10,0,0,1-1.14,5,13.61,13.61,0,0,1-3.05,3.83,41.66,41.66,0,0,1-4.51,3.35l-2.72-2.82a22,22,0,0,0,3.42-1.86,12.21,12.21,0,0,0,2.45-2.13,5.67,5.67,0,0,1-2.7.66,4.83,4.83,0,0,1-2.58-.7,5.7,5.7,0,0,1-2.06-2,5.94,5.94,0,0,1-.83-3,6.84,6.84,0,0,1,.87-3.67A6.33,6.33,0,0,1,182.92,87a6.92,6.92,0,0,1,3.25-.89A7.24,7.24,0,0,1,189.77,86.89Zm-5.22,7.85a3,3,0,0,0,3.9-.08,2.25,2.25,0,0,0,.78-1.69l0-.63a2.72,2.72,0,0,0-.83-1.92,2.61,2.61,0,0,0-2-.79,2.65,2.65,0,0,0-1.95.82,3,3,0,0,0-.72,2.19A2.81,2.81,0,0,0,184.55,94.74Z"/><path class="cls-6" d="M206.34,93a7,7,0,0,1-1.14-1.41,3.79,3.79,0,0,1-.39-1.76,3.59,3.59,0,0,1,.65-2.18,4.68,4.68,0,0,1,1.84-1.55,5.91,5.91,0,0,1,2.58-.61,6.25,6.25,0,0,1,2.63.47,4.81,4.81,0,0,1,2,1.4,3.27,3.27,0,0,1,.76,2,4,4,0,0,1-.33,1.91,6.37,6.37,0,0,1-1.15,1.52,9.11,9.11,0,0,1,2.3,2,4.83,4.83,0,0,1,1,3,5.52,5.52,0,0,1-.83,3,6.49,6.49,0,0,1-2.44,2.32,7.35,7.35,0,0,1-3.48.93,7.13,7.13,0,0,1-3.53-.76,6.47,6.47,0,0,1-2.51-2.2,5.57,5.57,0,0,1-1-3A5.71,5.71,0,0,1,206.34,93Zm1.9,6.93a2.61,2.61,0,0,0,2,.81,2.78,2.78,0,0,0,2-.91,2.88,2.88,0,0,0,.82-2.09,3,3,0,0,0-.88-2,2.66,2.66,0,0,0-2-.81,2.78,2.78,0,0,0-2,.9,2.81,2.81,0,0,0-.81,2.1A2.89,2.89,0,0,0,208.24,100Zm.91-8.75a1.4,1.4,0,0,0,1,.39,1.36,1.36,0,0,0,.94-.44,1.27,1.27,0,0,0,.4-1,1.36,1.36,0,0,0-.45-1,1.29,1.29,0,0,0-.95-.4,1.35,1.35,0,0,0-1,.45,1.28,1.28,0,0,0-.41,1A1.24,1.24,0,0,0,209.15,91.21Z"/><path class="cls-6" d="M242.29,88.68l-.16-3.83M244,103"/><path class="cls-6" d="M91.63-40.38V-4.26c0,13.21,0,25.51,0,36.1V52.19l-1.68.15.36,3.82L91.62,56V68.85c0,4.94-.12,11.37,0,16.84,0,.28,0,.53,0,.77a4.75,4.75,0,0,0-2.71,1.71,3.59,3.59,0,0,0-.75,2.15,3.89,3.89,0,0,0,.3,1.77,6.84,6.84,0,0,0,1.08,1.46c-2.33,1.32-3.42,3.17-3.25,5.55l-3-3,.28-9.87L78.08,86l0,1.62L78,89.87l1.45,0s0,1.43-.06,2.26l-.71-.71-1.71-1.71-2.42,2.43L72.1,94.6s1.76,1.9,5,5.24l2,2L79,104.23s1.56,0,2.53.06c2.7,2.7,5.93,5.86,9.64,9.4,1.09,1,2,2,2.87,2.81s1.48,1.52,2,2l12-12,1.68-1.68,5.44.07,0-3.83,0-1.76.63-.63L120,94.6c-.81-.81-1.61-1.62-2.42-2.42l-2.42-2.43-.51.51a3.93,3.93,0,0,0-.3-.62,6,6,0,0,0-2.19-2.27,6.28,6.28,0,0,0-3.22-.88,8.25,8.25,0,0,0-3.86.79,6.3,6.3,0,0,0-2.51,2.2,5.48,5.48,0,0,0-.89,2.91,6.21,6.21,0,0,0,.28,1.73,6.91,6.91,0,0,0,.85,1.9,3.28,3.28,0,0,0,1.3,1.25l2.47-2.18a3.78,3.78,0,0,1-1-2.76,1.83,1.83,0,0,1,.73-1.41,2.75,2.75,0,0,1,1.92-.6,2.94,2.94,0,0,1,2,.71,2.32,2.32,0,0,1,.74,1.85,4.77,4.77,0,0,1-.19,1.27l-5.18,5.17-5.36,5.36-.14-3.77a86.78,86.78,0,0,1,.19-9.79c0-.66.1-2.16.14-4.4.1-5.43.17-15.22.23-27.92a7.16,7.16,0,0,0,1.14,1.8,3.23,3.23,0,0,0,1.46,1l2.12-2.52a3.83,3.83,0,0,1-1.42-2.57,1.88,1.88,0,0,1,.51-1.51,2.81,2.81,0,0,1,1.82-.88,2.92,2.92,0,0,1,2.1.41,2.07,2.07,0,0,1,.66.69,2.68,2.68,0,0,1,.35,1,6.34,6.34,0,0,1-.52,3.21A20.29,20.29,0,0,1,106.93,63q-1.19,1.75-3.38,4.71l-1.27,1.66,13-1.75-.51-3.8-4.45.6c.78-1.3,1.4-2.41,1.86-3.31a13.42,13.42,0,0,0,1.06-2.81,7.7,7.7,0,0,0,.17-2.9,5.87,5.87,0,0,0-1.18-2.82,6,6,0,0,0-2.5-1.92,6.32,6.32,0,0,0-3.31-.39,8.29,8.29,0,0,0-3.7,1.35,6.18,6.18,0,0,0-2.1,2.42c0-12.79.09-28.09.11-44.61l8.51-1.16-.51-3.8-4.45.61c.78-1.31,1.4-2.41,1.86-3.31a13.05,13.05,0,0,0,1-2.81,7.51,7.51,0,0,0,.18-2.9,6,6,0,0,0-1.19-2.83,5.93,5.93,0,0,0-2.5-1.91,5.68,5.68,0,0,0-2.94-.4c0-30.64,0-63.73,0-92.2"/><path class="cls-6" d="M-3.42,67.48l4.49.07L1,71.38l-13.12-.19"/><path class="cls-6" d="M-1.95,53.79A6,6,0,0,1,.23,56.06,5.78,5.78,0,0,1,1,59a7.7,7.7,0,0,1-.6,2.84,13.81,13.81,0,0,1-1.47,2.62c-.58.82-1.36,1.82-2.33,3"/><path class="cls-6" d="M37,54.57a6.66,6.66,0,0,1,2.49,2.48,6.92,6.92,0,0,1,.87,3.5,10,10,0,0,1-1.32,5,13.78,13.78,0,0,1-3.18,3.73,42.61,42.61,0,0,1-4.62,3.18l-2.62-2.91a22,22,0,0,0,3.47-1.73,11.48,11.48,0,0,0,2.52-2,5.61,5.61,0,0,1-2.72.56,4.93,4.93,0,0,1-2.55-.78,5.81,5.81,0,0,1-2-2.13,6,6,0,0,1-.73-3,6.8,6.8,0,0,1,1-3.64,6.29,6.29,0,0,1,2.52-2.34,6.88,6.88,0,0,1,3.29-.78A7.24,7.24,0,0,1,37,54.57Zm-5.49,7.67a2.73,2.73,0,0,0,2,.76,2.77,2.77,0,0,0,1.94-.71,2.23,2.23,0,0,0,.84-1.66V60a2.71,2.71,0,0,0-.76-1.94,2.59,2.59,0,0,0-1.94-.87,2.67,2.67,0,0,0-2,.76,3,3,0,0,0-.8,2.17A2.84,2.84,0,0,0,31.52,62.24Z"/><path class="cls-6" d="M63.91,65,64,68l-2.17,0,.06,4-4,.06-.06-4-7.61.11v0L61.56,53.59h0L61.75,65Zm-6.16.09,0-2.42-1.78,2.44Z"/><path class="cls-6" d="M64.16,101a5.51,5.51,0,0,1,2.17,2.14,6.77,6.77,0,0,1,.84,3,6.59,6.59,0,0,1-.68,3.28,6.15,6.15,0,0,1-2.15,2.4,6,6,0,0,1-3.08,1,8.76,8.76,0,0,1-3.15-.46A6.82,6.82,0,0,1,55.64,111l1.92-3.26a3.69,3.69,0,0,0,1.45.94,4.5,4.5,0,0,0,1.78.33,2.36,2.36,0,0,0,1.67-.72,2.34,2.34,0,0,0,.61-1.82,3,3,0,0,0-.85-2.09,2.73,2.73,0,0,0-2.12-.72,5.28,5.28,0,0,0-1.6.3,10.42,10.42,0,0,0-1.78.86h0l-.43-10.18,9.06-.39.16,3.84-5.64.23.09,2.06a5.91,5.91,0,0,1,1-.1A6.05,6.05,0,0,1,64.16,101Z"/><path class="cls-6" d="M101.74-5.06a2.87,2.87,0,0,0-1-.16q0,4.6,0,9.11c.06-.08.11-.16.16-.24a19.78,19.78,0,0,0,1.9-3.5,6.13,6.13,0,0,0,.52-3.21,2.37,2.37,0,0,0-1-1.72A2.51,2.51,0,0,0,101.74-5.06Z"/><path class="cls-6" d="M125.28,48.46a6.61,6.61,0,0,1,2.84,2.07,6.76,6.76,0,0,1,1.41,3.31A10,10,0,0,1,129,59a13.47,13.47,0,0,1-2.57,4.18A41.74,41.74,0,0,1,122.37,67l-3-2.47a22.63,22.63,0,0,0,3.16-2.25,11.62,11.62,0,0,0,2.17-2.42,5.69,5.69,0,0,1-2.6,1,4.94,4.94,0,0,1-2.64-.39,5.65,5.65,0,0,1-2.29-1.79,6,6,0,0,1-1.19-2.87,6.84,6.84,0,0,1,.42-3.75,6.34,6.34,0,0,1,2.13-2.7,6.88,6.88,0,0,1,3.13-1.28A7.24,7.24,0,0,1,125.28,48.46Zm-4.23,8.43a3,3,0,0,0,3.87-.56,2.22,2.22,0,0,0,.56-1.77l-.09-.62a2.78,2.78,0,0,0-1.06-1.8,2.58,2.58,0,0,0-2-.55,2.62,2.62,0,0,0-1.84,1,3,3,0,0,0-.45,2.27A2.8,2.8,0,0,0,121.05,56.89Z"/><path class="cls-6" d="M132.38,72.16a6.82,6.82,0,0,1-1.19-1.37,3.65,3.65,0,0,1-.45-1.74,3.57,3.57,0,0,1,.57-2.21,4.72,4.72,0,0,1,1.78-1.61,6,6,0,0,1,2.57-.7,6.49,6.49,0,0,1,2.64.37,4.91,4.91,0,0,1,2,1.34,3.27,3.27,0,0,1,.84,2,4,4,0,0,1-.26,1.93,6.86,6.86,0,0,1-1.1,1.56,9.16,9.16,0,0,1,2.37,1.91,4.93,4.93,0,0,1,1.08,3,5.49,5.49,0,0,1-.73,3,6.58,6.58,0,0,1-2.35,2.4,7.32,7.32,0,0,1-3.45,1.06,7.22,7.22,0,0,1-3.55-.64,6.54,6.54,0,0,1-2.58-2.11,5.47,5.47,0,0,1-1.07-2.94A5.7,5.7,0,0,1,132.38,72.16ZM134.52,79a2.61,2.61,0,0,0,2,.74,2.95,2.95,0,0,0,2.72-3.1,2.93,2.93,0,0,0-.94-2,2.7,2.7,0,0,0-2-.74,2.91,2.91,0,0,0-2.69,3.1A2.89,2.89,0,0,0,134.52,79Zm.6-8.78a1.35,1.35,0,0,0,1,.35,1.42,1.42,0,0,0,1.29-1.45,1.36,1.36,0,0,0-.49-.94,1.29,1.29,0,0,0-1-.37,1.37,1.37,0,0,0-.94.48,1.34,1.34,0,0,0-.38,1A1.32,1.32,0,0,0,135.12,70.24Z"/><path class="cls-6" d="M172.11,61.53l-.52,3.8-13-1.78,1.66-1.27q2.91-2.25,4.53-3.64a20,20,0,0,0,2.77-2.86,6.32,6.32,0,0,0,1.36-3,2.39,2.39,0,0,0-.51-1.93,2.92,2.92,0,0,0-1.92-.95,2.79,2.79,0,0,0-2,.36,1.85,1.85,0,0,0-.9,1.32,3.8,3.8,0,0,0,.68,2.85l-2.71,1.87a3.32,3.32,0,0,1-1.14-1.4,7.18,7.18,0,0,1-.61-2,5.91,5.91,0,0,1-.06-1.75A5.58,5.58,0,0,1,161,48.43a6.22,6.22,0,0,1,2.76-1.87,8.3,8.3,0,0,1,3.93-.32,6.21,6.21,0,0,1,3.09,1.27,6,6,0,0,1,2.28,5.55,7.49,7.49,0,0,1-.94,2.75,13.54,13.54,0,0,1-1.77,2.42c-.69.75-1.58,1.65-2.68,2.69Z"/><path class="cls-6" d="M184.29,65.42a7.06,7.06,0,0,1-1.56,7A6,6,0,0,1,179.9,74a6.91,6.91,0,0,1-3.32,0A7.69,7.69,0,0,1,174,72.69a6.58,6.58,0,0,1-1.93-2L174.78,68a4.41,4.41,0,0,0,1,1.32,3.64,3.64,0,0,0,1.57.86,2.49,2.49,0,0,0,1.87-.29,2.55,2.55,0,0,0,1.21-1.72,2.67,2.67,0,0,0-.21-2A2.44,2.44,0,0,0,178.61,65a7,7,0,0,0-2.08-.26l-.06-.12,4.19-4.68-4.21-1,.91-3.73L187,57.53l-4.92,5.63A4.56,4.56,0,0,1,184.29,65.42Z"/><path class="cls-6" d="M206.36,57.51l-.77,2.92-2.09-.56-1,3.84-3.86-1,1-3.83-7.36-2v0l14.91-10.91h0l-2.94,11Zm-6-1.59L201,53.6l-2.37,1.86Z"/><path class="cls-6" d="M221.47,57.83,220.33,76l-4-.25.89-14.3-1.45-.09.24-3.83Z"/><path class="cls-6" d="M233.61,74.44a7,7,0,0,1-3.12-2.7,11.66,11.66,0,0,1-1.68-4.94q-1.22-9.16,6.37-10.13a7.42,7.42,0,0,1,4,.48,7.13,7.13,0,0,1,3.12,2.71A11.61,11.61,0,0,1,244,64.79a11.78,11.78,0,0,1-.33,5.28,6.74,6.74,0,0,1-2.31,3.39,7.42,7.42,0,0,1-3.73,1.46A7.24,7.24,0,0,1,233.61,74.44Zm6-5.11a8.43,8.43,0,0,0,.27-4.1q-.69-5.22-4.2-4.75a2.81,2.81,0,0,0-2.47,1.77,8.05,8.05,0,0,0-.27,4,8.35,8.35,0,0,0,1.31,3.84,2.79,2.79,0,0,0,2.85,1.08A2.86,2.86,0,0,0,239.58,69.33Z"/><polyline class="cls-6" points="10.75 30.19 16.2 30.03 16.73 48.18 12.73 48.3 12.31 33.98 10.86 34.02"/><path class="cls-6" d="M40.34,46.79,41,50.57,28.08,52.83l1.2-1.71c1.39-2,2.45-3.63,3.2-4.84a20.05,20.05,0,0,0,1.76-3.58,6.24,6.24,0,0,0,.4-3.22,2.37,2.37,0,0,0-1.08-1.68,2.89,2.89,0,0,0-2.11-.32,2.7,2.7,0,0,0-1.78,1A1.84,1.84,0,0,0,29.21,40a3.86,3.86,0,0,0,1.53,2.52l-2,2.6a3.25,3.25,0,0,1-1.51-1A7,7,0,0,1,26,42.38a6.26,6.26,0,0,1-.59-1.65,5.43,5.43,0,0,1,.33-3,6.14,6.14,0,0,1,2.06-2.63,8.29,8.29,0,0,1,3.64-1.5,6.2,6.2,0,0,1,3.33.27,6,6,0,0,1,3.86,4.59,7.46,7.46,0,0,1-.06,2.9,13.8,13.8,0,0,1-.94,2.85c-.43.92-1,2-1.74,3.38Z"/><path class="cls-6" d="M71.26,28.61a6,6,0,0,1,1.18,3.77,6.13,6.13,0,0,1-.79,3.37A5.88,5.88,0,0,1,69.35,38a7,7,0,0,1-3.2.87,7.56,7.56,0,0,1-2.86-.47A6.5,6.5,0,0,1,60.9,37l1.91-3.36a4.3,4.3,0,0,0,1.35,1,3.57,3.57,0,0,0,1.74.4,2.48,2.48,0,0,0,1.73-.78,2.6,2.6,0,0,0,.69-2,2.67,2.67,0,0,0-.75-1.89,2.48,2.48,0,0,0-1.89-.65,9.08,9.08,0,0,0-1.15.1,9.19,9.19,0,0,0-.92.22l-.09-.1,2.76-5.64L62,24.48l-.14-3.84,9.88-.35L68.49,27A4.57,4.57,0,0,1,71.26,28.61Z"/><path class="cls-6" d="M78.1,37.43a7.17,7.17,0,0,1-2.73-3.1,11.55,11.55,0,0,1-1-5.12q0-9.26,7.67-9.18a7.32,7.32,0,0,1,3.89,1,7.11,7.11,0,0,1,2.73,3.1,11.53,11.53,0,0,1,1,5.11,11.64,11.64,0,0,1-1,5.19,6.85,6.85,0,0,1-2.75,3,7.46,7.46,0,0,1-3.89.94A7.22,7.22,0,0,1,78.1,37.43Zm6.61-4.26a8.56,8.56,0,0,0,.82-4c0-3.51-1.16-5.26-3.52-5.27a2.84,2.84,0,0,0-2.69,1.41,8.21,8.21,0,0,0-.81,3.92,8.37,8.37,0,0,0,.79,4A2.8,2.8,0,0,0,82,34.64,2.88,2.88,0,0,0,84.71,33.17Z"/><path class="cls-6" d="M106.27,20.67l-.41,18.16-4-.09.33-14.33-1.45,0,.08-3.83Z"/><path class="cls-6" d="M122.18,16l-7.12,18-4.44-.09,5.74-14.21-6.52-.13.07-3.84Z"/><path class="cls-6" d="M134.19,29.49a6.06,6.06,0,0,1,1,3.82,6.09,6.09,0,0,1-1,3.33,6,6,0,0,1-2.42,2.14,7.06,7.06,0,0,1-3.24.71,8.08,8.08,0,0,1-2.83-.62,6.64,6.64,0,0,1-2.32-1.52l2.08-3.26a4.46,4.46,0,0,0,1.3,1.07,3.68,3.68,0,0,0,1.72.49,2.5,2.5,0,0,0,1.76-.7,2.56,2.56,0,0,0,.8-2,2.68,2.68,0,0,0-.65-1.92,2.48,2.48,0,0,0-1.86-.75c-.49,0-.87,0-1.15,0a6.82,6.82,0,0,0-.93.18l-.08-.11,3-5.49-4.33-.07.06-3.83,9.89.15-3.55,6.58A4.51,4.51,0,0,1,134.19,29.49Z"/><path class="cls-6" d="M159.9,32.62l0,3-2.16,0,0,4-4,0,0-4-7.62-.06v0L157.8,21.21h0l-.1,11.4Zm-6.17,0,0-2.41-1.82,2.39Z"/><path class="cls-6" d="M181.68,34.45a5.79,5.79,0,0,1,2,2.1,6,6,0,0,1,.77,3,6.12,6.12,0,0,1-1,3.39A6.32,6.32,0,0,1,181,45.14a7.42,7.42,0,0,1-3.29.75,6.91,6.91,0,0,1-3.6-1,6.39,6.39,0,0,1-2.51-2.77,9.76,9.76,0,0,1-.9-4.37,9.45,9.45,0,0,1,2.2-5.89A20.22,20.22,0,0,1,178.6,27l2.66,2.88a11.81,11.81,0,0,0-3.55,2.16,9.2,9.2,0,0,0-2.16,2.85,5.17,5.17,0,0,1,3.57-1.2A4.92,4.92,0,0,1,181.68,34.45Zm-2.13,7.15a2.63,2.63,0,0,0,.77-2,2.36,2.36,0,0,0-.77-1.89,2.91,2.91,0,0,0-2-.66,3,3,0,0,0-1.93.63,1.81,1.81,0,0,0-.81,1.45v.66a2.4,2.4,0,0,0,.79,1.78,2.94,2.94,0,0,0,3.92,0Z"/><path class="cls-6" d="M205.07,35.78v3.83L192,39.67l1.47-1.49c1.71-1.76,3-3.17,4-4.23a19.61,19.61,0,0,0,2.34-3.23,6.25,6.25,0,0,0,.94-3.12,2.36,2.36,0,0,0-.78-1.83,2.91,2.91,0,0,0-2-.67,2.77,2.77,0,0,0-1.91.63,1.87,1.87,0,0,0-.71,1.43,3.85,3.85,0,0,0,1.08,2.74l-2.43,2.23a3.47,3.47,0,0,1-1.32-1.23A6.8,6.8,0,0,1,191.7,29a5.92,5.92,0,0,1-.31-1.72,5.44,5.44,0,0,1,.83-2.92,6.18,6.18,0,0,1,2.48-2.25,8.12,8.12,0,0,1,3.84-.86,6.27,6.27,0,0,1,3.24.82A6,6,0,0,1,204,24.3a5.81,5.81,0,0,1,.81,3,7.45,7.45,0,0,1-.55,2.85,13.48,13.48,0,0,1-1.41,2.65c-.57.83-1.33,1.85-2.28,3Z"/><path class="cls-6" d="M237.75,33.9a8.61,8.61,0,0,0,.74-4q-.09-5.26-3.63-5.2a2.82,2.82,0,0,0-2.66,1.47,8.23,8.23,0,0,0-.73,3.93,8.3,8.3,0,0,0,.87,4,2.8,2.8,0,0,0,2.71,1.4A2.87,2.87,0,0,0,237.75,33.9Z"/><path class="cls-6" d="M37.59,2.24a6.61,6.61,0,0,1,2.49,2.49A6.68,6.68,0,0,1,41,8.22a9.93,9.93,0,0,1-1.31,5,13.8,13.8,0,0,1-3.19,3.72,42.58,42.58,0,0,1-4.62,3.19l-2.62-2.92a22.13,22.13,0,0,0,3.48-1.73,11.67,11.67,0,0,0,2.52-2.05,5.75,5.75,0,0,1-2.72.57,4.89,4.89,0,0,1-2.55-.79,5.65,5.65,0,0,1-2-2.12,5.93,5.93,0,0,1-.72-3,6.74,6.74,0,0,1,1-3.64,6.36,6.36,0,0,1,2.52-2.34A7,7,0,0,1,34,1.3,7.24,7.24,0,0,1,37.59,2.24ZM32.1,9.91a2.78,2.78,0,0,0,2,.77A2.75,2.75,0,0,0,36,10a2.24,2.24,0,0,0,.83-1.66V7.67a2.72,2.72,0,0,0-.77-1.94,2.6,2.6,0,0,0-1.94-.86,2.66,2.66,0,0,0-2,.75,3,3,0,0,0-.79,2.17A2.78,2.78,0,0,0,32.1,9.91Z"/><path class="cls-6" d="M57.82,5.63l0,3-2.16,0,.06,4-4,0-.06-4-7.61.11v0L55.46-5.74h0l.16,11.4Zm-6.16.09,0-2.41L49.85,5.75Z"/><path class="cls-6" d="M69,.68a5.54,5.54,0,0,1,2.17,2.15,6.48,6.48,0,0,1,.84,3,6.48,6.48,0,0,1-.68,3.28,6.17,6.17,0,0,1-2.15,2.41,6,6,0,0,1-3.08,1,8.76,8.76,0,0,1-3.15-.46,6.81,6.81,0,0,1-2.47-1.36l1.92-3.26a3.8,3.8,0,0,0,1.45.94,4.48,4.48,0,0,0,1.78.32A2.36,2.36,0,0,0,67.29,8a2.33,2.33,0,0,0,.61-1.82,3,3,0,0,0-.85-2.09,2.8,2.8,0,0,0-2.12-.72,6,6,0,0,0-1.6.3,11.24,11.24,0,0,0-1.78.86h0L61.1-5.66,70.16-6l.16,3.83L64.68-2,64.77.08a7.27,7.27,0,0,1,1-.1A6.15,6.15,0,0,1,69,.68Z"/><path class="cls-6" d="M89.27-7.51,91,10.57,87,11,85.65-3.31l-1.44.14L83.84-7Z"/><path class="cls-6" d="M119.18-10.87A6.51,6.51,0,0,1,122-8.8a6.75,6.75,0,0,1,1.4,3.31,10,10,0,0,1-.52,5.14,13.69,13.69,0,0,1-2.57,4.17,41.94,41.94,0,0,1-4.07,3.87l-3-2.47A21.87,21.87,0,0,0,116.38,3,11.65,11.65,0,0,0,118.56.55a5.77,5.77,0,0,1-2.6,1,4.86,4.86,0,0,1-2.65-.38A5.81,5.81,0,0,1,111-.64a5.89,5.89,0,0,1-1.18-2.87,7,7,0,0,1,.41-3.76,6.41,6.41,0,0,1,2.14-2.7,6.91,6.91,0,0,1,3.12-1.28A7.29,7.29,0,0,1,119.18-10.87Zm-4.24,8.42A2.74,2.74,0,0,0,117-2a2.83,2.83,0,0,0,1.81-1,2.24,2.24,0,0,0,.56-1.77l-.09-.62a2.65,2.65,0,0,0-1.06-1.8,2.55,2.55,0,0,0-2-.55,2.64,2.64,0,0,0-1.85,1,2.94,2.94,0,0,0-.44,2.26A2.79,2.79,0,0,0,114.94-2.45Z"/><path class="cls-6" d="M134.21,2.83A6.31,6.31,0,0,1,133,1.46a3.62,3.62,0,0,1-.45-1.74,3.54,3.54,0,0,1,.57-2.2,4.66,4.66,0,0,1,1.78-1.62,6.17,6.17,0,0,1,2.57-.7,6.3,6.3,0,0,1,2.64.38,4.79,4.79,0,0,1,2,1.33,3.29,3.29,0,0,1,.84,2,4,4,0,0,1-.26,1.92,6.86,6.86,0,0,1-1.1,1.56A9,9,0,0,1,144,4.31a4.81,4.81,0,0,1,1.08,3,5.53,5.53,0,0,1-.72,3.05A6.64,6.64,0,0,1,142,12.72a7.31,7.31,0,0,1-3.45,1,7.11,7.11,0,0,1-3.55-.64A6.46,6.46,0,0,1,132.41,11a5.47,5.47,0,0,1-1.07-2.94A5.71,5.71,0,0,1,134.21,2.83Zm2.14,6.86a2.61,2.61,0,0,0,2,.74,2.77,2.77,0,0,0,2-1,2.81,2.81,0,0,0,.73-2.12,2.85,2.85,0,0,0-.94-2,2.65,2.65,0,0,0-2.05-.74,2.9,2.9,0,0,0-2.69,3.09A2.85,2.85,0,0,0,136.35,9.69ZM137,.91a1.36,1.36,0,0,0,1,.36,1.34,1.34,0,0,0,.92-.47,1.29,1.29,0,0,0,.37-1,1.33,1.33,0,0,0-.48-.95,1.35,1.35,0,0,0-1-.37,1.34,1.34,0,0,0-.93.49,1.26,1.26,0,0,0-.38,1A1.24,1.24,0,0,0,137,.91Z"/><path class="cls-6" d="M164.06,9.23l-.52,3.8-13-1.79L152.21,10q2.91-2.25,4.52-3.63a20.18,20.18,0,0,0,2.78-2.87A6.28,6.28,0,0,0,160.87.52a2.36,2.36,0,0,0-.51-1.92,3,3,0,0,0-1.92-1,2.78,2.78,0,0,0-2,.36,1.87,1.87,0,0,0-.9,1.32,3.84,3.84,0,0,0,.68,2.86L153.52,4a3.38,3.38,0,0,1-1.13-1.4,6.86,6.86,0,0,1-.61-2,5.91,5.91,0,0,1-.06-1.75A5.58,5.58,0,0,1,153-3.88a6.2,6.2,0,0,1,2.77-1.87,8.12,8.12,0,0,1,3.92-.31,6.2,6.2,0,0,1,3.09,1.26,6,6,0,0,1,1.9,2.52,6,6,0,0,1,.38,3,7.47,7.47,0,0,1-.95,2.74,12.69,12.69,0,0,1-1.77,2.43c-.68.74-1.58,1.64-2.68,2.69Z"/><path class="cls-6" d="M177.12,12.1a6.07,6.07,0,0,1,.11,3.94,6.15,6.15,0,0,1-1.67,3,6.08,6.08,0,0,1-2.83,1.55,7,7,0,0,1-3.32,0,7.66,7.66,0,0,1-2.62-1.22,6.61,6.61,0,0,1-1.93-2l2.75-2.71a4.29,4.29,0,0,0,1,1.32,3.54,3.54,0,0,0,1.57.86,2.44,2.44,0,0,0,1.87-.29,2.52,2.52,0,0,0,1.21-1.72,2.64,2.64,0,0,0-.21-2,2.48,2.48,0,0,0-1.64-1.14,11.27,11.27,0,0,0-1.13-.22,7.07,7.07,0,0,0-.95,0l-.05-.13,4.18-4.67-4.21-1,.91-3.72,9.61,2.34-4.92,5.62A4.62,4.62,0,0,1,177.12,12.1Z"/><path class="cls-6" d="M193.19,6.19l-.77,2.91-2.09-.56-1,3.84-3.86-1,1-3.84-7.35-2v0L194-5.39h0l-2.94,11ZM187.24,4.6l.62-2.33-2.37,1.86Z"/><path class="cls-6" d="M215.2-1.5l-1.15,18.13-4-.25.9-14.3L209.51,2l.25-3.82Z"/><path class="cls-6" d="M7.47,198.48,6.3,216.61l-4-.26.92-14.3L1.78,202,2,198.13Z"/><path class="cls-6" d="M27.33,144.43c-.21.36-.44.73-.68,1.13V133.68a3.49,3.49,0,0,1,.42-.13,3,3,0,0,1,2.13.22,2.34,2.34,0,0,1,1.16,1.62,6.24,6.24,0,0,1-.23,3.24,19.74,19.74,0,0,1-1.58,3.66C28.22,142.9,27.81,143.61,27.33,144.43Z"/><path class="cls-6" d="M41.85,211.37l.34,3.82-13.06,1.19,1.34-1.61c1.55-1.9,2.74-3.42,3.59-4.56a20,20,0,0,0,2-3.42,6.2,6.2,0,0,0,.66-3.18,2.31,2.31,0,0,0-.93-1.76,2.9,2.9,0,0,0-2.08-.5,2.77,2.77,0,0,0-1.85.8,1.83,1.83,0,0,0-.58,1.48,3.83,3.83,0,0,0,1.31,2.64l-2.23,2.43A3.38,3.38,0,0,1,29,207.59a7.22,7.22,0,0,1-1-1.81,6.17,6.17,0,0,1-.46-1.69,5.5,5.5,0,0,1,.58-3,6.16,6.16,0,0,1,2.27-2.45,8.19,8.19,0,0,1,3.76-1.19,6.22,6.22,0,0,1,3.29.54,5.89,5.89,0,0,1,2.41,2,5.81,5.81,0,0,1,1.06,2.87,7.52,7.52,0,0,1-.3,2.89,13.42,13.42,0,0,1-1.18,2.76c-.5.88-1.17,1.95-2,3.22Z"/><path class="cls-6" d="M93.41,181.13l.19,3-2.16.13.24,4-4,.25-.24-4-7.61.47v0l10.68-15.07h0l.71,11.38Zm-6.15.37-.15-2.4-1.66,2.52Z"/><path class="cls-6" d="M76.5,204.64a6,6,0,0,1,.9,3.85,6.2,6.2,0,0,1-1,3.3,6,6,0,0,1-2.47,2.09,7.12,7.12,0,0,1-3.26.63,7.87,7.87,0,0,1-2.81-.69,6.44,6.44,0,0,1-2.28-1.57L67.7,209a4.38,4.38,0,0,0,1.27,1.1,3.53,3.53,0,0,0,1.71.53,2.52,2.52,0,0,0,1.78-.66,2.58,2.58,0,0,0,.84-1.93,2.64,2.64,0,0,0-.61-1.94,2.47,2.47,0,0,0-1.83-.78,8.48,8.48,0,0,0-1.16,0,6.67,6.67,0,0,0-.94.15l-.07-.11L71.86,200l-4.33-.16.15-3.83,9.88.37-3.7,6.49A4.64,4.64,0,0,1,76.5,204.64Z"/><path class="cls-6" d="M49.67,215a7.22,7.22,0,0,1-2.48-3.31,11.51,11.51,0,0,1-.59-5.18q.74-9.22,8.35-8.55a7.24,7.24,0,0,1,3.8,1.3,7.15,7.15,0,0,1,2.48,3.31,13.58,13.58,0,0,1-.83,10.27,6.8,6.8,0,0,1-3,2.82,7.49,7.49,0,0,1-4,.65A7.37,7.37,0,0,1,49.67,215Zm6.92-3.75a8.58,8.58,0,0,0,1.13-4c.28-3.5-.76-5.34-3.1-5.52a2.79,2.79,0,0,0-2.79,1.2,8,8,0,0,0-1.11,3.84,8.37,8.37,0,0,0,.47,4,2.83,2.83,0,0,0,2.56,1.67A2.87,2.87,0,0,0,56.59,211.21Z"/><path class="cls-6" d="M112,195.46l-1.88,18.06-4-.41,1.49-14.25-1.44-.15.39-3.82Z"/><path class="cls-6" d="M136.19,205.53a7.09,7.09,0,0,1-.56,7.13,5.94,5.94,0,0,1-2.58,1.94,7,7,0,0,1-3.29.44,7.75,7.75,0,0,1-2.77-.85,6.42,6.42,0,0,1-2.18-1.7l2.33-3.07a4.36,4.36,0,0,0,1.21,1.16,3.61,3.61,0,0,0,1.67.63,2.51,2.51,0,0,0,1.82-.55,3,3,0,0,0,.45-3.85,2.41,2.41,0,0,0-1.78-.89,8.94,8.94,0,0,0-1.15-.06,7.33,7.33,0,0,0-1,.1l-.07-.12,3.48-5.22-4.31-.42.38-3.82,9.84,1-4.08,6.27A4.54,4.54,0,0,1,136.19,205.53Z"/><path class="cls-6" d="M183.54,208.37a5.76,5.76,0,0,1,1.83,2.26,5.91,5.91,0,0,1,.52,3.06,6.14,6.14,0,0,1-1.22,3.3,6.25,6.25,0,0,1-2.65,2,7.55,7.55,0,0,1-3.34.48,6.91,6.91,0,0,1-3.51-1.25,6.43,6.43,0,0,1-2.28-3,9.74,9.74,0,0,1-.54-4.43,9.53,9.53,0,0,1,2.67-5.69,20.37,20.37,0,0,1,6.06-4.42l2.41,3.09a11.63,11.63,0,0,0-3.71,1.86,8.88,8.88,0,0,0-2.38,2.67,5.12,5.12,0,0,1,3.65-.91A4.88,4.88,0,0,1,183.54,208.37Zm-2.71,6.95a2.64,2.64,0,0,0,.93-1.94,2.33,2.33,0,0,0-.61-1.95,2.93,2.93,0,0,0-1.91-.82,3.07,3.07,0,0,0-2,.47,1.79,1.79,0,0,0-.93,1.38l-.05.66a2.4,2.4,0,0,0,.64,1.84,3,3,0,0,0,3.9.36Z"/><path class="cls-6" d="M228.86,227.78l-13.09-.91,1.58-1.38c1.83-1.62,3.26-2.94,4.27-3.93a19.67,19.67,0,0,0,2.57-3,6.23,6.23,0,0,0,1.17-3,2.41,2.41,0,0,0-.64-1.88,3,3,0,0,0-2-.83,2.73,2.73,0,0,0-2,.5,1.85,1.85,0,0,0-.82,1.37,3.83,3.83,0,0,0,.88,2.8l-2.59,2.05a3.42,3.42,0,0,1-1.22-1.32,7.1,7.1,0,0,1-.75-1.95,6,6,0,0,1-.17-1.74,5.44,5.44,0,0,1,1-2.86,6.18,6.18,0,0,1,2.62-2.05,8.26,8.26,0,0,1,3.9-.58,6.34,6.34,0,0,1,3.17,1.06,6.05,6.05,0,0,1,2.06,2.38,5.86,5.86,0,0,1,.58,3,7.46,7.46,0,0,1-.76,2.81,13.66,13.66,0,0,1-1.6,2.53c-.63.79-1.46,1.75-2.49,2.86l4.47.32-.26,3.82"/><path class="cls-6" d="M17.52,286.94c0-24,0-47.85,0-69.89a7.29,7.29,0,0,1-2.64-.5,6.57,6.57,0,0,1-2.36-1.44l2-3.33a4.21,4.21,0,0,0,1.33,1,3.45,3.45,0,0,0,1.7.44c0-1.78,0-3.55,0-5.31a10.48,10.48,0,0,0-1.24.07,9.06,9.06,0,0,0-.93.21l-.09-.11,2.26-4.4v-1.17l-3.72.06-.06-3.83,3.79-.07c0-7.42,0-14.56,0-21.33a5.17,5.17,0,0,1-1.81,1.79,7.08,7.08,0,0,1-3.17,1,7.68,7.68,0,0,1-2.87-.36,6.59,6.59,0,0,1-2.44-1.31l1.77-3.42a4.51,4.51,0,0,0,1.39.94,3.47,3.47,0,0,0,1.76.33,2.46,2.46,0,0,0,1.69-.85,2.51,2.51,0,0,0,.62-2,2.65,2.65,0,0,0-.82-1.86A2.46,2.46,0,0,0,11.8,171a7.79,7.79,0,0,0-1.15.14,7.53,7.53,0,0,0-.91.25l-.09-.1,2.54-5.74-4.32.33-.28-3.83,9.86-.74-2.95,6.87a4.62,4.62,0,0,1,2.83,1.47,4.08,4.08,0,0,1,.31.39c0-7.31,0-14.14,0-20.36v-.2A7,7,0,0,1,14,151.35a7.84,7.84,0,0,1-2.88-.09,6.66,6.66,0,0,1-2.56-1.06L10,146.61a4.27,4.27,0,0,0,1.47.81,3.66,3.66,0,0,0,1.78.17,2.49,2.49,0,0,0,1.61-1,2.57,2.57,0,0,0,.42-2.06,2.62,2.62,0,0,0-1-1.77,2.47,2.47,0,0,0-2-.39c-.49.09-.86.17-1.13.25a7,7,0,0,0-.88.35l-.1-.1,2-5.95-4.26.73-.65-3.78L17,132.18l-2.28,7.12a4.53,4.53,0,0,1,3,1.22c.08-16.73.18-27.46.32-29.27a87,87,0,0,0,.19-9.8l0-.48a7.8,7.8,0,0,1-3.08.36,3.09,3.09,0,0,1-.61-.08L12.71,103,4.15,111.6l-1,1L.72,110.19l-2.42-2.42L8.9,97.17a2.07,2.07,0,0,1-.15-.34,11.61,11.61,0,0,1-.7-5.16q.58-9.24,8.2-8.71A7.06,7.06,0,0,1,21.05,85l1.19-1.19c.49.52,1.16,1.21,2,2s1.78,1.77,2.87,2.81l2.52,2.41c.62-1,1.92-3.18,1.92-3.18l-4.33-.24.21-3.83,9.88.54-3.81,6.43a4.57,4.57,0,0,1,2.62,1.82,6,6,0,0,1,.83,3.85A7.4,7.4,0,0,1,36.68,98c1.7,1.7,3.19,3.21,4.46,4.51,3.27,3.34,5,5.24,5,5.24l-2.42,2.42-2.42,2.42-1.71-1.7-4.22-4.22-4.33-4.34a4.73,4.73,0,0,1-1,.05,7.73,7.73,0,0,1-3.43-1.08c0,.17,0,.35,0,.52,0,.37,0,.43-.06,1.77-.06,2.92,0,4.84.06,6.69.08,3.53,0,3.76,0,6.38.09,4.15,0,8.86,0,13a.81.81,0,0,1,.22-.07,6.24,6.24,0,0,1,3.33.09,6,6,0,0,1,2.66,1.69,5.83,5.83,0,0,1,1.44,2.7,7.89,7.89,0,0,1,.09,2.91,13.93,13.93,0,0,1-.8,2.89c-.38.94-.9,2.09-1.56,3.46l4.38-1,.86,3.74-10.64,2.43v11.29a6.77,6.77,0,0,1,4.56,0,6,6,0,0,1,2.54,1.87,5.86,5.86,0,0,1,1.24,2.8,7.48,7.48,0,0,1-.12,2.9,13.61,13.61,0,0,1-1,2.83c-.44.91-1,2-1.8,3.35l4.44-.69.59,3.78-10.45,1.62c0,38.37,0,95.84,0,150.1"/><path class="cls-6" d="M50.15,146.52l.54,3-2.13.39.72,3.91-3.94.72-.71-3.91L37.14,152v0L46,135.7h0L48,146.91Zm-6.06,1.11-.44-2.38L42.31,148Z"/><path class="cls-6" d="M77.06,140.09a7.1,7.1,0,0,1-2.88-3,11.77,11.77,0,0,1-1.25-5.06q-.42-9.24,7.21-9.55a7.32,7.32,0,0,1,3.93.82,7.16,7.16,0,0,1,2.88,3,11.53,11.53,0,0,1,1.25,5.06,11.77,11.77,0,0,1-.77,5.24,6.91,6.91,0,0,1-2.6,3.18A7.46,7.46,0,0,1,81,140.91,7.16,7.16,0,0,1,77.06,140.09Zm6.38-4.58a8.34,8.34,0,0,0,.63-4.06c-.17-3.51-1.43-5.2-3.78-5.09a2.81,2.81,0,0,0-2.61,1.54,8.12,8.12,0,0,0-.62,3.95,8.46,8.46,0,0,0,1,3.94,3.23,3.23,0,0,0,5.4-.28Z"/><path class="cls-6" d="M180.24,125.84a5.76,5.76,0,0,1,2.12,2,6.46,6.46,0,0,1,.14,6.4,6.16,6.16,0,0,1-2.36,2.31,7.44,7.44,0,0,1-3.25.92,7,7,0,0,1-3.65-.76,6.45,6.45,0,0,1-2.64-2.64,9.69,9.69,0,0,1-1.12-4.32,9.4,9.4,0,0,1,1.89-6,20.18,20.18,0,0,1,5.41-5.18l2.8,2.73a11.79,11.79,0,0,0-3.43,2.34,9.07,9.07,0,0,0-2,3,5.07,5.07,0,0,1,3.49-1.38A4.85,4.85,0,0,1,180.24,125.84Zm-1.76,7.25a2.61,2.61,0,0,0,.66-2.05,2.36,2.36,0,0,0-.86-1.85,2.93,2.93,0,0,0-2-.56,3.1,3.1,0,0,0-1.9.72,1.82,1.82,0,0,0-.73,1.5l0,.65a2.39,2.39,0,0,0,.88,1.74,2.69,2.69,0,0,0,2,.67A2.75,2.75,0,0,0,178.48,133.09Z"/><path class="cls-6" d="M223.75,130.69l.24,3.83-13.09.83,1.38-1.57q2.4-2.79,3.72-4.46a19.92,19.92,0,0,0,2.14-3.37,6.12,6.12,0,0,0,.75-3.16A2.34,2.34,0,0,0,218,121a3,3,0,0,0-2.07-.56,2.76,2.76,0,0,0-1.87.75,1.88,1.88,0,0,0-.62,1.47,3.86,3.86,0,0,0,1.24,2.67l-2.3,2.36a3.26,3.26,0,0,1-1.39-1.14,7,7,0,0,1-1-1.84,6.18,6.18,0,0,1-.41-1.7,5.56,5.56,0,0,1,.66-3,6.22,6.22,0,0,1,2.34-2.39,8.35,8.35,0,0,1,3.79-1.09,6.36,6.36,0,0,1,3.27.63,6,6,0,0,1,3.34,5,7.49,7.49,0,0,1-.39,2.88,13.2,13.2,0,0,1-1.25,2.73c-.52.87-1.22,1.92-2.09,3.17Z"/><polyline class="cls-6" points="-4.17 162.15 1.28 162.18 1.19 180.34 -2.81 180.32"/><path class="cls-6" d="M29,163.47a2.74,2.74,0,0,1,.9.36,2.35,2.35,0,0,1,1,1.7,6.21,6.21,0,0,1-.46,3.22,19.28,19.28,0,0,1-1.83,3.54c-.52.8-1.18,1.79-2,3,0-4.07,0-7.91,0-11.46A4.39,4.39,0,0,1,29,163.47Z"/><path class="cls-6" d="M50.83,189.67l.4,3-2.15.29.53,3.93-4,.53-.52-3.94-7.55,1v0l9.57-15.79h0L48.68,190Zm-6.11.82-.32-2.39-1.47,2.63Z"/><path class="cls-6" d="M70.76,163.78a6,6,0,0,1,1.16,3.77,6.11,6.11,0,0,1-.8,3.37,6,6,0,0,1-2.32,2.25,7,7,0,0,1-3.2.86,7.8,7.8,0,0,1-2.86-.49,6.43,6.43,0,0,1-2.38-1.41l1.92-3.35a4.33,4.33,0,0,0,1.35,1,3.53,3.53,0,0,0,1.74.41,2.5,2.5,0,0,0,1.73-.78,2.58,2.58,0,0,0,.7-2,2.62,2.62,0,0,0-.74-1.89,2.45,2.45,0,0,0-1.89-.65A7.48,7.48,0,0,0,64,165a6.67,6.67,0,0,0-.93.21l-.08-.1,2.78-5.62-4.33.13-.12-3.83,9.89-.31L68,162.19A4.58,4.58,0,0,1,70.76,163.78Z"/><path class="cls-6" d="M159.09,169l-.07,3-2.16,0-.1,4-4-.1.1-4-7.62-.18v0l11.93-14.1h0L156.93,169Zm-6.16-.15.06-2.41-1.87,2.37Z"/><path class="cls-6" d="M199.21,172.83l-.05,3.83L186,176.51l1.5-1.47q2.61-2.59,4-4.17a20,20,0,0,0,2.4-3.19,6.23,6.23,0,0,0,1-3.1,2.32,2.32,0,0,0-.75-1.84,2.94,2.94,0,0,0-2-.71,2.8,2.8,0,0,0-1.92.6,1.9,1.9,0,0,0-.73,1.42,3.79,3.79,0,0,0,1,2.75L188.1,169a3.39,3.39,0,0,1-1.3-1.24,7.28,7.28,0,0,1-.85-1.91,6.1,6.1,0,0,1-.28-1.72,5.53,5.53,0,0,1,.88-2.91,6.09,6.09,0,0,1,2.51-2.2,8.23,8.23,0,0,1,3.86-.81,6.31,6.31,0,0,1,3.22.88,6,6,0,0,1,2.19,2.26,5.86,5.86,0,0,1,.76,3,7.69,7.69,0,0,1-.59,2.85,14,14,0,0,1-1.46,2.62c-.59.83-1.36,1.83-2.32,3Z"/><path class="cls-6" d="M71.09,122.24l-.07,3-2.16-.06-.1,4-4-.1.1-4-7.62-.18v0l11.93-14.1h0l-.28,11.39Zm-6.16-.14.06-2.41-1.87,2.36Z"/><path class="cls-6" d="M155.34,116a7,7,0,0,1-1.14-1.41,3.79,3.79,0,0,1-.39-1.76,3.59,3.59,0,0,1,.65-2.18,4.68,4.68,0,0,1,1.84-1.55,5.91,5.91,0,0,1,2.58-.61,6.25,6.25,0,0,1,2.63.47,4.81,4.81,0,0,1,2,1.4,3.27,3.27,0,0,1,.76,2,4,4,0,0,1-.33,1.91,6.37,6.37,0,0,1-1.15,1.52,9.11,9.11,0,0,1,2.3,2,4.83,4.83,0,0,1,1,3,5.52,5.52,0,0,1-.83,3,6.49,6.49,0,0,1-2.44,2.32,7.35,7.35,0,0,1-3.48.93,7.13,7.13,0,0,1-3.53-.76,6.47,6.47,0,0,1-2.51-2.2,5.57,5.57,0,0,1-1-3A5.71,5.71,0,0,1,155.34,116Zm1.9,6.93a2.61,2.61,0,0,0,2,.81,2.78,2.78,0,0,0,2-.91,2.88,2.88,0,0,0,.82-2.09,3,3,0,0,0-.88-2,2.66,2.66,0,0,0-2-.81,2.78,2.78,0,0,0-2,.9,2.81,2.81,0,0,0-.81,2.1A2.89,2.89,0,0,0,157.24,123Zm.91-8.75a1.4,1.4,0,0,0,1,.39,1.36,1.36,0,0,0,.94-.44,1.27,1.27,0,0,0,.4-1,1.36,1.36,0,0,0-.45-1,1.29,1.29,0,0,0-.95-.4,1.35,1.35,0,0,0-1,.45,1.28,1.28,0,0,0-.41,1A1.24,1.24,0,0,0,158.15,114.21Z"/><path class="cls-6" d="M56.34,183a7,7,0,0,1-1.14-1.41,3.79,3.79,0,0,1-.39-1.76,3.59,3.59,0,0,1,.65-2.18,4.68,4.68,0,0,1,1.84-1.55,5.91,5.91,0,0,1,2.58-.61,6.25,6.25,0,0,1,2.63.47,4.81,4.81,0,0,1,2,1.4,3.27,3.27,0,0,1,.76,2,4,4,0,0,1-.33,1.91,6.37,6.37,0,0,1-1.15,1.52,9.11,9.11,0,0,1,2.3,2,4.83,4.83,0,0,1,1,3,5.52,5.52,0,0,1-.83,3,6.49,6.49,0,0,1-2.44,2.32,7.35,7.35,0,0,1-3.48.93,7.13,7.13,0,0,1-3.53-.76,6.47,6.47,0,0,1-2.51-2.2,5.57,5.57,0,0,1-1-3A5.71,5.71,0,0,1,56.34,183Zm1.9,6.93a2.61,2.61,0,0,0,2,.81,2.78,2.78,0,0,0,2-.91,2.88,2.88,0,0,0,.82-2.09,3,3,0,0,0-.88-2.05,2.66,2.66,0,0,0-2-.81,2.78,2.78,0,0,0-2,.9,2.81,2.81,0,0,0-.81,2.1A2.89,2.89,0,0,0,58.24,190Zm.91-8.75a1.4,1.4,0,0,0,1,.39,1.36,1.36,0,0,0,.94-.44,1.27,1.27,0,0,0,.4-1,1.36,1.36,0,0,0-.45-1,1.29,1.29,0,0,0-1-.4,1.35,1.35,0,0,0-.95.45,1.28,1.28,0,0,0-.41,1A1.24,1.24,0,0,0,59.15,181.21Z"/><path class="cls-6" d="M78.16,66a5.51,5.51,0,0,1,2.17,2.14,6.77,6.77,0,0,1,.84,3,6.59,6.59,0,0,1-.68,3.28,6.15,6.15,0,0,1-2.15,2.4,6,6,0,0,1-3.08,1,8.76,8.76,0,0,1-3.15-.46A6.82,6.82,0,0,1,69.64,76l1.92-3.26a3.69,3.69,0,0,0,1.45.94,4.5,4.5,0,0,0,1.78.33,2.36,2.36,0,0,0,1.67-.72,2.34,2.34,0,0,0,.61-1.82,3,3,0,0,0-.85-2.09,2.73,2.73,0,0,0-2.12-.72,5.28,5.28,0,0,0-1.6.3,10.42,10.42,0,0,0-1.78.86h0l-.43-10.18,9.06-.39.16,3.84-5.64.23.09,2.06a5.91,5.91,0,0,1,1-.1A6.05,6.05,0,0,1,78.16,66Z"/><path class="cls-6" d="M53.59,40.57a6.63,6.63,0,0,1,3.36,6,9.89,9.89,0,0,1-1.31,5,14,14,0,0,1-3.19,3.73,42.61,42.61,0,0,1-4.62,3.18l-2.62-2.91a22.13,22.13,0,0,0,3.48-1.73,12,12,0,0,0,2.52-2.05,5.63,5.63,0,0,1-2.72.56,4.87,4.87,0,0,1-2.55-.78,5.75,5.75,0,0,1-2-2.13,5.9,5.9,0,0,1-.72-3,6.71,6.71,0,0,1,1-3.64,6.29,6.29,0,0,1,2.52-2.34A6.9,6.9,0,0,1,50,39.63,7.24,7.24,0,0,1,53.59,40.57ZM48.1,48.24a2.73,2.73,0,0,0,2,.76A2.79,2.79,0,0,0,52,48.29a2.25,2.25,0,0,0,.83-1.66V46a2.72,2.72,0,0,0-.77-1.94,2.57,2.57,0,0,0-1.94-.87,2.67,2.67,0,0,0-2,.76,2.94,2.94,0,0,0-.79,2.17A2.8,2.8,0,0,0,48.1,48.24Z"/><path class="cls-6" d="M51.18,16,44.06,34l-4.44-.09,5.74-14.21-6.52-.13.07-3.84Z"/><path class="cls-6" d="M21.18,60,14.06,78l-4.44-.09,5.74-14.21-6.52-.13.07-3.84Z"/><path class="cls-6" d="M66.18,136l-7.12,18-4.44-.09,5.74-14.21-6.52-.13.07-3.84Z"/><path class="cls-6" d="M174.18,145l-7.12,18-4.44-.09,5.74-14.21-6.52-.13.07-3.84Z"/><path class="cls-6" d="M107.24,129.84a5.76,5.76,0,0,1,2.12,2,6.46,6.46,0,0,1,.14,6.4,6.16,6.16,0,0,1-2.36,2.31,7.44,7.44,0,0,1-3.25.92,7,7,0,0,1-3.65-.76,6.45,6.45,0,0,1-2.64-2.64,9.69,9.69,0,0,1-1.12-4.32,9.4,9.4,0,0,1,1.89-6,20.18,20.18,0,0,1,5.41-5.18l2.8,2.73a11.79,11.79,0,0,0-3.43,2.34,9.07,9.07,0,0,0-2,3,5.07,5.07,0,0,1,3.49-1.38A4.85,4.85,0,0,1,107.24,129.84Zm-1.76,7.25a2.61,2.61,0,0,0,.66-2.05,2.36,2.36,0,0,0-.86-1.85,2.93,2.93,0,0,0-2-.56,3.1,3.1,0,0,0-1.9.72,1.82,1.82,0,0,0-.73,1.5l0,.65a2.39,2.39,0,0,0,.88,1.74,2.69,2.69,0,0,0,2,.67A2.75,2.75,0,0,0,105.48,137.09Z"/><path class="cls-6" d="M146.29,52.42a7.06,7.06,0,0,1-1.56,7A6,6,0,0,1,141.9,61a6.91,6.91,0,0,1-3.32,0A7.69,7.69,0,0,1,136,59.69a6.58,6.58,0,0,1-1.93-2L136.78,55a4.41,4.41,0,0,0,1,1.32,3.64,3.64,0,0,0,1.57.86,2.49,2.49,0,0,0,1.87-.29,2.55,2.55,0,0,0,1.21-1.72,2.67,2.67,0,0,0-.21-2A2.44,2.44,0,0,0,140.61,52a7,7,0,0,0-2.08-.26l-.06-.12,4.19-4.68-4.21-1,.91-3.73L149,44.53l-4.92,5.63A4.56,4.56,0,0,1,146.29,52.42Z"/><path class="cls-6" d="M193.77,135.89a6.64,6.64,0,0,1,2.57,2.39,6.81,6.81,0,0,1,1,3.46,10,10,0,0,1-1.14,5,13.61,13.61,0,0,1-3.05,3.83,41.66,41.66,0,0,1-4.51,3.35l-2.72-2.82a22,22,0,0,0,3.42-1.86,12.21,12.21,0,0,0,2.45-2.13,5.67,5.67,0,0,1-2.7.66,4.83,4.83,0,0,1-2.58-.7,5.7,5.7,0,0,1-2.06-2.05,5.94,5.94,0,0,1-.83-3,6.84,6.84,0,0,1,.87-3.67,6.33,6.33,0,0,1,2.44-2.43,6.92,6.92,0,0,1,3.25-.89A7.24,7.24,0,0,1,193.77,135.89Zm-5.22,7.85a3,3,0,0,0,3.9-.08,2.25,2.25,0,0,0,.78-1.69l0-.63a2.72,2.72,0,0,0-.83-1.92,2.61,2.61,0,0,0-2-.79,2.65,2.65,0,0,0-1.95.82,3,3,0,0,0-.72,2.19A2.81,2.81,0,0,0,188.55,143.74Z"/><path class="cls-6" d="M122.36,110.83,115.7,129l-4.43,0,5.36-14.36-6.52,0,0-3.84Z"/><path class="cls-6" d="M209.21,30.83A6.31,6.31,0,0,1,208,29.46a3.62,3.62,0,0,1-.45-1.74,3.54,3.54,0,0,1,.57-2.2,4.66,4.66,0,0,1,1.78-1.62,6.17,6.17,0,0,1,2.57-.7,6.3,6.3,0,0,1,2.64.38,4.79,4.79,0,0,1,2,1.33,3.29,3.29,0,0,1,.84,2,4,4,0,0,1-.26,1.92,6.86,6.86,0,0,1-1.1,1.56A9,9,0,0,1,219,32.31a4.81,4.81,0,0,1,1.08,2.95,5.53,5.53,0,0,1-.72,3.05A6.64,6.64,0,0,1,217,40.72a7.31,7.31,0,0,1-3.45,1.05,7.11,7.11,0,0,1-3.55-.64A6.46,6.46,0,0,1,207.41,39a5.47,5.47,0,0,1-1.07-2.94A5.71,5.71,0,0,1,209.21,30.83Zm2.14,6.86a2.61,2.61,0,0,0,2,.74,2.77,2.77,0,0,0,2-1,2.81,2.81,0,0,0,.73-2.12,2.85,2.85,0,0,0-.94-2,2.65,2.65,0,0,0-2.05-.74,2.9,2.9,0,0,0-2.69,3.09A2.85,2.85,0,0,0,211.35,37.69Zm.6-8.78a1.36,1.36,0,0,0,1,.36,1.34,1.34,0,0,0,.92-.47,1.29,1.29,0,0,0,.37-1,1.33,1.33,0,0,0-.48-.95,1.27,1.27,0,0,0-1.9.12,1.26,1.26,0,0,0-.38,1A1.24,1.24,0,0,0,212,28.91Z"/><path class="cls-6" d="M76.21,158.83A6.31,6.31,0,0,1,75,157.46a3.62,3.62,0,0,1-.45-1.74,3.54,3.54,0,0,1,.57-2.2,4.66,4.66,0,0,1,1.78-1.62,6.17,6.17,0,0,1,2.57-.7,6.3,6.3,0,0,1,2.64.38,4.79,4.79,0,0,1,2,1.33,3.29,3.29,0,0,1,.84,2,4,4,0,0,1-.26,1.92,6.86,6.86,0,0,1-1.1,1.56A9,9,0,0,1,86,160.31a4.81,4.81,0,0,1,1.08,2.95,5.53,5.53,0,0,1-.72,3.05A6.64,6.64,0,0,1,84,168.72a7.31,7.31,0,0,1-3.45,1.05,7.11,7.11,0,0,1-3.55-.64A6.46,6.46,0,0,1,74.41,167a5.47,5.47,0,0,1-1.07-2.94A5.71,5.71,0,0,1,76.21,158.83Zm2.14,6.86a2.61,2.61,0,0,0,2,.74,2.77,2.77,0,0,0,2-1,2.81,2.81,0,0,0,.73-2.12,2.85,2.85,0,0,0-.94-2,2.65,2.65,0,0,0-2.05-.74,2.9,2.9,0,0,0-2.69,3.09A2.85,2.85,0,0,0,78.35,165.69Zm.6-8.78a1.36,1.36,0,0,0,1,.36,1.34,1.34,0,0,0,.92-.47,1.29,1.29,0,0,0,.37-1,1.33,1.33,0,0,0-.48-.95,1.27,1.27,0,0,0-1.9.12,1.26,1.26,0,0,0-.38,1A1.24,1.24,0,0,0,79,156.91Z"/><path class="cls-6" d="M121.21,128.83a6.31,6.31,0,0,1-1.19-1.37,3.62,3.62,0,0,1-.45-1.74,3.54,3.54,0,0,1,.57-2.2,4.66,4.66,0,0,1,1.78-1.62,6.17,6.17,0,0,1,2.57-.7,6.3,6.3,0,0,1,2.64.38,4.79,4.79,0,0,1,2,1.33,3.29,3.29,0,0,1,.84,2,4,4,0,0,1-.26,1.92,6.86,6.86,0,0,1-1.1,1.56,9,9,0,0,1,2.37,1.92,4.81,4.81,0,0,1,1.08,2.95,5.53,5.53,0,0,1-.72,3.05,6.64,6.64,0,0,1-2.36,2.41,7.31,7.31,0,0,1-3.45,1.05,7.11,7.11,0,0,1-3.55-.64,6.46,6.46,0,0,1-2.58-2.11,5.47,5.47,0,0,1-1.07-2.94A5.71,5.71,0,0,1,121.21,128.83Zm2.14,6.86a2.61,2.61,0,0,0,2,.74,2.77,2.77,0,0,0,2-1,2.81,2.81,0,0,0,.73-2.12,2.85,2.85,0,0,0-.94-2,2.65,2.65,0,0,0-2.05-.74,2.9,2.9,0,0,0-2.69,3.09A2.85,2.85,0,0,0,123.35,135.69Zm.6-8.78a1.36,1.36,0,0,0,1,.36,1.34,1.34,0,0,0,.92-.47,1.29,1.29,0,0,0,.37-1,1.33,1.33,0,0,0-.48-.95,1.27,1.27,0,0,0-1.9.12,1.26,1.26,0,0,0-.38,1A1.24,1.24,0,0,0,124,126.91Z"/><path class="cls-6" d="M98.67,187a7.22,7.22,0,0,1-2.48-3.31,11.51,11.51,0,0,1-.59-5.18q.74-9.22,8.35-8.55a7.24,7.24,0,0,1,3.8,1.3,7.15,7.15,0,0,1,2.48,3.31,13.58,13.58,0,0,1-.83,10.27,6.8,6.8,0,0,1-3,2.82,7.49,7.49,0,0,1-4,.65A7.37,7.37,0,0,1,98.67,187Zm6.92-3.75a8.58,8.58,0,0,0,1.13-4c.28-3.5-.76-5.34-3.1-5.52a2.79,2.79,0,0,0-2.79,1.2,8,8,0,0,0-1.11,3.84,8.37,8.37,0,0,0,.47,4,2.83,2.83,0,0,0,2.56,1.67A2.87,2.87,0,0,0,105.59,183.21Z"/><path class="cls-6" d="M102.81,149.08l-8.58,17.39L89.82,166l6.87-13.7-6.48-.66.39-3.82Z"/><path class="cls-6" d="M89,190.46,87.1,208.52l-4-.41,1.49-14.25-1.44-.15.39-3.82Z"/><path class="cls-6" d="M141,122.46l-1.88,18.06-4-.41,1.49-14.25-1.44-.15.39-3.82Z"/><path class="cls-6" d="M48,157.46,46.1,175.52l-4-.41,1.49-14.25-1.44-.15.39-3.82Z"/><path class="cls-6" d="M150,195.46l-1.88,18.06-4-.41,1.49-14.25-1.44-.15.39-3.82Z"/><path class="cls-6" d="M146.32,144.84a7.11,7.11,0,0,1-2.74-3.09,11.63,11.63,0,0,1-1-5.11q0-9.25,7.63-9.21a7.23,7.23,0,0,1,3.9,1,7.11,7.11,0,0,1,2.74,3.09,11.63,11.63,0,0,1,1,5.11,11.85,11.85,0,0,1-1,5.19,6.92,6.92,0,0,1-2.74,3.06,7.47,7.47,0,0,1-3.89,1A7.24,7.24,0,0,1,146.32,144.84Zm6.59-4.29a8.58,8.58,0,0,0,.8-4c0-3.5-1.18-5.26-3.54-5.25a2.83,2.83,0,0,0-2.68,1.42,8.11,8.11,0,0,0-.79,3.92,8.31,8.31,0,0,0,.8,4,2.8,2.8,0,0,0,2.68,1.45A2.85,2.85,0,0,0,152.91,140.55Z"/><path class="cls-6" d="M171.32,194.84a7.11,7.11,0,0,1-2.74-3.09,11.63,11.63,0,0,1-1-5.11q0-9.25,7.63-9.21a7.23,7.23,0,0,1,3.9,1,7.11,7.11,0,0,1,2.74,3.09,11.63,11.63,0,0,1,1,5.11,11.85,11.85,0,0,1-1,5.19,6.92,6.92,0,0,1-2.74,3.06,7.47,7.47,0,0,1-3.89,1A7.24,7.24,0,0,1,171.32,194.84Zm6.59-4.29a8.58,8.58,0,0,0,.8-4c0-3.5-1.18-5.26-3.54-5.25a2.83,2.83,0,0,0-2.68,1.42,8.11,8.11,0,0,0-.79,3.92,8.31,8.31,0,0,0,.8,4,2.8,2.8,0,0,0,2.68,1.45A2.85,2.85,0,0,0,177.91,190.55Z"/><path class="cls-6" d="M122.29,146.67a6.62,6.62,0,0,1,2.41,2.57,6.72,6.72,0,0,1,.75,3.51A10,10,0,0,1,124,157.7a13.33,13.33,0,0,1-3.31,3.62,40.52,40.52,0,0,1-4.72,3l-2.52-3a21.74,21.74,0,0,0,3.53-1.62,11.49,11.49,0,0,0,2.59-2,5.63,5.63,0,0,1-2.74.48,4.9,4.9,0,0,1-2.52-.87,5.58,5.58,0,0,1-1.91-2.19,6,6,0,0,1-.63-3.05,6.94,6.94,0,0,1,1.11-3.61,6.47,6.47,0,0,1,2.6-2.25,6.93,6.93,0,0,1,3.31-.67A7.34,7.34,0,0,1,122.29,146.67Zm-5.73,7.48a2.7,2.7,0,0,0,1.93.83,2.75,2.75,0,0,0,2-.65,2.22,2.22,0,0,0,.88-1.63l0-.63a2.73,2.73,0,0,0-.7-2,2.59,2.59,0,0,0-1.91-.93,2.64,2.64,0,0,0-2,.69,3,3,0,0,0-.86,2.14A2.75,2.75,0,0,0,116.56,154.15Z"/><path class="cls-6" d="M212.29,155.67a6.62,6.62,0,0,1,2.41,2.57,6.72,6.72,0,0,1,.75,3.51A10,10,0,0,1,214,166.7a13.33,13.33,0,0,1-3.31,3.62,40.52,40.52,0,0,1-4.72,3l-2.52-3a21.74,21.74,0,0,0,3.53-1.62,11.49,11.49,0,0,0,2.59-2,5.63,5.63,0,0,1-2.74.48,4.9,4.9,0,0,1-2.52-.87,5.58,5.58,0,0,1-1.91-2.19,6,6,0,0,1-.63-3.05,6.94,6.94,0,0,1,1.11-3.61,6.47,6.47,0,0,1,2.6-2.25,6.93,6.93,0,0,1,3.31-.67A7.34,7.34,0,0,1,212.29,155.67Zm-5.73,7.48a2.7,2.7,0,0,0,1.93.83,2.75,2.75,0,0,0,2-.65,2.22,2.22,0,0,0,.88-1.63l0-.63a2.73,2.73,0,0,0-.7-2,2.59,2.59,0,0,0-1.91-.93,2.64,2.64,0,0,0-2,.69,3,3,0,0,0-.86,2.14A2.75,2.75,0,0,0,206.56,163.15Z"/><path class="cls-6" d="M213.29,200.67a6.62,6.62,0,0,1,2.41,2.57,6.72,6.72,0,0,1,.75,3.51A10,10,0,0,1,215,211.7a13.33,13.33,0,0,1-3.31,3.62,40.52,40.52,0,0,1-4.72,3l-2.52-3a21.74,21.74,0,0,0,3.53-1.62,11.49,11.49,0,0,0,2.59-2,5.63,5.63,0,0,1-2.74.48,4.9,4.9,0,0,1-2.52-.87,5.58,5.58,0,0,1-1.91-2.19,6,6,0,0,1-.63-3.05,6.94,6.94,0,0,1,1.11-3.61,6.47,6.47,0,0,1,2.6-2.25,6.93,6.93,0,0,1,3.31-.67A7.34,7.34,0,0,1,213.29,200.67Zm-5.73,7.48a2.7,2.7,0,0,0,1.93.83,2.75,2.75,0,0,0,2-.65,2.22,2.22,0,0,0,.88-1.63l0-.63a2.73,2.73,0,0,0-.7-2,2.59,2.59,0,0,0-1.91-.93,2.64,2.64,0,0,0-2,.69,3,3,0,0,0-.86,2.14A2.75,2.75,0,0,0,207.56,208.15Z"/><path class="cls-6" d="M162.68,72.45a5.79,5.79,0,0,1,2,2.1,6,6,0,0,1,.77,3,6.12,6.12,0,0,1-1,3.39A6.32,6.32,0,0,1,162,83.14a7.42,7.42,0,0,1-3.29.75,6.91,6.91,0,0,1-3.6-1,6.39,6.39,0,0,1-2.51-2.77,9.76,9.76,0,0,1-.9-4.37,9.45,9.45,0,0,1,2.2-5.89A20.22,20.22,0,0,1,159.6,65l2.66,2.88a11.81,11.81,0,0,0-3.55,2.16,9.2,9.2,0,0,0-2.16,2.85,5.17,5.17,0,0,1,3.57-1.2A4.92,4.92,0,0,1,162.68,72.45Zm-2.13,7.15a2.63,2.63,0,0,0,.77-2,2.36,2.36,0,0,0-.77-1.89,2.91,2.91,0,0,0-2-.66,3,3,0,0,0-1.93.63,1.81,1.81,0,0,0-.81,1.45v.66a2.4,2.4,0,0,0,.79,1.78,2.94,2.94,0,0,0,3.92,0Z"/><path class="cls-6" d="M197.68,115.45a5.79,5.79,0,0,1,2,2.1,6,6,0,0,1,.77,3,6.12,6.12,0,0,1-1,3.39,6.32,6.32,0,0,1-2.48,2.19,7.42,7.42,0,0,1-3.29.75,6.91,6.91,0,0,1-3.6-1,6.39,6.39,0,0,1-2.51-2.77,9.76,9.76,0,0,1-.9-4.37,9.45,9.45,0,0,1,2.2-5.89,20.22,20.22,0,0,1,5.67-4.9l2.66,2.88a11.81,11.81,0,0,0-3.55,2.16,9.2,9.2,0,0,0-2.16,2.85,5.17,5.17,0,0,1,3.57-1.2A4.92,4.92,0,0,1,197.68,115.45Zm-2.13,7.15a2.63,2.63,0,0,0,.77-2,2.36,2.36,0,0,0-.77-1.89,2.91,2.91,0,0,0-2-.66,3,3,0,0,0-1.93.63,1.81,1.81,0,0,0-.81,1.45v.66a2.4,2.4,0,0,0,.79,1.78,2.94,2.94,0,0,0,3.92,0Z"/><path class="cls-6" d="M137.68,152.45a5.79,5.79,0,0,1,2,2.1,6,6,0,0,1,.77,3,6.12,6.12,0,0,1-1,3.39,6.32,6.32,0,0,1-2.48,2.19,7.42,7.42,0,0,1-3.29.75,6.91,6.91,0,0,1-3.6-.95,6.39,6.39,0,0,1-2.51-2.77,9.76,9.76,0,0,1-.9-4.37,9.45,9.45,0,0,1,2.2-5.89,20.22,20.22,0,0,1,5.67-4.9l2.66,2.88a11.81,11.81,0,0,0-3.55,2.16,9.2,9.2,0,0,0-2.16,2.85,5.17,5.17,0,0,1,3.57-1.2A4.92,4.92,0,0,1,137.68,152.45Zm-2.13,7.15a2.63,2.63,0,0,0,.77-2,2.36,2.36,0,0,0-.77-1.89,2.91,2.91,0,0,0-2-.66,3,3,0,0,0-1.93.63,1.81,1.81,0,0,0-.81,1.45v.66a2.4,2.4,0,0,0,.79,1.78,2.94,2.94,0,0,0,3.92,0Z"/><path class="cls-6" d="M126.68,182.45a5.79,5.79,0,0,1,2,2.1,6,6,0,0,1,.77,3,6.12,6.12,0,0,1-1,3.39,6.32,6.32,0,0,1-2.48,2.19,7.42,7.42,0,0,1-3.29.75,6.91,6.91,0,0,1-3.6-.95,6.39,6.39,0,0,1-2.51-2.77,9.76,9.76,0,0,1-.9-4.37,9.45,9.45,0,0,1,2.2-5.89,20.22,20.22,0,0,1,5.67-4.9l2.66,2.88a11.81,11.81,0,0,0-3.55,2.16,9.2,9.2,0,0,0-2.16,2.85,5.17,5.17,0,0,1,3.57-1.2A4.92,4.92,0,0,1,126.68,182.45Zm-2.13,7.15a2.63,2.63,0,0,0,.77-2,2.36,2.36,0,0,0-.77-1.89,2.91,2.91,0,0,0-2-.66,3,3,0,0,0-1.93.63,1.81,1.81,0,0,0-.81,1.45v.66a2.4,2.4,0,0,0,.79,1.78,2.94,2.94,0,0,0,3.92,0Z"/><path class="cls-6" d="M142.09,179.24l-.07,3-2.16-.06-.1,4-4-.1.1-4-7.62-.18v0l11.93-14.1h0l-.28,11.39Zm-6.16-.14.06-2.41-1.87,2.36Z"/><path class="cls-6" d="M121.09,80.24l-.07,3-2.16-.06-.1,4-4-.1.1-4-7.62-.18v0l11.93-14.1h0l-.28,11.39Zm-6.16-.14.06-2.41-1.87,2.36Z"/><path class="cls-6" d="M79.09,51.24l-.07,3-2.16-.06-.1,4-4-.1.1-4-7.62-.18v0L77.18,39.8h0l-.28,11.39Zm-6.16-.14L73,48.69l-1.87,2.36Z"/><path class="cls-6" d="M48.18,115l-7.12,18-4.44-.09,5.74-14.21-6.52-.13.07-3.84Z"/><path class="cls-6" d="M167.18,184l-7.12,18-4.44-.09,5.74-14.21-6.52-.13.07-3.84Z"/><path class="cls-6" d="M203.21,195.83l-.05,3.83L190,199.51l1.5-1.47q2.61-2.59,4-4.17a20,20,0,0,0,2.4-3.19,6.23,6.23,0,0,0,1-3.1,2.32,2.32,0,0,0-.75-1.84,2.94,2.94,0,0,0-2-.71,2.8,2.8,0,0,0-1.92.6,1.9,1.9,0,0,0-.73,1.42,3.79,3.79,0,0,0,1,2.75L192.1,192a3.39,3.39,0,0,1-1.3-1.24,7.28,7.28,0,0,1-.85-1.91,6.1,6.1,0,0,1-.28-1.72,5.53,5.53,0,0,1,.88-2.91,6.09,6.09,0,0,1,2.51-2.2,8.23,8.23,0,0,1,3.86-.81,6.31,6.31,0,0,1,3.22.88,6,6,0,0,1,2.19,2.26,5.86,5.86,0,0,1,.76,3,7.69,7.69,0,0,1-.59,2.85,14,14,0,0,1-1.46,2.62c-.59.83-1.36,1.83-2.32,3Z"/></g></g><g class="cls-7"><path class="cls-8" d="M4.36,182.83-2.3,201l-4.43,0,5.36-14.36-6.52,0,0-3.84Z"/></g><path class="cls-8" d="M193.32,83.84a7.11,7.11,0,0,1-2.74-3.09,11.63,11.63,0,0,1-1-5.11q0-9.26,7.63-9.21a7.23,7.23,0,0,1,3.9,1,7.11,7.11,0,0,1,2.74,3.09,11.63,11.63,0,0,1,1,5.11,11.85,11.85,0,0,1-1,5.19,6.92,6.92,0,0,1-2.74,3.06,7.47,7.47,0,0,1-3.89,1A7.24,7.24,0,0,1,193.32,83.84Zm6.59-4.29a8.58,8.58,0,0,0,.8-4c0-3.5-1.18-5.26-3.54-5.25a2.83,2.83,0,0,0-2.68,1.42,8.11,8.11,0,0,0-.79,3.92,8.31,8.31,0,0,0,.8,4A2.8,2.8,0,0,0,197.18,81,2.85,2.85,0,0,0,199.91,79.55Z"/><rect class="cls-2" x="227.84" y="-0.2" width="228" height="222"/><line class="cls-9" x1="324.34" y1="221.8" x2="324.34" y2="110.8"/><g class="cls-4"><g class="cls-10"><path class="cls-6" d="M249.29,143.67a6.62,6.62,0,0,1,2.41,2.57,6.72,6.72,0,0,1,.75,3.51A10,10,0,0,1,251,154.7a13.33,13.33,0,0,1-3.31,3.62,40.52,40.52,0,0,1-4.72,3l-2.52-3a21.74,21.74,0,0,0,3.53-1.62,11.49,11.49,0,0,0,2.59-2,5.63,5.63,0,0,1-2.74.48,4.9,4.9,0,0,1-2.52-.87,5.58,5.58,0,0,1-1.91-2.19,6,6,0,0,1-.63-3.05,6.94,6.94,0,0,1,1.11-3.61,6.47,6.47,0,0,1,2.6-2.25,6.93,6.93,0,0,1,3.31-.67A7.34,7.34,0,0,1,249.29,143.67Zm-5.73,7.48a2.7,2.7,0,0,0,1.93.83,2.75,2.75,0,0,0,2-.65,2.22,2.22,0,0,0,.88-1.63l0-.63a2.73,2.73,0,0,0-.7-2,2.59,2.59,0,0,0-1.91-.93,2.64,2.64,0,0,0-2,.69,3,3,0,0,0-.86,2.14A2.75,2.75,0,0,0,243.56,151.15Z"/><path class="cls-6" d="M365.35,95.21a6,6,0,0,1,1,3.8,6.18,6.18,0,0,1-.91,3.34,6,6,0,0,1-2.39,2.18,7.07,7.07,0,0,1-3.23.75,7.83,7.83,0,0,1-2.84-.58,6.46,6.46,0,0,1-2.34-1.49l2-3.28a4.23,4.23,0,0,0,1.32,1,3.43,3.43,0,0,0,1.72.47,2.5,2.5,0,0,0,1.76-.72,2.58,2.58,0,0,0,.77-2,2.7,2.7,0,0,0-.68-1.92,2.49,2.49,0,0,0-1.87-.71,8.84,8.84,0,0,0-1.15.05,9.07,9.07,0,0,0-.93.19l-.08-.11,3-5.53h-4.33V86.89h9.89l-3.46,6.63A4.57,4.57,0,0,1,365.35,95.21Z"/><path class="cls-6" d="M381.36,86.83,374.7,105l-4.43,0,5.36-14.36-6.52,0,0-3.84Z"/><path class="cls-6" d="M396.58,101l.05,3.84L383.5,105l1.46-1.5c1.7-1.77,3-3.2,3.94-4.27A20.27,20.27,0,0,0,391.21,96a6.17,6.17,0,0,0,.9-3.12,2.33,2.33,0,0,0-.79-1.83,2.89,2.89,0,0,0-2-.65,2.79,2.79,0,0,0-1.91.65,1.91,1.91,0,0,0-.7,1.43,3.83,3.83,0,0,0,1.11,2.73l-2.41,2.25a3.36,3.36,0,0,1-1.33-1.21,7.23,7.23,0,0,1-.9-1.88,6.48,6.48,0,0,1-.33-1.72,5.54,5.54,0,0,1,.81-2.93,6.2,6.2,0,0,1,2.45-2.27,8.25,8.25,0,0,1,3.84-.9,6.33,6.33,0,0,1,3.24.79,6.08,6.08,0,0,1,3.09,5.16,7.65,7.65,0,0,1-.53,2.85A12.71,12.71,0,0,1,394.33,98q-.84,1.26-2.25,3.06Z"/><path class="cls-6" d="M417.77,86.89a6.64,6.64,0,0,1,2.57,2.39,6.81,6.81,0,0,1,1,3.46,10,10,0,0,1-1.14,5,13.61,13.61,0,0,1-3.05,3.83,41.66,41.66,0,0,1-4.51,3.35l-2.72-2.82a22,22,0,0,0,3.42-1.86,12.21,12.21,0,0,0,2.45-2.13,5.67,5.67,0,0,1-2.7.66,4.83,4.83,0,0,1-2.58-.7,5.7,5.7,0,0,1-2.06-2,5.94,5.94,0,0,1-.83-3,6.84,6.84,0,0,1,.87-3.67A6.33,6.33,0,0,1,410.92,87a6.92,6.92,0,0,1,3.25-.89A7.24,7.24,0,0,1,417.77,86.89Zm-5.22,7.85a3,3,0,0,0,3.9-.08,2.25,2.25,0,0,0,.78-1.69l0-.63a2.72,2.72,0,0,0-.83-1.92,2.61,2.61,0,0,0-2-.79,2.65,2.65,0,0,0-2,.82,3,3,0,0,0-.72,2.19A2.81,2.81,0,0,0,412.55,94.74Z"/><path class="cls-6" d="M459.42,96.37l.08,3-2.17.06.11,4-4,.11-.1-4-7.62.2v0L456.93,85h0l.31,11.39Zm-6.16.17-.07-2.41-1.74,2.45Z"/><path class="cls-6" d="M319.63-71.38v36.12c0,13.21,0,25.51,0,36.1V21.19l-1.68.15.36,3.82,1.32-.13V37.85c0,4.94-.12,11.37,0,16.84,0,.28,0,.53,0,.77a4.75,4.75,0,0,0-2.71,1.71,3.59,3.59,0,0,0-.75,2.15,3.89,3.89,0,0,0,.3,1.77,6.84,6.84,0,0,0,1.08,1.46c-2.33,1.32-3.42,3.17-3.25,5.55l-3-3,.28-9.87L306.08,55l0,1.62L306,58.87l1.45,0s0,1.43-.06,2.26l-.71-.71-1.71-1.71-2.42,2.43L300.1,63.6s1.76,1.9,5,5.24l2,2L307,73.23s1.56,0,2.53.06c2.7,2.7,5.93,5.86,9.64,9.4,1.09,1,2.05,2,2.87,2.81s1.48,1.52,2,2l12-12,1.68-1.68,5.44.07.05-3.83,0-1.76.63-.63L348,63.6l-2.42-2.42-2.42-2.43-.51.51a3.93,3.93,0,0,0-.3-.62,6,6,0,0,0-2.19-2.27,6.28,6.28,0,0,0-3.22-.88,8.25,8.25,0,0,0-3.86.79,6.3,6.3,0,0,0-2.51,2.2,5.48,5.48,0,0,0-.89,2.91,6.21,6.21,0,0,0,.28,1.73,6.91,6.91,0,0,0,.85,1.9,3.28,3.28,0,0,0,1.3,1.25l2.47-2.18a3.78,3.78,0,0,1-1-2.76,1.83,1.83,0,0,1,.73-1.41,2.75,2.75,0,0,1,1.92-.6,2.94,2.94,0,0,1,2,.71,2.32,2.32,0,0,1,.74,1.85,4.77,4.77,0,0,1-.19,1.27l-5.18,5.17-5.36,5.36-.14-3.77a86.78,86.78,0,0,1,.19-9.79c.05-.66.1-2.16.14-4.4.1-5.43.17-15.22.23-27.92a7.16,7.16,0,0,0,1.14,1.8,3.23,3.23,0,0,0,1.46,1l2.12-2.52a3.83,3.83,0,0,1-1.42-2.57,1.88,1.88,0,0,1,.51-1.51,2.81,2.81,0,0,1,1.82-.88,2.92,2.92,0,0,1,2.1.41,2.07,2.07,0,0,1,.66.69,2.68,2.68,0,0,1,.35,1,6.34,6.34,0,0,1-.52,3.21A20.29,20.29,0,0,1,334.93,32q-1.19,1.76-3.38,4.71l-1.27,1.66,13-1.75-.51-3.8-4.45.6c.78-1.3,1.4-2.41,1.86-3.31a13.42,13.42,0,0,0,1.06-2.81,7.7,7.7,0,0,0,.17-2.9,5.87,5.87,0,0,0-1.18-2.82,6,6,0,0,0-2.5-1.92,6.32,6.32,0,0,0-3.31-.39,8.29,8.29,0,0,0-3.7,1.35,6.18,6.18,0,0,0-2.1,2.42c.05-12.79.09-28.09.11-44.61l8.51-1.16-.51-3.8-4.45.61c.78-1.31,1.4-2.41,1.86-3.31A13.05,13.05,0,0,0,335.19-32a7.51,7.51,0,0,0,.18-2.9,6,6,0,0,0-1.19-2.83,5.93,5.93,0,0,0-2.5-1.91,5.68,5.68,0,0,0-2.94-.4c0-30.64,0-63.73,0-92.2"/><path class="cls-6" d="M226.91,64.49c-.58.82-1.36,1.82-2.33,3"/><path class="cls-6" d="M226.05,53.79a6,6,0,0,1,2.18,2.27"/><path class="cls-6" d="M331.59,92.57a6.63,6.63,0,0,1,3.36,6,9.89,9.89,0,0,1-1.31,5,14,14,0,0,1-3.19,3.73,42.61,42.61,0,0,1-4.62,3.18l-2.62-2.91a22.13,22.13,0,0,0,3.48-1.73,12,12,0,0,0,2.52-2,5.63,5.63,0,0,1-2.72.56,4.87,4.87,0,0,1-2.55-.78,5.75,5.75,0,0,1-2-2.13,5.9,5.9,0,0,1-.72-3,6.71,6.71,0,0,1,1-3.64,6.29,6.29,0,0,1,2.52-2.34,6.9,6.9,0,0,1,3.29-.78A7.24,7.24,0,0,1,331.59,92.57Zm-5.49,7.67a2.73,2.73,0,0,0,2,.76,2.79,2.79,0,0,0,1.94-.71,2.25,2.25,0,0,0,.83-1.66V98a2.72,2.72,0,0,0-.77-1.94,2.57,2.57,0,0,0-1.94-.87,2.67,2.67,0,0,0-2,.76,2.94,2.94,0,0,0-.79,2.17A2.8,2.8,0,0,0,326.1,100.24Z"/><path class="cls-6" d="M304.91,110l0,3-2.17,0,.06,4-4,.06-.06-4-7.61.11v0l11.38-14.55h0l.17,11.4Zm-6.16.09,0-2.42-1.78,2.44Z"/><path class="cls-6" d="M263.16,159a5.51,5.51,0,0,1,2.17,2.14,6.77,6.77,0,0,1,.84,3,6.59,6.59,0,0,1-.68,3.28,6.15,6.15,0,0,1-2.15,2.4,6,6,0,0,1-3.08,1,8.76,8.76,0,0,1-3.15-.46,6.82,6.82,0,0,1-2.47-1.37l1.92-3.26a3.69,3.69,0,0,0,1.45.94,4.5,4.5,0,0,0,1.78.33,2.36,2.36,0,0,0,1.67-.72,2.34,2.34,0,0,0,.61-1.82,3,3,0,0,0-.85-2.09,2.73,2.73,0,0,0-2.12-.72,5.28,5.28,0,0,0-1.6.3,10.42,10.42,0,0,0-1.78.86h0l-.43-10.18,9.06-.39.16,3.84-5.64.23.09,2.06a5.91,5.91,0,0,1,1-.1A6.05,6.05,0,0,1,263.16,159Z"/><path class="cls-6" d="M329.74-5.06a2.87,2.87,0,0,0-1-.16q0,4.6,0,9.11c.06-.08.11-.16.16-.24a19.78,19.78,0,0,0,1.9-3.5,6.13,6.13,0,0,0,.52-3.21,2.37,2.37,0,0,0-1-1.72A2.51,2.51,0,0,0,329.74-5.06Z"/><path class="cls-6" d="M353.28,48.46a6.61,6.61,0,0,1,2.84,2.07,6.76,6.76,0,0,1,1.41,3.31A10,10,0,0,1,357,59a13.47,13.47,0,0,1-2.57,4.18A41.74,41.74,0,0,1,350.37,67l-3-2.47a22.63,22.63,0,0,0,3.16-2.25,11.62,11.62,0,0,0,2.17-2.42,5.69,5.69,0,0,1-2.6,1,4.94,4.94,0,0,1-2.64-.39,5.65,5.65,0,0,1-2.29-1.79,6,6,0,0,1-1.19-2.87,6.84,6.84,0,0,1,.42-3.75,6.34,6.34,0,0,1,2.13-2.7,6.88,6.88,0,0,1,3.13-1.28A7.24,7.24,0,0,1,353.28,48.46Zm-4.23,8.43a3,3,0,0,0,3.87-.56,2.22,2.22,0,0,0,.56-1.77l-.09-.62a2.78,2.78,0,0,0-1.06-1.8,2.58,2.58,0,0,0-2.05-.55,2.62,2.62,0,0,0-1.84,1,3,3,0,0,0-.45,2.27A2.8,2.8,0,0,0,349.05,56.89Z"/><path class="cls-6" d="M360.38,72.16a6.82,6.82,0,0,1-1.19-1.37,3.65,3.65,0,0,1-.45-1.74,3.57,3.57,0,0,1,.57-2.21,4.72,4.72,0,0,1,1.78-1.61,6,6,0,0,1,2.57-.7,6.49,6.49,0,0,1,2.64.37,4.91,4.91,0,0,1,2,1.34,3.27,3.27,0,0,1,.84,2,4,4,0,0,1-.26,1.93,6.86,6.86,0,0,1-1.1,1.56,9.16,9.16,0,0,1,2.37,1.91,4.93,4.93,0,0,1,1.08,3,5.49,5.49,0,0,1-.73,3,6.58,6.58,0,0,1-2.35,2.4,7.32,7.32,0,0,1-3.45,1.06,7.22,7.22,0,0,1-3.55-.64,6.54,6.54,0,0,1-2.58-2.11,5.47,5.47,0,0,1-1.07-2.94A5.7,5.7,0,0,1,360.38,72.16ZM362.52,79a2.61,2.61,0,0,0,2,.74,2.95,2.95,0,0,0,2.72-3.1,2.93,2.93,0,0,0-.94-2,2.7,2.7,0,0,0-2.05-.74,2.91,2.91,0,0,0-2.69,3.1A2.89,2.89,0,0,0,362.52,79Zm.6-8.78a1.35,1.35,0,0,0,1,.35,1.42,1.42,0,0,0,1.29-1.45,1.36,1.36,0,0,0-.49-.94,1.29,1.29,0,0,0-1-.37,1.37,1.37,0,0,0-.94.48,1.34,1.34,0,0,0-.38,1A1.32,1.32,0,0,0,363.12,70.24Z"/><path class="cls-6" d="M400.11,61.53l-.52,3.8-13-1.78,1.66-1.27q2.91-2.25,4.53-3.64a20,20,0,0,0,2.77-2.86,6.32,6.32,0,0,0,1.36-3,2.39,2.39,0,0,0-.51-1.93,2.92,2.92,0,0,0-1.92-.95,2.79,2.79,0,0,0-2,.36,1.85,1.85,0,0,0-.9,1.32,3.8,3.8,0,0,0,.68,2.85l-2.71,1.87a3.32,3.32,0,0,1-1.14-1.4,7.18,7.18,0,0,1-.61-2,5.91,5.91,0,0,1-.06-1.75A5.58,5.58,0,0,1,389,48.43a6.22,6.22,0,0,1,2.76-1.87,8.3,8.3,0,0,1,3.93-.32,6.21,6.21,0,0,1,3.09,1.27,6,6,0,0,1,2.28,5.55,7.49,7.49,0,0,1-.94,2.75,13.54,13.54,0,0,1-1.77,2.42c-.69.75-1.58,1.65-2.68,2.69Z"/><path class="cls-6" d="M412.29,65.42a7.06,7.06,0,0,1-1.56,7A6,6,0,0,1,407.9,74a6.91,6.91,0,0,1-3.32,0A7.69,7.69,0,0,1,402,72.69a6.58,6.58,0,0,1-1.93-2L402.78,68a4.41,4.41,0,0,0,1,1.32,3.64,3.64,0,0,0,1.57.86,2.49,2.49,0,0,0,1.87-.29,2.55,2.55,0,0,0,1.21-1.72,2.67,2.67,0,0,0-.21-2A2.44,2.44,0,0,0,406.61,65a7,7,0,0,0-2.08-.26l-.06-.12,4.19-4.68-4.21-1,.91-3.73L415,57.53l-4.92,5.63A4.56,4.56,0,0,1,412.29,65.42Z"/><path class="cls-6" d="M429.36,47.51l-.77,2.92-2.09-.56-1,3.84-3.86-1,1-3.83-7.36-2v0l14.91-10.91h0l-2.94,11Zm-5.95-1.59L424,43.6l-2.37,1.86Z"/><path class="cls-6" d="M449.47,57.83,448.33,76l-4-.25.89-14.3-1.45-.09.24-3.83Z"/><path class="cls-6" d="M245.34,44.79l.66,3.78-12.92,2.26,1.2-1.71c1.39-2,2.45-3.63,3.2-4.84a20.05,20.05,0,0,0,1.76-3.58,6.24,6.24,0,0,0,.4-3.22,2.37,2.37,0,0,0-1.08-1.68,2.89,2.89,0,0,0-2.11-.32,2.7,2.7,0,0,0-1.78,1,1.84,1.84,0,0,0-.46,1.52,3.86,3.86,0,0,0,1.53,2.52l-2,2.6a3.25,3.25,0,0,1-1.51-1A7,7,0,0,1,231,40.38a6.26,6.26,0,0,1-.59-1.65,5.43,5.43,0,0,1,.33-3,6.14,6.14,0,0,1,2.06-2.63,8.29,8.29,0,0,1,3.64-1.5,6.2,6.2,0,0,1,3.33.27,6,6,0,0,1,3.86,4.59,7.46,7.46,0,0,1-.06,2.9,13.8,13.8,0,0,1-.94,2.85c-.43.92-1,2-1.74,3.38Z"/><path class="cls-6" d="M258.26,102.61a6,6,0,0,1,1.18,3.77,6.13,6.13,0,0,1-.79,3.37,5.88,5.88,0,0,1-2.3,2.26,7,7,0,0,1-3.2.87,7.56,7.56,0,0,1-2.86-.47A6.5,6.5,0,0,1,247.9,111l1.91-3.36a4.3,4.3,0,0,0,1.35,1,3.57,3.57,0,0,0,1.74.4,2.48,2.48,0,0,0,1.73-.78,2.6,2.6,0,0,0,.69-2,2.67,2.67,0,0,0-.75-1.89,2.48,2.48,0,0,0-1.89-.65,9.08,9.08,0,0,0-1.15.1,9.19,9.19,0,0,0-.92.22l-.09-.1,2.76-5.64-4.32.16-.14-3.84,9.88-.35L255.49,101A4.57,4.57,0,0,1,258.26,102.61Z"/><path class="cls-6" d="M242.1,75.43a7.17,7.17,0,0,1-2.73-3.1,11.55,11.55,0,0,1-1-5.12q0-9.25,7.67-9.18a7.32,7.32,0,0,1,3.89,1,7.11,7.11,0,0,1,2.73,3.1,11.53,11.53,0,0,1,1,5.11,11.64,11.64,0,0,1-1,5.19,6.85,6.85,0,0,1-2.75,3,7.46,7.46,0,0,1-3.89.94A7.22,7.22,0,0,1,242.1,75.43Zm6.61-4.26a8.56,8.56,0,0,0,.82-4c0-3.51-1.16-5.26-3.52-5.27a2.84,2.84,0,0,0-2.69,1.41,8.21,8.21,0,0,0-.81,3.92,8.37,8.37,0,0,0,.79,4A2.8,2.8,0,0,0,246,72.64,2.88,2.88,0,0,0,248.71,71.17Z"/><path class="cls-6" d="M343.27,84.67l-.41,18.16-4-.09.33-14.33-1.45,0,.08-3.83Z"/><path class="cls-6" d="M306.18,78l-7.12,18-4.44-.09,5.74-14.21-6.52-.13.07-3.84Z"/><path class="cls-6" d="M362.19,29.49a6.06,6.06,0,0,1,1,3.82,6.09,6.09,0,0,1-1,3.33,6,6,0,0,1-2.42,2.14,7.06,7.06,0,0,1-3.24.71,8.08,8.08,0,0,1-2.83-.62,6.64,6.64,0,0,1-2.32-1.52l2.08-3.26a4.46,4.46,0,0,0,1.3,1.07,3.68,3.68,0,0,0,1.72.49,2.5,2.5,0,0,0,1.76-.7,2.56,2.56,0,0,0,.8-2,2.68,2.68,0,0,0-.65-1.92,2.48,2.48,0,0,0-1.86-.75c-.49,0-.87,0-1.15,0a6.82,6.82,0,0,0-.93.18l-.08-.11,3-5.49-4.33-.07.06-3.83,9.89.15-3.55,6.58A4.51,4.51,0,0,1,362.19,29.49Z"/><path class="cls-6" d="M387.9,32.62l0,3-2.16,0,0,4-4,0,0-4-7.62-.06v0L385.8,21.21h0l-.1,11.4Zm-6.17,0,0-2.41-1.82,2.39Z"/><path class="cls-6" d="M409.68,34.45a5.79,5.79,0,0,1,2,2.1,6,6,0,0,1,.77,3,6.12,6.12,0,0,1-.95,3.39A6.32,6.32,0,0,1,409,45.14a7.42,7.42,0,0,1-3.29.75,6.91,6.91,0,0,1-3.6-1,6.39,6.39,0,0,1-2.51-2.77,9.76,9.76,0,0,1-.9-4.37,9.45,9.45,0,0,1,2.2-5.89A20.22,20.22,0,0,1,406.6,27l2.66,2.88a11.81,11.81,0,0,0-3.55,2.16,9.2,9.2,0,0,0-2.16,2.85,5.17,5.17,0,0,1,3.57-1.2A4.92,4.92,0,0,1,409.68,34.45Zm-2.13,7.15a2.63,2.63,0,0,0,.77-2,2.36,2.36,0,0,0-.77-1.89,2.91,2.91,0,0,0-2-.66,3,3,0,0,0-1.93.63,1.81,1.81,0,0,0-.81,1.45v.66a2.4,2.4,0,0,0,.79,1.78,2.94,2.94,0,0,0,3.92,0Z"/><path class="cls-6" d="M470.62,29.9a11.78,11.78,0,0,1-.92,5.21A6.9,6.9,0,0,1,467,38.2a7.51,7.51,0,0,1-3.87,1,7.25,7.25,0,0,1-3.91-.94,7.07,7.07,0,0,1-2.79-3,11.5,11.5,0,0,1-1.1-5.09q-.15-9.27,7.49-9.34a7.24,7.24,0,0,1,3.9.94m-1,12.14a8.61,8.61,0,0,0,.74-4q-.09-5.26-3.63-5.2a2.82,2.82,0,0,0-2.66,1.47,8.23,8.23,0,0,0-.73,3.93,8.3,8.3,0,0,0,.87,4,2.8,2.8,0,0,0,2.71,1.4A2.87,2.87,0,0,0,465.75,33.9Z"/><path class="cls-6" d="M258.84-4.76a6.61,6.61,0,0,1,2.49,2.49,6.78,6.78,0,0,1,.87,3.49,10,10,0,0,1-1.32,5,13.59,13.59,0,0,1-3.18,3.72,42.58,42.58,0,0,1-4.62,3.19l-2.62-2.92a22,22,0,0,0,3.47-1.73,11.51,11.51,0,0,0,2.53-2.05,5.78,5.78,0,0,1-2.72.57,4.89,4.89,0,0,1-2.55-.79,5.65,5.65,0,0,1-2-2.12,6,6,0,0,1-.73-3,6.83,6.83,0,0,1,1-3.64A6.36,6.36,0,0,1,252-4.92a7,7,0,0,1,3.29-.78A7.24,7.24,0,0,1,258.84-4.76Zm-5.49,7.67a2.94,2.94,0,0,0,3.91,0,2.24,2.24,0,0,0,.83-1.66V.67a2.76,2.76,0,0,0-.77-1.94,2.6,2.6,0,0,0-1.94-.86,2.66,2.66,0,0,0-2,.75,3,3,0,0,0-.8,2.17A2.83,2.83,0,0,0,253.35,2.91Z"/><path class="cls-6" d="M284.82,15.63l0,3-2.16,0,.06,4-4,.05-.06-4-7.61.11v0L282.46,4.26h0l.16,11.4Zm-6.16.09,0-2.41-1.77,2.44Z"/><path class="cls-6" d="M297,.68a5.54,5.54,0,0,1,2.17,2.15,6.48,6.48,0,0,1,.84,3,6.48,6.48,0,0,1-.68,3.28,6.17,6.17,0,0,1-2.15,2.41,6,6,0,0,1-3.08,1,8.76,8.76,0,0,1-3.15-.46,6.81,6.81,0,0,1-2.47-1.36l1.92-3.26a3.8,3.8,0,0,0,1.45.94,4.48,4.48,0,0,0,1.78.32A2.36,2.36,0,0,0,295.29,8a2.33,2.33,0,0,0,.61-1.82,3,3,0,0,0-.85-2.09,2.8,2.8,0,0,0-2.12-.72,6,6,0,0,0-1.6.3,11.24,11.24,0,0,0-1.78.86h0L289.1-5.66,298.16-6l.16,3.83L292.68-2l.09,2.05a7.27,7.27,0,0,1,1-.1A6.15,6.15,0,0,1,297,.68Z"/><path class="cls-6" d="M317.27-7.51,319,10.57,315,11,313.65-3.31l-1.44.14L311.84-7Z"/><path class="cls-6" d="M349.18,3.13A6.51,6.51,0,0,1,352,5.2a6.75,6.75,0,0,1,1.4,3.31,10,10,0,0,1-.52,5.14,13.69,13.69,0,0,1-2.57,4.17,41.94,41.94,0,0,1-4.07,3.87l-3-2.47A21.87,21.87,0,0,0,346.38,17a11.65,11.65,0,0,0,2.18-2.41,5.77,5.77,0,0,1-2.6,1,4.86,4.86,0,0,1-2.65-.38A5.81,5.81,0,0,1,341,13.36a5.89,5.89,0,0,1-1.18-2.87,7,7,0,0,1,.41-3.76A6.41,6.41,0,0,1,342.39,4a6.91,6.91,0,0,1,3.12-1.28A7.29,7.29,0,0,1,349.18,3.13Zm-4.24,8.42A2.74,2.74,0,0,0,347,12a2.83,2.83,0,0,0,1.81-1,2.24,2.24,0,0,0,.56-1.77l-.09-.62a2.65,2.65,0,0,0-1.06-1.8,2.55,2.55,0,0,0-2-.55,2.64,2.64,0,0,0-1.85,1,2.94,2.94,0,0,0-.44,2.26A2.79,2.79,0,0,0,344.94,11.55Z"/><path class="cls-6" d="M367.21,18.83A6.31,6.31,0,0,1,366,17.46a3.62,3.62,0,0,1-.45-1.74,3.54,3.54,0,0,1,.57-2.2,4.66,4.66,0,0,1,1.78-1.62,6.17,6.17,0,0,1,2.57-.7,6.3,6.3,0,0,1,2.64.38,4.79,4.79,0,0,1,2,1.33,3.29,3.29,0,0,1,.84,2,4,4,0,0,1-.26,1.92,6.86,6.86,0,0,1-1.1,1.56A9,9,0,0,1,377,20.31a4.81,4.81,0,0,1,1.08,3,5.53,5.53,0,0,1-.72,3A6.64,6.64,0,0,1,375,28.72a7.31,7.31,0,0,1-3.45,1.05,7.11,7.11,0,0,1-3.55-.64A6.46,6.46,0,0,1,365.41,27a5.47,5.47,0,0,1-1.07-2.94A5.71,5.71,0,0,1,367.21,18.83Zm2.14,6.86a2.61,2.61,0,0,0,2,.74,2.77,2.77,0,0,0,2-1,2.81,2.81,0,0,0,.73-2.12,2.85,2.85,0,0,0-.94-2,2.65,2.65,0,0,0-2-.74,2.9,2.9,0,0,0-2.69,3.09A2.85,2.85,0,0,0,369.35,25.69Zm.6-8.78a1.36,1.36,0,0,0,1,.36,1.34,1.34,0,0,0,.92-.47,1.29,1.29,0,0,0,.37-1,1.33,1.33,0,0,0-.48-1,1.27,1.27,0,0,0-1.9.12,1.26,1.26,0,0,0-.38,1A1.24,1.24,0,0,0,370,16.91Z"/><path class="cls-6" d="M392.06,9.23l-.52,3.8-13-1.79L380.21,10q2.91-2.25,4.52-3.63a20.18,20.18,0,0,0,2.78-2.87A6.28,6.28,0,0,0,388.87.52a2.36,2.36,0,0,0-.51-1.92,3,3,0,0,0-1.92-1,2.78,2.78,0,0,0-2,.36,1.87,1.87,0,0,0-.9,1.32,3.84,3.84,0,0,0,.68,2.86L381.52,4a3.38,3.38,0,0,1-1.13-1.4,6.86,6.86,0,0,1-.61-2,5.91,5.91,0,0,1-.06-1.75A5.58,5.58,0,0,1,381-3.88a6.2,6.2,0,0,1,2.77-1.87,8.12,8.12,0,0,1,3.92-.31,6.2,6.2,0,0,1,3.09,1.26,6,6,0,0,1,1.9,2.52,6,6,0,0,1,.38,3,7.47,7.47,0,0,1-.95,2.74,12.69,12.69,0,0,1-1.77,2.43c-.68.74-1.58,1.64-2.68,2.69Z"/><path class="cls-6" d="M405.12,12.1a6.07,6.07,0,0,1,.11,3.94,6.15,6.15,0,0,1-1.67,3,6.08,6.08,0,0,1-2.83,1.55,7,7,0,0,1-3.32,0,7.66,7.66,0,0,1-2.62-1.22,6.61,6.61,0,0,1-1.93-2l2.75-2.71a4.29,4.29,0,0,0,1,1.32,3.54,3.54,0,0,0,1.57.86,2.44,2.44,0,0,0,1.87-.29,2.52,2.52,0,0,0,1.21-1.72,2.64,2.64,0,0,0-.21-2,2.48,2.48,0,0,0-1.64-1.14,11.27,11.27,0,0,0-1.13-.22,7.07,7.07,0,0,0-.95,0l-.05-.13,4.18-4.67-4.21-1,.91-3.72,9.61,2.34-4.92,5.62A4.62,4.62,0,0,1,405.12,12.1Z"/><path class="cls-6" d="M421.19,6.19l-.77,2.91-2.09-.56-1,3.84-3.86-1,1-3.84-7.35-2v0L422-5.39h0l-2.94,11ZM415.24,4.6l.62-2.33-2.37,1.86Z"/><path class="cls-6" d="M430.2,1.5l-1.15,18.13-4-.25.9-14.3L424.51,5l.25-3.82Z"/><path class="cls-6" d="M235.47,198.48l-1.17,18.13-4-.26.92-14.3-1.45-.09.25-3.83Z"/><path class="cls-6" d="M269.85,211.37l.34,3.82-13.06,1.19,1.34-1.61c1.55-1.9,2.74-3.42,3.59-4.56a20,20,0,0,0,2.05-3.42,6.2,6.2,0,0,0,.66-3.18,2.31,2.31,0,0,0-.93-1.76,2.9,2.9,0,0,0-2.08-.5,2.77,2.77,0,0,0-1.85.8,1.83,1.83,0,0,0-.58,1.48,3.83,3.83,0,0,0,1.31,2.64l-2.23,2.43a3.38,3.38,0,0,1-1.42-1.11,7.22,7.22,0,0,1-1-1.81,6.17,6.17,0,0,1-.46-1.69,5.5,5.5,0,0,1,.58-3,6.16,6.16,0,0,1,2.27-2.45,8.19,8.19,0,0,1,3.76-1.19,6.22,6.22,0,0,1,3.29.54,5.89,5.89,0,0,1,2.41,2,5.81,5.81,0,0,1,1.06,2.87,7.52,7.52,0,0,1-.3,2.89,13.42,13.42,0,0,1-1.18,2.76c-.5.88-1.17,1.95-2,3.22Z"/><path class="cls-6" d="M315.41,181.13l.19,3-2.16.13.24,4-4,.25-.24-4-7.61.47v0l10.68-15.07h0l.71,11.38Zm-6.15.37-.15-2.4-1.66,2.52Z"/><path class="cls-6" d="M304.5,204.64a6,6,0,0,1,.9,3.85,6.2,6.2,0,0,1-1,3.3,6,6,0,0,1-2.47,2.09,7.12,7.12,0,0,1-3.26.63,7.87,7.87,0,0,1-2.81-.69,6.44,6.44,0,0,1-2.28-1.57L295.7,209a4.38,4.38,0,0,0,1.27,1.1,3.53,3.53,0,0,0,1.71.53,2.52,2.52,0,0,0,1.78-.66,2.58,2.58,0,0,0,.84-1.93,2.64,2.64,0,0,0-.61-1.94,2.47,2.47,0,0,0-1.83-.78,8.48,8.48,0,0,0-1.16,0,6.67,6.67,0,0,0-.94.15l-.07-.11,3.17-5.42-4.33-.16.15-3.83,9.88.37-3.7,6.49A4.64,4.64,0,0,1,304.5,204.64Z"/><path class="cls-6" d="M277.67,215a7.22,7.22,0,0,1-2.48-3.31,11.51,11.51,0,0,1-.59-5.18q.73-9.22,8.35-8.55a7.24,7.24,0,0,1,3.8,1.3,7.15,7.15,0,0,1,2.48,3.31,13.58,13.58,0,0,1-.83,10.27,6.8,6.8,0,0,1-3,2.82,7.49,7.49,0,0,1-4,.65A7.37,7.37,0,0,1,277.67,215Zm6.92-3.75a8.58,8.58,0,0,0,1.13-4c.28-3.5-.76-5.34-3.1-5.52a2.79,2.79,0,0,0-2.79,1.2,8,8,0,0,0-1.11,3.84,8.37,8.37,0,0,0,.47,4,2.83,2.83,0,0,0,2.56,1.67A2.87,2.87,0,0,0,284.59,211.21Z"/><path class="cls-6" d="M340,199.46l-1.88,18.06-4-.41,1.49-14.25-1.44-.15.39-3.82Z"/><path class="cls-6" d="M355.81,201.08l-8.58,17.39-4.41-.45,6.87-13.7-6.48-.66.39-3.82Z"/><path class="cls-6" d="M367.19,210.53a7.09,7.09,0,0,1-.56,7.13,5.94,5.94,0,0,1-2.58,1.94,7,7,0,0,1-3.29.44,7.75,7.75,0,0,1-2.77-.85,6.42,6.42,0,0,1-2.18-1.7l2.33-3.07a4.36,4.36,0,0,0,1.21,1.16,3.61,3.61,0,0,0,1.67.63,2.51,2.51,0,0,0,1.82-.55,3,3,0,0,0,.45-3.85,2.41,2.41,0,0,0-1.78-.89,8.94,8.94,0,0,0-1.15-.06,7.33,7.33,0,0,0-.95.1l-.07-.12,3.48-5.22-4.31-.42.38-3.82,9.84,1-4.08,6.27A4.54,4.54,0,0,1,367.19,210.53Z"/><path class="cls-6" d="M413.54,208.37a5.76,5.76,0,0,1,1.83,2.26,5.91,5.91,0,0,1,.52,3.06,6.14,6.14,0,0,1-1.22,3.3,6.25,6.25,0,0,1-2.65,2,7.55,7.55,0,0,1-3.34.48,6.91,6.91,0,0,1-3.51-1.25,6.43,6.43,0,0,1-2.28-3,9.74,9.74,0,0,1-.54-4.43,9.53,9.53,0,0,1,2.67-5.69,20.37,20.37,0,0,1,6.06-4.42l2.41,3.09a11.63,11.63,0,0,0-3.71,1.86,8.88,8.88,0,0,0-2.38,2.67,5.12,5.12,0,0,1,3.65-.91A4.88,4.88,0,0,1,413.54,208.37Zm-2.71,6.95a2.64,2.64,0,0,0,.93-1.94,2.33,2.33,0,0,0-.61-1.95,2.93,2.93,0,0,0-1.91-.82,3.07,3.07,0,0,0-2,.47,1.79,1.79,0,0,0-.93,1.38l0,.66a2.4,2.4,0,0,0,.64,1.84,3,3,0,0,0,3.9.36Z"/><path class="cls-6" d="M456.86,227.78l-13.09-.91,1.58-1.38c1.83-1.62,3.26-2.94,4.27-3.93a19.67,19.67,0,0,0,2.57-3,6.23,6.23,0,0,0,1.17-3,2.41,2.41,0,0,0-.64-1.88,3,3,0,0,0-2-.83,2.73,2.73,0,0,0-1.95.5,1.85,1.85,0,0,0-.82,1.37,3.83,3.83,0,0,0,.88,2.8l-2.59,2.05a3.42,3.42,0,0,1-1.22-1.32,7.1,7.1,0,0,1-.75-1.95,6,6,0,0,1-.17-1.74,5.44,5.44,0,0,1,1.05-2.86,6.18,6.18,0,0,1,2.62-2.05,8.26,8.26,0,0,1,3.9-.58,6.34,6.34,0,0,1,3.17,1.06,6.05,6.05,0,0,1,2.06,2.38,5.86,5.86,0,0,1,.58,3,7.46,7.46,0,0,1-.76,2.81,13.66,13.66,0,0,1-1.6,2.53c-.63.79-1.46,1.75-2.49,2.86l4.47.32-.26,3.82"/><path class="cls-6" d="M272.52,229.94c0-24,0-47.85,0-69.89a7.29,7.29,0,0,1-2.64-.5,6.57,6.57,0,0,1-2.36-1.44l2-3.33a4.21,4.21,0,0,0,1.33,1,3.45,3.45,0,0,0,1.7.44c0-1.78,0-3.55,0-5.31a10.48,10.48,0,0,0-1.24.07,9.06,9.06,0,0,0-.93.21l-.09-.11,2.26-4.4v-1.17l-3.72.06-.06-3.83,3.79-.07c0-7.42,0-14.56,0-21.33a5.17,5.17,0,0,1-1.81,1.79,7.08,7.08,0,0,1-3.17,1,7.68,7.68,0,0,1-2.87-.36,6.59,6.59,0,0,1-2.44-1.31l1.77-3.42a4.51,4.51,0,0,0,1.39.94,3.47,3.47,0,0,0,1.76.33,2.46,2.46,0,0,0,1.69-.85,2.51,2.51,0,0,0,.62-2,2.65,2.65,0,0,0-.82-1.86,2.46,2.46,0,0,0-1.91-.57,7.79,7.79,0,0,0-1.15.14,7.53,7.53,0,0,0-.91.25l-.09-.1,2.54-5.74-4.32.33-.28-3.83,9.86-.74-2.95,6.87a4.62,4.62,0,0,1,2.83,1.47,4.08,4.08,0,0,1,.31.39c0-7.31,0-14.14,0-20.36v-.2A7,7,0,0,1,269,94.35a7.84,7.84,0,0,1-2.88-.09,6.66,6.66,0,0,1-2.56-1.06L265,89.61a4.27,4.27,0,0,0,1.47.81,3.66,3.66,0,0,0,1.78.17,2.49,2.49,0,0,0,1.61-1,2.57,2.57,0,0,0,.42-2.06,2.62,2.62,0,0,0-1-1.77,2.47,2.47,0,0,0-1.95-.39c-.49.09-.86.17-1.13.25a7,7,0,0,0-.88.35l-.1-.1,2-5.95-4.26.73-.65-3.78L272,75.18l-2.28,7.12a4.53,4.53,0,0,1,3,1.22c.08-16.73.18-27.46.32-29.27a87,87,0,0,0,.19-9.8l0-.48a7.8,7.8,0,0,1-3.08.36,3.09,3.09,0,0,1-.61-.08L267.71,46l-8.56,8.56-1,1-2.42-2.42-2.42-2.42q5.29-5.31,10.6-10.6a2.07,2.07,0,0,1-.15-.34,11.61,11.61,0,0,1-.7-5.16q.58-9.24,8.2-8.71a7.06,7.06,0,0,1,4.8,2.06l1.19-1.19c.49.52,1.16,1.21,2,2s1.78,1.77,2.87,2.81l2.52,2.41c.62-1.05,1.92-3.18,1.92-3.18l-4.33-.24.21-3.83,9.88.54-3.81,6.43a4.57,4.57,0,0,1,2.62,1.82,6,6,0,0,1,.83,3.85,7.4,7.4,0,0,1-.24,1.54c1.7,1.7,3.19,3.21,4.46,4.51,3.27,3.34,5,5.24,5,5.24l-2.42,2.42-2.42,2.42-1.71-1.7-4.22-4.22-4.33-4.34a4.73,4.73,0,0,1-1,0,7.73,7.73,0,0,1-3.43-1.08c0,.17,0,.35,0,.52,0,.37,0,.43-.06,1.77-.06,2.92,0,4.84.06,6.69.08,3.53,0,3.76,0,6.38.09,4.15,0,8.86,0,13.05a.81.81,0,0,1,.22-.07,6.24,6.24,0,0,1,3.33.09,6,6,0,0,1,2.66,1.69,5.83,5.83,0,0,1,1.44,2.7,7.89,7.89,0,0,1,.09,2.91,13.93,13.93,0,0,1-.8,2.89c-.38.94-.9,2.09-1.56,3.46l4.38-1,.86,3.74-10.64,2.43v11.29a6.77,6.77,0,0,1,4.56,0,6,6,0,0,1,2.54,1.87,5.86,5.86,0,0,1,1.24,2.8,7.48,7.48,0,0,1-.12,2.9,13.61,13.61,0,0,1-1,2.83c-.44.91-1,2-1.8,3.35l4.44-.69.59,3.78-10.45,1.62c0,38.56,0,95.7,0,150.1"/><path class="cls-6" d="M278.15,146.52l.54,3-2.13.39.72,3.91-3.94.72-.71-3.91L265.14,152v0L274,135.7h0l2,11.22Zm-6.06,1.11-.44-2.38-1.34,2.7Z"/><path class="cls-6" d="M305.06,140.09a7.1,7.1,0,0,1-2.88-3,11.77,11.77,0,0,1-1.25-5.06q-.42-9.24,7.21-9.55a7.32,7.32,0,0,1,3.93.82,7.16,7.16,0,0,1,2.88,3,11.53,11.53,0,0,1,1.25,5.06,11.77,11.77,0,0,1-.77,5.24,6.91,6.91,0,0,1-2.6,3.18,7.46,7.46,0,0,1-3.84,1.13A7.16,7.16,0,0,1,305.06,140.09Zm6.38-4.58a8.34,8.34,0,0,0,.63-4.06c-.17-3.51-1.43-5.2-3.78-5.09a2.81,2.81,0,0,0-2.61,1.54,8.12,8.12,0,0,0-.62,3.95,8.46,8.46,0,0,0,1,3.94,3.23,3.23,0,0,0,5.4-.28Z"/><path class="cls-6" d="M408.24,125.84a5.76,5.76,0,0,1,2.12,2,6.46,6.46,0,0,1,.14,6.4,6.16,6.16,0,0,1-2.36,2.31,7.44,7.44,0,0,1-3.25.92,7,7,0,0,1-3.65-.76,6.45,6.45,0,0,1-2.64-2.64,9.69,9.69,0,0,1-1.12-4.32,9.4,9.4,0,0,1,1.89-6,20.18,20.18,0,0,1,5.41-5.18l2.8,2.73a11.79,11.79,0,0,0-3.43,2.34,9.07,9.07,0,0,0-2,3,5.07,5.07,0,0,1,3.49-1.38A4.85,4.85,0,0,1,408.24,125.84Zm-1.76,7.25a2.61,2.61,0,0,0,.66-2.05,2.36,2.36,0,0,0-.86-1.85,2.93,2.93,0,0,0-2-.56,3.1,3.1,0,0,0-1.9.72,1.82,1.82,0,0,0-.73,1.5l0,.65a2.39,2.39,0,0,0,.88,1.74,2.69,2.69,0,0,0,2,.67A2.75,2.75,0,0,0,406.48,133.09Z"/><path class="cls-6" d="M461.75,126.69l.24,3.83-13.09.83,1.38-1.57q2.4-2.79,3.72-4.46a19.92,19.92,0,0,0,2.14-3.37,6.12,6.12,0,0,0,.75-3.16A2.34,2.34,0,0,0,456,117a3,3,0,0,0-2.07-.56,2.76,2.76,0,0,0-1.87.75,1.88,1.88,0,0,0-.62,1.47,3.86,3.86,0,0,0,1.24,2.67l-2.3,2.36a3.26,3.26,0,0,1-1.39-1.14,7,7,0,0,1-1-1.84,6.18,6.18,0,0,1-.41-1.7,5.56,5.56,0,0,1,.66-3,6.22,6.22,0,0,1,2.34-2.39,8.35,8.35,0,0,1,3.79-1.09,6.36,6.36,0,0,1,3.27.63,6,6,0,0,1,3.34,5,7.49,7.49,0,0,1-.39,2.88,13.2,13.2,0,0,1-1.25,2.73c-.52.87-1.22,1.92-2.09,3.17Z"/><path class="cls-6" d="M278.83,189.67l.4,3-2.15.29.53,3.93-4,.53-.52-3.94-7.55,1v0l9.57-15.79h0l1.51,11.3Zm-6.11.82-.32-2.39-1.47,2.63Z"/><path class="cls-6" d="M298.76,163.78a6,6,0,0,1,1.16,3.77,6.11,6.11,0,0,1-.8,3.37,6,6,0,0,1-2.32,2.25,7,7,0,0,1-3.2.86,7.8,7.8,0,0,1-2.86-.49,6.43,6.43,0,0,1-2.38-1.41l1.92-3.35a4.33,4.33,0,0,0,1.35,1,3.53,3.53,0,0,0,1.74.41,2.5,2.5,0,0,0,1.73-.78,2.58,2.58,0,0,0,.7-2,2.62,2.62,0,0,0-.74-1.89,2.45,2.45,0,0,0-1.89-.65A7.48,7.48,0,0,0,292,165a6.67,6.67,0,0,0-.93.21l-.08-.1,2.78-5.62-4.33.13-.12-3.83,9.89-.31L296,162.19A4.58,4.58,0,0,1,298.76,163.78Z"/><path class="cls-6" d="M387.09,169l-.07,3-2.16,0-.1,4-4-.1.1-4-7.62-.18v0l11.93-14.1h0L384.93,169Zm-6.16-.15.06-2.41-1.87,2.37Z"/><path class="cls-6" d="M427.21,172.83l0,3.83L414,176.51l1.5-1.47q2.61-2.59,4-4.17a20,20,0,0,0,2.4-3.19,6.23,6.23,0,0,0,1-3.1,2.32,2.32,0,0,0-.75-1.84,2.94,2.94,0,0,0-2-.71,2.8,2.8,0,0,0-1.92.6,1.9,1.9,0,0,0-.73,1.42,3.79,3.79,0,0,0,1,2.75L416.1,169a3.39,3.39,0,0,1-1.3-1.24,7.28,7.28,0,0,1-.85-1.91,6.1,6.1,0,0,1-.28-1.72,5.53,5.53,0,0,1,.88-2.91,6.09,6.09,0,0,1,2.51-2.2,8.23,8.23,0,0,1,3.86-.81,6.31,6.31,0,0,1,3.22.88,6,6,0,0,1,2.19,2.26,5.86,5.86,0,0,1,.76,3,7.69,7.69,0,0,1-.59,2.85,14,14,0,0,1-1.46,2.62c-.59.83-1.36,1.83-2.32,3Z"/><path class="cls-6" d="M458.32,175.84a7.11,7.11,0,0,1-2.74-3.09,11.63,11.63,0,0,1-1-5.11q0-9.25,7.63-9.21a7.23,7.23,0,0,1,3.9,1,7.11,7.11,0,0,1,2.74,3.09,11.63,11.63,0,0,1,1,5.11,11.85,11.85,0,0,1-1,5.19,6.92,6.92,0,0,1-2.74,3.06,7.47,7.47,0,0,1-3.89,1A7.24,7.24,0,0,1,458.32,175.84Zm6.59-4.29a8.58,8.58,0,0,0,.8-4c0-3.5-1.18-5.26-3.54-5.25a2.83,2.83,0,0,0-2.68,1.42,8.11,8.11,0,0,0-.79,3.92,8.31,8.31,0,0,0,.8,4,2.8,2.8,0,0,0,2.68,1.45A2.85,2.85,0,0,0,464.91,171.55Z"/><path class="cls-6" d="M270.09,180.24l-.07,3-2.16-.06-.1,4-4-.1.1-4-7.62-.18v0l11.93-14.1h0l-.28,11.39Zm-6.16-.14.06-2.41-1.87,2.36Z"/><path class="cls-6" d="M383.34,116a7,7,0,0,1-1.14-1.41,3.79,3.79,0,0,1-.39-1.76,3.59,3.59,0,0,1,.65-2.18,4.68,4.68,0,0,1,1.84-1.55,5.91,5.91,0,0,1,2.58-.61,6.25,6.25,0,0,1,2.63.47,4.81,4.81,0,0,1,2,1.4,3.27,3.27,0,0,1,.76,2,4,4,0,0,1-.33,1.91,6.37,6.37,0,0,1-1.15,1.52,9.11,9.11,0,0,1,2.3,2,4.83,4.83,0,0,1,1,3,5.52,5.52,0,0,1-.83,3,6.49,6.49,0,0,1-2.44,2.32,7.35,7.35,0,0,1-3.48.93,7.13,7.13,0,0,1-3.53-.76,6.47,6.47,0,0,1-2.51-2.2,5.57,5.57,0,0,1-1-3A5.71,5.71,0,0,1,383.34,116Zm1.9,6.93a2.61,2.61,0,0,0,2,.81,2.78,2.78,0,0,0,2-.91,2.88,2.88,0,0,0,.82-2.09,3,3,0,0,0-.88-2,2.66,2.66,0,0,0-2-.81,2.78,2.78,0,0,0-2,.9,2.81,2.81,0,0,0-.81,2.1A2.89,2.89,0,0,0,385.24,123Zm.91-8.75a1.4,1.4,0,0,0,1,.39,1.36,1.36,0,0,0,.94-.44,1.27,1.27,0,0,0,.4-1,1.36,1.36,0,0,0-.45-1,1.29,1.29,0,0,0-.95-.4,1.35,1.35,0,0,0-.95.45,1.28,1.28,0,0,0-.41,1A1.24,1.24,0,0,0,386.15,114.21Z"/><path class="cls-6" d="M284.34,183a7,7,0,0,1-1.14-1.41,3.79,3.79,0,0,1-.39-1.76,3.59,3.59,0,0,1,.65-2.18,4.68,4.68,0,0,1,1.84-1.55,5.91,5.91,0,0,1,2.58-.61,6.25,6.25,0,0,1,2.63.47,4.81,4.81,0,0,1,2,1.4,3.27,3.27,0,0,1,.76,2,4,4,0,0,1-.33,1.91,6.37,6.37,0,0,1-1.15,1.52,9.11,9.11,0,0,1,2.3,2,4.83,4.83,0,0,1,1,3,5.52,5.52,0,0,1-.83,3,6.49,6.49,0,0,1-2.44,2.32,7.35,7.35,0,0,1-3.48.93,7.13,7.13,0,0,1-3.53-.76,6.47,6.47,0,0,1-2.51-2.2,5.57,5.57,0,0,1-1-3A5.71,5.71,0,0,1,284.34,183Zm1.9,6.93a2.61,2.61,0,0,0,2,.81,2.78,2.78,0,0,0,2-.91,2.88,2.88,0,0,0,.82-2.09,3,3,0,0,0-.88-2.05,2.66,2.66,0,0,0-2-.81,2.78,2.78,0,0,0-2,.9,2.81,2.81,0,0,0-.81,2.1A2.89,2.89,0,0,0,286.24,190Zm.91-8.75a1.4,1.4,0,0,0,1,.39,1.36,1.36,0,0,0,.94-.44,1.27,1.27,0,0,0,.4-1,1.36,1.36,0,0,0-.45-1,1.29,1.29,0,0,0-.95-.4,1.35,1.35,0,0,0-.95.45,1.28,1.28,0,0,0-.41,1A1.24,1.24,0,0,0,287.15,181.21Z"/><path class="cls-6" d="M242.16,91a5.51,5.51,0,0,1,2.17,2.14,6.77,6.77,0,0,1,.84,3,6.59,6.59,0,0,1-.68,3.28,6.15,6.15,0,0,1-2.15,2.4,6,6,0,0,1-3.08,1,8.76,8.76,0,0,1-3.15-.46,6.82,6.82,0,0,1-2.47-1.37l1.92-3.26a3.69,3.69,0,0,0,1.45.94,4.5,4.5,0,0,0,1.78.33,2.36,2.36,0,0,0,1.67-.72,2.34,2.34,0,0,0,.61-1.82,3,3,0,0,0-.85-2.09,2.73,2.73,0,0,0-2.12-.72,5.28,5.28,0,0,0-1.6.3,10.42,10.42,0,0,0-1.78.86h0l-.43-10.18,9.06-.39.16,3.84-5.64.23.09,2.06a5.91,5.91,0,0,1,1-.1A6.05,6.05,0,0,1,242.16,91Z"/><path class="cls-6" d="M240.59,114.57a6.63,6.63,0,0,1,3.36,6,9.89,9.89,0,0,1-1.31,5,14,14,0,0,1-3.19,3.73,42.61,42.61,0,0,1-4.62,3.18l-2.62-2.91a22.13,22.13,0,0,0,3.48-1.73,12,12,0,0,0,2.52-2,5.63,5.63,0,0,1-2.72.56,4.87,4.87,0,0,1-2.55-.78,5.75,5.75,0,0,1-2-2.13,5.9,5.9,0,0,1-.72-3,6.71,6.71,0,0,1,1-3.64,6.29,6.29,0,0,1,2.52-2.34,6.9,6.9,0,0,1,3.29-.78A7.24,7.24,0,0,1,240.59,114.57Zm-5.49,7.67a2.73,2.73,0,0,0,2,.76,2.79,2.79,0,0,0,1.94-.71,2.25,2.25,0,0,0,.83-1.66V120a2.72,2.72,0,0,0-.77-1.94,2.57,2.57,0,0,0-1.94-.87,2.67,2.67,0,0,0-2,.76,2.94,2.94,0,0,0-.79,2.17A2.8,2.8,0,0,0,235.1,122.24Z"/><path class="cls-6" d="M259.18,23l-7.12,18-4.44-.09,5.74-14.21-6.52-.13.07-3.84Z"/><path class="cls-6" d="M294.18,136l-7.12,18-4.44-.09,5.74-14.21-6.52-.13.07-3.84Z"/><path class="cls-6" d="M402.18,145l-7.12,18-4.44-.09,5.74-14.21-6.52-.13.07-3.84Z"/><path class="cls-6" d="M406.24,163.84a5.76,5.76,0,0,1,2.12,2,6.46,6.46,0,0,1,.14,6.4,6.16,6.16,0,0,1-2.36,2.31,7.44,7.44,0,0,1-3.25.92,7,7,0,0,1-3.65-.76,6.45,6.45,0,0,1-2.64-2.64,9.69,9.69,0,0,1-1.12-4.32,9.4,9.4,0,0,1,1.89-6,20.18,20.18,0,0,1,5.41-5.18l2.8,2.73a11.79,11.79,0,0,0-3.43,2.34,9.07,9.07,0,0,0-2,3,5.07,5.07,0,0,1,3.49-1.38A4.85,4.85,0,0,1,406.24,163.84Zm-1.76,7.25a2.61,2.61,0,0,0,.66-2.05,2.36,2.36,0,0,0-.86-1.85,2.93,2.93,0,0,0-2-.56,3.1,3.1,0,0,0-1.9.72,1.82,1.82,0,0,0-.73,1.5l0,.65a2.39,2.39,0,0,0,.88,1.74,2.69,2.69,0,0,0,2,.67A2.75,2.75,0,0,0,404.48,171.09Z"/><path class="cls-6" d="M374.29,52.42a7.06,7.06,0,0,1-1.56,7A6,6,0,0,1,369.9,61a6.91,6.91,0,0,1-3.32,0A7.69,7.69,0,0,1,364,59.69a6.58,6.58,0,0,1-1.93-2L364.78,55a4.41,4.41,0,0,0,1,1.32,3.64,3.64,0,0,0,1.57.86,2.49,2.49,0,0,0,1.87-.29,2.55,2.55,0,0,0,1.21-1.72,2.67,2.67,0,0,0-.21-2A2.44,2.44,0,0,0,368.61,52a7,7,0,0,0-2.08-.26l-.06-.12,4.19-4.68-4.21-1,.91-3.73L377,44.53l-4.92,5.63A4.56,4.56,0,0,1,374.29,52.42Z"/><path class="cls-6" d="M421.77,135.89a6.64,6.64,0,0,1,2.57,2.39,6.81,6.81,0,0,1,1,3.46,10,10,0,0,1-1.14,5,13.61,13.61,0,0,1-3.05,3.83,41.66,41.66,0,0,1-4.51,3.35l-2.72-2.82a22,22,0,0,0,3.42-1.86,12.21,12.21,0,0,0,2.45-2.13,5.67,5.67,0,0,1-2.7.66,4.83,4.83,0,0,1-2.58-.7,5.7,5.7,0,0,1-2.06-2.05,5.94,5.94,0,0,1-.83-3,6.84,6.84,0,0,1,.87-3.67,6.33,6.33,0,0,1,2.44-2.43,6.92,6.92,0,0,1,3.25-.89A7.24,7.24,0,0,1,421.77,135.89Zm-5.22,7.85a3,3,0,0,0,3.9-.08,2.25,2.25,0,0,0,.78-1.69l0-.63a2.72,2.72,0,0,0-.83-1.92,2.61,2.61,0,0,0-2-.79,2.65,2.65,0,0,0-2,.82,3,3,0,0,0-.72,2.19A2.81,2.81,0,0,0,416.55,143.74Z"/><path class="cls-6" d="M350.36,110.83,343.7,129l-4.43,0,5.36-14.36-6.52,0,0-3.84Z"/><path class="cls-6" d="M420.21,73.83A6.31,6.31,0,0,1,419,72.46a3.62,3.62,0,0,1-.45-1.74,3.54,3.54,0,0,1,.57-2.2,4.66,4.66,0,0,1,1.78-1.62,6.17,6.17,0,0,1,2.57-.7,6.3,6.3,0,0,1,2.64.38,4.79,4.79,0,0,1,2,1.33,3.29,3.29,0,0,1,.84,2,4,4,0,0,1-.26,1.92,6.86,6.86,0,0,1-1.1,1.56A9,9,0,0,1,430,75.31a4.81,4.81,0,0,1,1.08,3,5.53,5.53,0,0,1-.72,3A6.64,6.64,0,0,1,428,83.72a7.31,7.31,0,0,1-3.45,1,7.11,7.11,0,0,1-3.55-.64A6.46,6.46,0,0,1,418.41,82a5.47,5.47,0,0,1-1.07-2.94A5.71,5.71,0,0,1,420.21,73.83Zm2.14,6.86a2.61,2.61,0,0,0,2,.74,2.77,2.77,0,0,0,2-1,2.81,2.81,0,0,0,.73-2.12,2.85,2.85,0,0,0-.94-2,2.65,2.65,0,0,0-2-.74,2.9,2.9,0,0,0-2.69,3.09A2.85,2.85,0,0,0,422.35,80.69Zm.6-8.78a1.36,1.36,0,0,0,1,.36,1.34,1.34,0,0,0,.92-.47,1.29,1.29,0,0,0,.37-1,1.33,1.33,0,0,0-.48-.95,1.27,1.27,0,0,0-1.9.12,1.26,1.26,0,0,0-.38,1A1.24,1.24,0,0,0,423,71.91Z"/><path class="cls-6" d="M304.21,158.83a6.31,6.31,0,0,1-1.19-1.37,3.62,3.62,0,0,1-.45-1.74,3.54,3.54,0,0,1,.57-2.2,4.66,4.66,0,0,1,1.78-1.62,6.17,6.17,0,0,1,2.57-.7,6.3,6.3,0,0,1,2.64.38,4.79,4.79,0,0,1,2,1.33,3.29,3.29,0,0,1,.84,2,4,4,0,0,1-.26,1.92,6.86,6.86,0,0,1-1.1,1.56,9,9,0,0,1,2.37,1.92,4.81,4.81,0,0,1,1.08,2.95,5.53,5.53,0,0,1-.72,3.05,6.64,6.64,0,0,1-2.36,2.41,7.31,7.31,0,0,1-3.45,1.05,7.11,7.11,0,0,1-3.55-.64,6.46,6.46,0,0,1-2.58-2.11,5.47,5.47,0,0,1-1.07-2.94A5.71,5.71,0,0,1,304.21,158.83Zm2.14,6.86a2.61,2.61,0,0,0,2,.74,2.77,2.77,0,0,0,2-1,2.81,2.81,0,0,0,.73-2.12,2.85,2.85,0,0,0-.94-2,2.65,2.65,0,0,0-2-.74,2.9,2.9,0,0,0-2.69,3.09A2.85,2.85,0,0,0,306.35,165.69Zm.6-8.78a1.36,1.36,0,0,0,1,.36,1.34,1.34,0,0,0,.92-.47,1.29,1.29,0,0,0,.37-1,1.33,1.33,0,0,0-.48-.95,1.27,1.27,0,0,0-1.9.12,1.26,1.26,0,0,0-.38,1A1.24,1.24,0,0,0,307,156.91Z"/><path class="cls-6" d="M349.21,128.83a6.31,6.31,0,0,1-1.19-1.37,3.62,3.62,0,0,1-.45-1.74,3.54,3.54,0,0,1,.57-2.2,4.66,4.66,0,0,1,1.78-1.62,6.17,6.17,0,0,1,2.57-.7,6.3,6.3,0,0,1,2.64.38,4.79,4.79,0,0,1,2,1.33,3.29,3.29,0,0,1,.84,2,4,4,0,0,1-.26,1.92,6.86,6.86,0,0,1-1.1,1.56,9,9,0,0,1,2.37,1.92,4.81,4.81,0,0,1,1.08,2.95,5.53,5.53,0,0,1-.72,3.05,6.64,6.64,0,0,1-2.36,2.41,7.31,7.31,0,0,1-3.45,1.05,7.11,7.11,0,0,1-3.55-.64,6.46,6.46,0,0,1-2.58-2.11,5.47,5.47,0,0,1-1.07-2.94A5.71,5.71,0,0,1,349.21,128.83Zm2.14,6.86a2.61,2.61,0,0,0,2,.74,2.77,2.77,0,0,0,2-1,2.81,2.81,0,0,0,.73-2.12,2.85,2.85,0,0,0-.94-2,2.65,2.65,0,0,0-2-.74,2.9,2.9,0,0,0-2.69,3.09A2.85,2.85,0,0,0,351.35,135.69Zm.6-8.78a1.36,1.36,0,0,0,1,.36,1.34,1.34,0,0,0,.92-.47,1.29,1.29,0,0,0,.37-1,1.33,1.33,0,0,0-.48-.95,1.27,1.27,0,0,0-1.9.12,1.26,1.26,0,0,0-.38,1A1.24,1.24,0,0,0,352,126.91Z"/><path class="cls-6" d="M333.67,183a7.22,7.22,0,0,1-2.48-3.31,11.51,11.51,0,0,1-.59-5.18q.73-9.22,8.35-8.55a7.24,7.24,0,0,1,3.8,1.3,7.15,7.15,0,0,1,2.48,3.31,13.58,13.58,0,0,1-.83,10.27,6.8,6.8,0,0,1-3,2.82,7.49,7.49,0,0,1-4,.65A7.37,7.37,0,0,1,333.67,183Zm6.92-3.75a8.58,8.58,0,0,0,1.13-4c.28-3.5-.76-5.34-3.1-5.52a2.79,2.79,0,0,0-2.79,1.2,8,8,0,0,0-1.11,3.84,8.37,8.37,0,0,0,.47,4,2.83,2.83,0,0,0,2.56,1.67A2.87,2.87,0,0,0,340.59,179.21Z"/><path class="cls-6" d="M269.81,129.08l-8.58,17.39-4.41-.45,6.87-13.7-6.48-.66.39-3.82Z"/><path class="cls-6" d="M317,193.46l-1.88,18.06-4-.41,1.49-14.25-1.44-.15.39-3.82Z"/><path class="cls-6" d="M369,122.46l-1.88,18.06-4-.41,1.49-14.25-1.44-.15.39-3.82Z"/><path class="cls-6" d="M276,157.46l-1.88,18.06-4-.41,1.49-14.25-1.44-.15.39-3.82Z"/><path class="cls-6" d="M378,195.46l-1.88,18.06-4-.41,1.49-14.25-1.44-.15.39-3.82Z"/><path class="cls-6" d="M374.32,144.84a7.11,7.11,0,0,1-2.74-3.09,11.63,11.63,0,0,1-1-5.11q0-9.25,7.63-9.21a7.23,7.23,0,0,1,3.9,1,7.11,7.11,0,0,1,2.74,3.09,11.63,11.63,0,0,1,1,5.11,11.85,11.85,0,0,1-1,5.19,6.92,6.92,0,0,1-2.74,3.06,7.47,7.47,0,0,1-3.89,1A7.24,7.24,0,0,1,374.32,144.84Zm6.59-4.29a8.58,8.58,0,0,0,.8-4c0-3.5-1.18-5.26-3.54-5.25a2.83,2.83,0,0,0-2.68,1.42,8.11,8.11,0,0,0-.79,3.92,8.31,8.31,0,0,0,.8,4,2.8,2.8,0,0,0,2.68,1.45A2.85,2.85,0,0,0,380.91,140.55Z"/><path class="cls-6" d="M399.32,194.84a7.11,7.11,0,0,1-2.74-3.09,11.63,11.63,0,0,1-1-5.11q0-9.25,7.63-9.21a7.23,7.23,0,0,1,3.9,1,7.11,7.11,0,0,1,2.74,3.09,11.63,11.63,0,0,1,1,5.11,11.85,11.85,0,0,1-1,5.19,6.92,6.92,0,0,1-2.74,3.06,7.47,7.47,0,0,1-3.89,1A7.24,7.24,0,0,1,399.32,194.84Zm6.59-4.29a8.58,8.58,0,0,0,.8-4c0-3.5-1.18-5.26-3.54-5.25a2.83,2.83,0,0,0-2.68,1.42,8.11,8.11,0,0,0-.79,3.92,8.31,8.31,0,0,0,.8,4,2.8,2.8,0,0,0,2.68,1.45A2.85,2.85,0,0,0,405.91,190.55Z"/><path class="cls-6" d="M350.29,146.67a6.62,6.62,0,0,1,2.41,2.57,6.72,6.72,0,0,1,.75,3.51A10,10,0,0,1,352,157.7a13.33,13.33,0,0,1-3.31,3.62,40.52,40.52,0,0,1-4.72,3l-2.52-3a21.74,21.74,0,0,0,3.53-1.62,11.49,11.49,0,0,0,2.59-2,5.63,5.63,0,0,1-2.74.48,4.9,4.9,0,0,1-2.52-.87,5.58,5.58,0,0,1-1.91-2.19,6,6,0,0,1-.63-3.05,6.94,6.94,0,0,1,1.11-3.61,6.47,6.47,0,0,1,2.6-2.25,6.93,6.93,0,0,1,3.31-.67A7.34,7.34,0,0,1,350.29,146.67Zm-5.73,7.48a2.7,2.7,0,0,0,1.93.83,2.75,2.75,0,0,0,2-.65,2.22,2.22,0,0,0,.88-1.63l0-.63a2.73,2.73,0,0,0-.7-2,2.59,2.59,0,0,0-1.91-.93,2.64,2.64,0,0,0-2,.69,3,3,0,0,0-.86,2.14A2.75,2.75,0,0,0,344.56,154.15Z"/><path class="cls-6" d="M390.68,72.45a5.79,5.79,0,0,1,2,2.1,6,6,0,0,1,.77,3,6.12,6.12,0,0,1-.95,3.39A6.32,6.32,0,0,1,390,83.14a7.42,7.42,0,0,1-3.29.75,6.91,6.91,0,0,1-3.6-1,6.39,6.39,0,0,1-2.51-2.77,9.76,9.76,0,0,1-.9-4.37,9.45,9.45,0,0,1,2.2-5.89A20.22,20.22,0,0,1,387.6,65l2.66,2.88a11.81,11.81,0,0,0-3.55,2.16,9.2,9.2,0,0,0-2.16,2.85,5.17,5.17,0,0,1,3.57-1.2A4.92,4.92,0,0,1,390.68,72.45Zm-2.13,7.15a2.63,2.63,0,0,0,.77-2,2.36,2.36,0,0,0-.77-1.89,2.91,2.91,0,0,0-2-.66,3,3,0,0,0-1.93.63,1.81,1.81,0,0,0-.81,1.45v.66a2.4,2.4,0,0,0,.79,1.78,2.94,2.94,0,0,0,3.92,0Z"/><path class="cls-6" d="M425.68,115.45a5.79,5.79,0,0,1,2,2.1,6,6,0,0,1,.77,3,6.12,6.12,0,0,1-.95,3.39,6.32,6.32,0,0,1-2.48,2.19,7.42,7.42,0,0,1-3.29.75,6.91,6.91,0,0,1-3.6-1,6.39,6.39,0,0,1-2.51-2.77,9.76,9.76,0,0,1-.9-4.37,9.45,9.45,0,0,1,2.2-5.89,20.22,20.22,0,0,1,5.67-4.9l2.66,2.88a11.81,11.81,0,0,0-3.55,2.16,9.2,9.2,0,0,0-2.16,2.85,5.17,5.17,0,0,1,3.57-1.2A4.92,4.92,0,0,1,425.68,115.45Zm-2.13,7.15a2.63,2.63,0,0,0,.77-2,2.36,2.36,0,0,0-.77-1.89,2.91,2.91,0,0,0-2-.66,3,3,0,0,0-1.93.63,1.81,1.81,0,0,0-.81,1.45v.66a2.4,2.4,0,0,0,.79,1.78,2.94,2.94,0,0,0,3.92,0Z"/><path class="cls-6" d="M365.68,152.45a5.79,5.79,0,0,1,2,2.1,6,6,0,0,1,.77,3,6.12,6.12,0,0,1-.95,3.39,6.32,6.32,0,0,1-2.48,2.19,7.42,7.42,0,0,1-3.29.75,6.91,6.91,0,0,1-3.6-.95,6.39,6.39,0,0,1-2.51-2.77,9.76,9.76,0,0,1-.9-4.37,9.45,9.45,0,0,1,2.2-5.89,20.22,20.22,0,0,1,5.67-4.9l2.66,2.88a11.81,11.81,0,0,0-3.55,2.16,9.2,9.2,0,0,0-2.16,2.85,5.17,5.17,0,0,1,3.57-1.2A4.92,4.92,0,0,1,365.68,152.45Zm-2.13,7.15a2.63,2.63,0,0,0,.77-2,2.36,2.36,0,0,0-.77-1.89,2.91,2.91,0,0,0-2-.66,3,3,0,0,0-1.93.63,1.81,1.81,0,0,0-.81,1.45v.66a2.4,2.4,0,0,0,.79,1.78,2.94,2.94,0,0,0,3.92,0Z"/><path class="cls-6" d="M354.68,182.45a5.79,5.79,0,0,1,2,2.1,6,6,0,0,1,.77,3,6.12,6.12,0,0,1-.95,3.39,6.32,6.32,0,0,1-2.48,2.19,7.42,7.42,0,0,1-3.29.75,6.91,6.91,0,0,1-3.6-.95,6.39,6.39,0,0,1-2.51-2.77,9.76,9.76,0,0,1-.9-4.37,9.45,9.45,0,0,1,2.2-5.89,20.22,20.22,0,0,1,5.67-4.9l2.66,2.88a11.81,11.81,0,0,0-3.55,2.16,9.2,9.2,0,0,0-2.16,2.85,5.17,5.17,0,0,1,3.57-1.2A4.92,4.92,0,0,1,354.68,182.45Zm-2.13,7.15a2.63,2.63,0,0,0,.77-2,2.36,2.36,0,0,0-.77-1.89,2.91,2.91,0,0,0-2-.66,3,3,0,0,0-1.93.63,1.81,1.81,0,0,0-.81,1.45v.66a2.4,2.4,0,0,0,.79,1.78,2.94,2.94,0,0,0,3.92,0Z"/><path class="cls-6" d="M370.09,179.24l-.07,3-2.16-.06-.1,4-4-.1.1-4-7.62-.18v0l11.93-14.1h0l-.28,11.39Zm-6.16-.14.06-2.41-1.87,2.36Z"/><path class="cls-6" d="M320.09,96.24l-.07,3-2.16-.06-.1,4-4-.1.1-4-7.62-.18v0l11.93-14.1h0l-.28,11.39Zm-6.16-.14.06-2.41-1.87,2.36Z"/><path class="cls-6" d="M247.18,173l-7.12,18-4.44-.09,5.74-14.21-6.52-.13.07-3.84Z"/><path class="cls-6" d="M395.18,184l-7.12,18-4.44-.09,5.74-14.21-6.52-.13.07-3.84Z"/><path class="cls-6" d="M431.21,195.83l0,3.83L418,199.51l1.5-1.47q2.61-2.59,4-4.17a20,20,0,0,0,2.4-3.19,6.23,6.23,0,0,0,1-3.1,2.32,2.32,0,0,0-.75-1.84,2.94,2.94,0,0,0-2-.71,2.8,2.8,0,0,0-1.92.6,1.9,1.9,0,0,0-.73,1.42,3.79,3.79,0,0,0,1,2.75L420.1,192a3.39,3.39,0,0,1-1.3-1.24,7.28,7.28,0,0,1-.85-1.91,6.1,6.1,0,0,1-.28-1.72,5.53,5.53,0,0,1,.88-2.91,6.09,6.09,0,0,1,2.51-2.2,8.23,8.23,0,0,1,3.86-.81,6.31,6.31,0,0,1,3.22.88,6,6,0,0,1,2.19,2.26,5.86,5.86,0,0,1,.76,3,7.69,7.69,0,0,1-.59,2.85,14,14,0,0,1-1.46,2.62c-.59.83-1.36,1.83-2.32,3Z"/><path class="cls-6" d="M460.36,182.83,453.7,201l-4.43,0,5.36-14.36-6.52,0,0-3.84Z"/></g></g><path class="cls-8" d="M230.54,148.14l.08,3-2.17,0,.11,4-4,.1-.11-4-7.61.2v0l11.21-14.68h0l.31,11.39Zm-6.16.16-.07-2.41-1.74,2.46Z"/><path class="cls-8" d="M231.54,96.14l.08,3-2.17,0,.11,4-4,.1-.11-4-7.61.2v0L229.05,84.8h0l.31,11.39Zm-6.16.16-.07-2.41-1.74,2.46Z"/><path class="cls-8" d="M227.44,15.12a7.07,7.07,0,0,1-3.12-2.71,11.35,11.35,0,0,1-1.68-4.93Q221.43-1.7,229-2.65a7.21,7.21,0,0,1,4,.48A7.15,7.15,0,0,1,236.12.54a11.61,11.61,0,0,1,1.68,4.93,11.8,11.8,0,0,1-.33,5.28,6.91,6.91,0,0,1-2.32,3.39,7.47,7.47,0,0,1-3.73,1.46A7.21,7.21,0,0,1,227.44,15.12Zm6-5.12a8.41,8.41,0,0,0,.28-4.1c-.46-3.47-1.86-5.06-4.2-4.75A2.84,2.84,0,0,0,227,2.92a8.19,8.19,0,0,0-.28,4,8.35,8.35,0,0,0,1.32,3.83A3.22,3.22,0,0,0,233.4,10Z"/><line class="cls-9" x1="438.34" y1="222.8" x2="438.34" y2="-0.2"/><g class="cls-4"><g class="cls-11"><rect class="cls-6" x="-0.16" y="107.8" width="17" height="32"/></g></g><g class="cls-4"><g class="cls-12"><rect class="cls-6" x="-0.16" y="82.8" width="12" height="23"/></g></g><g class="cls-4"><g class="cls-13"><rect class="cls-6" x="-0.16" y="207.8" width="9" height="15"/></g></g><g class="cls-4"><g class="cls-14"><rect class="cls-6" x="442.84" y="-0.2" width="20" height="12"/></g></g><g class="cls-15"><rect class="cls-6" x="-0.16" y="-0.2" width="12" height="14"/></g><path class="cls-8" d="M13,12.4a5.45,5.45,0,0,1,1.07,2.85,6.51,6.51,0,0,1-.51,3.11,6.44,6.44,0,0,1-2,2.69,6.11,6.11,0,0,1-3,1.29,6,6,0,0,1-3.21-.4A8.56,8.56,0,0,1,2.72,20.2a6.65,6.65,0,0,1-1.67-2.27l3.1-2.16a3.64,3.64,0,0,0,.93,1.46,4.31,4.31,0,0,0,1.48,1,2.4,2.4,0,0,0,1.82.06,2.36,2.36,0,0,0,1.31-1.4,2.93,2.93,0,0,0,.1-2.26,2.77,2.77,0,0,0-1.62-1.54,5.65,5.65,0,0,0-1.58-.4,10.29,10.29,0,0,0-2,0h0L8.47,3.33l8.39,3.45L15.4,10.33,10.18,8.18l-.78,1.9a7.44,7.44,0,0,1,.93.32A6.16,6.16,0,0,1,13,12.4Z"/><line class="cls-9" x1="22.34" y1="35.8" x2="22.34" y2="-75.2"/><g class="cls-4"><g class="cls-16"><path class="cls-6" d="M91.63,181.62v36.12c0,13.21,0,25.51,0,36.1v20.35l-1.68.15.36,3.82,1.32-.13v12.82c0,4.94-.12,11.37,0,16.84,0,.28,0,.53,0,.77a4.75,4.75,0,0,0-2.71,1.71,3.59,3.59,0,0,0-.75,2.15,3.89,3.89,0,0,0,.3,1.77,6.84,6.84,0,0,0,1.08,1.46c-2.33,1.32-3.42,3.17-3.25,5.55l-3-3,.28-9.87L78.08,308l0,1.62L78,311.87l1.45,0s0,1.43-.06,2.26l-.71-.71-1.71-1.71-2.42,2.43L72.1,316.6s1.76,1.9,5,5.24l2,2L79,326.23s1.56,0,2.53.06c2.7,2.7,5.93,5.86,9.64,9.4,1.09,1,2,2,2.87,2.81s1.48,1.52,2,2l12-12,1.68-1.68,5.44.07,0-3.83,0-1.76.63-.63L120,316.6l-2.42-2.42-2.42-2.43-.51.51a3.93,3.93,0,0,0-.3-.62,6,6,0,0,0-2.19-2.27,6.28,6.28,0,0,0-3.22-.88,8.25,8.25,0,0,0-3.86.79,6.3,6.3,0,0,0-2.51,2.2,5.48,5.48,0,0,0-.89,2.91,6.21,6.21,0,0,0,.28,1.73,6.91,6.91,0,0,0,.85,1.9,3.28,3.28,0,0,0,1.3,1.25l2.47-2.18a3.78,3.78,0,0,1-1-2.76,1.83,1.83,0,0,1,.73-1.41,2.75,2.75,0,0,1,1.92-.6,2.94,2.94,0,0,1,2,.71,2.32,2.32,0,0,1,.74,1.85,4.77,4.77,0,0,1-.19,1.27l-5.18,5.17-5.36,5.36-.14-3.77a86.78,86.78,0,0,1,.19-9.79c0-.66.1-2.16.14-4.4.1-5.43.17-15.22.23-27.92a7.16,7.16,0,0,0,1.14,1.8,3.23,3.23,0,0,0,1.46,1l2.12-2.52a3.83,3.83,0,0,1-1.42-2.57,1.88,1.88,0,0,1,.51-1.51,2.81,2.81,0,0,1,1.82-.88,2.92,2.92,0,0,1,2.1.41,2.07,2.07,0,0,1,.66.69,2.68,2.68,0,0,1,.35,1,6.34,6.34,0,0,1-.52,3.21,20.29,20.29,0,0,1-1.91,3.51q-1.19,1.75-3.38,4.71l-1.27,1.66,13-1.75-.51-3.8-4.45.6c.78-1.3,1.4-2.41,1.86-3.31a13.42,13.42,0,0,0,1.06-2.81,7.7,7.7,0,0,0,.17-2.9,5.87,5.87,0,0,0-1.18-2.82,6,6,0,0,0-2.5-1.92,6.32,6.32,0,0,0-3.31-.39,8.29,8.29,0,0,0-3.7,1.35,6.18,6.18,0,0,0-2.1,2.42c0-12.79.09-28.09.11-44.61l8.51-1.16-.51-3.8-4.45.61c.78-1.31,1.4-2.41,1.86-3.31a13.05,13.05,0,0,0,1-2.81,7.51,7.51,0,0,0,.18-2.9,6,6,0,0,0-3.69-4.74,5.68,5.68,0,0,0-2.94-.4c0-30.64,0-63.73,0-92.2"/><path class="cls-6" d="M57.82,227.63l0,3-2.16,0,.06,4-4,0-.06-4-7.61.11v0l11.37-14.56h0l.16,11.4Zm-6.16.09,0-2.41-1.77,2.44Z"/><path class="cls-6" d="M69,222.68a5.54,5.54,0,0,1,2.17,2.15,6.9,6.9,0,0,1,.16,6.31,6.17,6.17,0,0,1-2.15,2.41,6,6,0,0,1-3.08,1,8.76,8.76,0,0,1-3.15-.46,6.81,6.81,0,0,1-2.47-1.36l1.92-3.26a3.8,3.8,0,0,0,1.45.94,4.48,4.48,0,0,0,1.78.32,2.36,2.36,0,0,0,1.67-.72,2.33,2.33,0,0,0,.61-1.82,3,3,0,0,0-.85-2.09,2.8,2.8,0,0,0-2.12-.72,6,6,0,0,0-1.6.3,11.24,11.24,0,0,0-1.78.86h0l-.43-10.18,9.06-.38.16,3.83-5.64.24.09,2.05a7.27,7.27,0,0,1,1-.1A6.15,6.15,0,0,1,69,222.68Z"/><path class="cls-6" d="M89.27,214.49,91,232.57,87,233l-1.38-14.26-1.44.14L83.84,215Z"/><path class="cls-6" d="M119.18,211.13A6.51,6.51,0,0,1,122,213.2a6.75,6.75,0,0,1,1.4,3.31,10,10,0,0,1-.52,5.14,13.69,13.69,0,0,1-2.57,4.17,41.94,41.94,0,0,1-4.07,3.87l-3-2.47a21.87,21.87,0,0,0,3.16-2.26,11.65,11.65,0,0,0,2.18-2.41,5.77,5.77,0,0,1-2.6,1,4.86,4.86,0,0,1-2.65-.38,5.81,5.81,0,0,1-2.29-1.79,5.89,5.89,0,0,1-1.18-2.87,7,7,0,0,1,.41-3.76,6.41,6.41,0,0,1,2.14-2.7,6.91,6.91,0,0,1,3.12-1.28A7.29,7.29,0,0,1,119.18,211.13Zm-4.24,8.42A2.74,2.74,0,0,0,117,220a2.83,2.83,0,0,0,1.81-1,2.24,2.24,0,0,0,.56-1.77l-.09-.62a2.65,2.65,0,0,0-1.06-1.8,2.55,2.55,0,0,0-2-.55,2.64,2.64,0,0,0-1.85,1.05,2.94,2.94,0,0,0-.44,2.26A2.79,2.79,0,0,0,114.94,219.55Z"/><path class="cls-6" d="M134.21,224.83a6.31,6.31,0,0,1-1.19-1.37,3.62,3.62,0,0,1-.45-1.74,3.54,3.54,0,0,1,.57-2.2,4.66,4.66,0,0,1,1.78-1.62,6.17,6.17,0,0,1,2.57-.7,6.3,6.3,0,0,1,2.64.38,4.79,4.79,0,0,1,2,1.33,3.29,3.29,0,0,1,.84,2,4,4,0,0,1-.26,1.92,6.86,6.86,0,0,1-1.1,1.56,9,9,0,0,1,2.37,1.92,4.81,4.81,0,0,1,1.08,2.95,5.53,5.53,0,0,1-.72,3.05,6.64,6.64,0,0,1-2.36,2.41,7.31,7.31,0,0,1-3.45,1.05,7.11,7.11,0,0,1-3.55-.64,6.46,6.46,0,0,1-2.58-2.11,5.47,5.47,0,0,1-1.07-2.94A5.71,5.71,0,0,1,134.21,224.83Zm2.14,6.86a2.61,2.61,0,0,0,2,.74,2.77,2.77,0,0,0,2-1,2.81,2.81,0,0,0,.73-2.12,2.85,2.85,0,0,0-.94-2,2.65,2.65,0,0,0-2.05-.74,2.9,2.9,0,0,0-2.69,3.09A2.85,2.85,0,0,0,136.35,231.69Zm.6-8.78a1.36,1.36,0,0,0,1,.36,1.34,1.34,0,0,0,.92-.47,1.29,1.29,0,0,0,.37-1,1.33,1.33,0,0,0-.48-.95,1.27,1.27,0,0,0-1.9.12,1.26,1.26,0,0,0-.38,1A1.24,1.24,0,0,0,137,222.91Z"/><path class="cls-6" d="M164.06,231.23l-.52,3.8-13-1.79,1.67-1.27q2.91-2.25,4.52-3.63a20.18,20.18,0,0,0,2.78-2.87,6.28,6.28,0,0,0,1.36-2.95,2.36,2.36,0,0,0-.51-1.92,3,3,0,0,0-1.92-1,2.78,2.78,0,0,0-2,.36,1.87,1.87,0,0,0-.9,1.32,3.84,3.84,0,0,0,.68,2.86L153.52,226a3.38,3.38,0,0,1-1.13-1.4,6.86,6.86,0,0,1-.61-2,5.91,5.91,0,0,1-.06-1.75,5.58,5.58,0,0,1,1.23-2.78,6.2,6.2,0,0,1,2.77-1.87,8.12,8.12,0,0,1,3.92-.31,6.2,6.2,0,0,1,3.09,1.26,6,6,0,0,1,2.28,5.56,7.47,7.47,0,0,1-.95,2.74,12.69,12.69,0,0,1-1.77,2.43c-.68.74-1.58,1.64-2.68,2.69Z"/><path class="cls-6" d="M193.19,228.19l-.77,2.91-2.09-.56-1,3.84-3.86-1,1-3.84-7.35-2v0L194,216.61h0l-2.94,11Zm-5.95-1.59.62-2.33-2.37,1.86Z"/><path class="cls-6" d="M215.2,220.5l-1.15,18.13-4-.25.9-14.3-1.45-.1.25-3.82Z"/><path class="cls-6" d="M258.84,217.24a6.61,6.61,0,0,1,2.49,2.49,6.78,6.78,0,0,1,.87,3.49,10,10,0,0,1-1.32,5,13.59,13.59,0,0,1-3.18,3.72,42.58,42.58,0,0,1-4.62,3.19l-2.62-2.92a22,22,0,0,0,3.47-1.73,11.51,11.51,0,0,0,2.53-2,5.78,5.78,0,0,1-2.72.57,4.89,4.89,0,0,1-2.55-.79,5.65,5.65,0,0,1-2-2.12,6,6,0,0,1-.73-3,6.83,6.83,0,0,1,1-3.64,6.36,6.36,0,0,1,2.52-2.34,7,7,0,0,1,3.29-.78A7.24,7.24,0,0,1,258.84,217.24Zm-5.49,7.67a2.94,2.94,0,0,0,3.91.05,2.24,2.24,0,0,0,.83-1.66v-.63a2.76,2.76,0,0,0-.77-1.94,2.6,2.6,0,0,0-1.94-.86,2.66,2.66,0,0,0-2,.75,3,3,0,0,0-.8,2.17A2.83,2.83,0,0,0,253.35,224.91Z"/><path class="cls-6" d="M297,222.68a5.54,5.54,0,0,1,2.17,2.15,6.9,6.9,0,0,1,.16,6.31,6.17,6.17,0,0,1-2.15,2.41,6,6,0,0,1-3.08,1,8.76,8.76,0,0,1-3.15-.46,6.81,6.81,0,0,1-2.47-1.36l1.92-3.26a3.8,3.8,0,0,0,1.45.94,4.48,4.48,0,0,0,1.78.32,2.36,2.36,0,0,0,1.67-.72,2.33,2.33,0,0,0,.61-1.82,3,3,0,0,0-.85-2.09,2.8,2.8,0,0,0-2.12-.72,6,6,0,0,0-1.6.3,11.24,11.24,0,0,0-1.78.86h0l-.43-10.18,9.06-.38.16,3.83-5.64.24.09,2.05a7.27,7.27,0,0,1,1-.1A6.15,6.15,0,0,1,297,222.68Z"/><path class="cls-6" d="M317.27,214.49,319,232.57l-4,.38-1.38-14.26-1.44.14-.37-3.82Z"/><path class="cls-6" d="M392.06,231.23l-.52,3.8-13-1.79,1.67-1.27q2.91-2.25,4.52-3.63a20.18,20.18,0,0,0,2.78-2.87,6.28,6.28,0,0,0,1.36-2.95,2.36,2.36,0,0,0-.51-1.92,3,3,0,0,0-1.92-1,2.78,2.78,0,0,0-2,.36,1.87,1.87,0,0,0-.9,1.32,3.84,3.84,0,0,0,.68,2.86L381.52,226a3.38,3.38,0,0,1-1.13-1.4,6.86,6.86,0,0,1-.61-2,5.91,5.91,0,0,1-.06-1.75,5.58,5.58,0,0,1,1.23-2.78,6.2,6.2,0,0,1,2.77-1.87,8.12,8.12,0,0,1,3.92-.31,6.2,6.2,0,0,1,3.09,1.26,6,6,0,0,1,2.28,5.56,7.47,7.47,0,0,1-.95,2.74,12.69,12.69,0,0,1-1.77,2.43c-.68.74-1.58,1.64-2.68,2.69Z"/><path class="cls-6" d="M421.19,228.19l-.77,2.91-2.09-.56-1,3.84-3.86-1,1-3.84-7.35-2v0L422,216.61h0l-2.94,11Zm-5.95-1.59.62-2.33-2.37,1.86Z"/><path class="cls-8" d="M227.44,237.12a7.07,7.07,0,0,1-3.12-2.71,11.35,11.35,0,0,1-1.68-4.93q-1.21-9.18,6.37-10.13a7,7,0,0,1,7.11,3.19,11.61,11.61,0,0,1,1.68,4.93,11.8,11.8,0,0,1-.33,5.28,6.91,6.91,0,0,1-2.32,3.39,7.47,7.47,0,0,1-3.73,1.46A7.21,7.21,0,0,1,227.44,237.12Zm6-5.12a8.41,8.41,0,0,0,.28-4.1c-.46-3.47-1.86-5.06-4.2-4.75a2.84,2.84,0,0,0-2.47,1.77,8.19,8.19,0,0,0-.28,4,8.35,8.35,0,0,0,1.32,3.83,3.22,3.22,0,0,0,5.35-.74Z"/></g></g><path class="cls-8" d="M232.36,182.83,225.7,201l-4.43,0,5.36-14.36-6.52,0,0-3.84Z"/></g></g></svg>