<svg xmlns="http://www.w3.org/2000/svg" viewBox="0 0 297.37 185.84"><defs><style>.cls-1{fill:#fbe29e;stroke:#5f193d;}.cls-1,.cls-3{stroke-miterlimit:10;}.cls-2{fill:#55608e;}.cls-3{fill:none;stroke:#55608e;stroke-width:8px;}</style></defs><title>Resurs 7</title><g id="Lager_2" data-name="Lager 2"><g id="Lager_4" data-name="Lager 4"><path class="cls-1" d="M13,69.59l15.44,40.9c.09-6.41-.11-71.91-.59-97.44H38.08c-.36,17.52-.29,90.24.22,119.07l-10,.45q-5.51-13.72-17.51-42.35-.36,18.82.13,34L1,124.49q.45-20-.5-55.58Z"/><path class="cls-1" d="M77.56,114.65q-2.34,9.42-12.44,12.64t-16.89-6.05Q41.47,112,42.72,71.42l10.48-.31q-2,37,1.76,42.39t10.83.63q7.09-4.78,3.8-47.54l10.29-.45Q79.88,105.24,77.56,114.65Z"/><path class="cls-1" d="M95.82,60.86l12.46,43.47,6.86-47.58,15.94.77,2.71,69.75-10-.36q-.63-22.71-2-53.09-4.29,24.69-6.87,43.65l-11.64.5a401,401,0,0,1-10.7-40.45l.27,47.36-9.53.68q.54-21.9-.27-63.12Z"/><path class="cls-1" d="M161.17,64.81q9.09,3.81,9.25,17.38t-9.77,17.68q16.15,2.52,12.32,19.79t-35.08,15.6Q137.58,100,137,62.57,152.07,61,161.17,64.81ZM146.79,104.7l-.23,18.42q17.3-1.14,17.56-9.39T146.79,104.7Zm.45-30.34L148,93.91Q161.28,93,161.73,83.5T147.24,74.36Z"/><path class="cls-1" d="M209.68,63.3l-.28,14.17q-9.53-.68-19.59-.81l.27,18.69,17.34.18-.9,10.57H191.17v13l18.05-.27v11.65q-14-.41-28.75-.14.9-30.28-.5-65.73Q195.09,63.93,209.68,63.3Z"/><path class="cls-1" d="M242.32,68.15q8.13,7.6,6.52,18.17t-12,16.93q4,6.09,13.5,26.1l-11.42,2.3q-5.25-18.2-10.07-26.19l-8.53.91.31-9.48a25.37,25.37,0,0,0,14.83-5q6.21-4.71,4-12t-16.19-5.26c-.51,26.67-.54,90.13-.09,97.75h-8.76c-.39-20.38-.9-87.63-1.53-109.12Q234.19,60.54,242.32,68.15Z"/><path class="cls-1" d="M253.88,107.68l9.21-.86Q264.53,121,272,120.2t8.05-7.13q.64-6.39-12.43-12.69T254.06,79.75q-.45-14.32,12.16-19.5t19.26,2.84q6.63,8,6,21.92l-11.19.86q-.9-16.47-7.09-16.21c-4.12.18-6.77,2.73-7.92,7.65s.26,8.9,4.28,11.92,8.4,6,13.14,8.87,7.42,6.68,8,11.36-1,9.62-4.81,14.83-10.09,7.34-18.78,6.39S254,122.06,253.88,107.68Z"/><path class="cls-2" d="M18.84,65.45l15.45,40.9c.09-6.41-.11-71.92-.59-97.44H43.9c-.36,17.51-.28,90.23.23,119.06l-10,.45q-5.5-13.71-17.52-42.34-.36,18.83.14,34l-9.93.27q.45-20-.5-55.57Z"/><path class="cls-2" d="M83.38,111.43q-2.32,9.41-12.44,12.64t-16.88-6q-6.77-9.28-5.51-49.82L59,67.88q-2,37,1.76,42.39t10.83.64q7.09-4.78,3.79-47.54l10.3-.45Q85.71,102,83.38,111.43Z"/><path class="cls-2" d="M101.64,57.63l12.46,43.48L121,53.53l15.93.76,2.71,69.76-10-.37q-.63-22.71-2-53.09-4.29,24.71-6.86,43.66l-11.65.5a403.85,403.85,0,0,1-10.7-40.46l.28,47.36-9.53.68q.54-21.9-.27-63.12Z"/><path class="cls-2" d="M167,61.58q9.1,3.83,9.26,17.39t-9.78,17.67q16.17,2.53,12.33,19.8T143.72,132q-.32-35.31-.95-72.69Q157.91,57.77,167,61.58Zm-14.38,39.89-.22,18.42q17.28-1.12,17.56-9.39T152.61,101.47Zm.45-30.34.73,19.55q13.32-.95,13.77-10.4T153.06,71.13Z"/><path class="cls-2" d="M215.5,60.07l-.27,14.18q-9.53-.68-19.59-.82l.27,18.7,17.34.18-.91,10.56H197v13l18.06-.27V127.3q-14-.42-28.76-.14.9-30.28-.49-65.73Q200.92,60.71,215.5,60.07Z"/><path class="cls-2" d="M248.14,64.92q8.13,7.62,6.53,18.18t-12,16.93q4,6.09,13.5,26.09l-11.43,2.3q-5.24-18.18-10.07-26.18l-8.53.9.32-9.48a25.43,25.43,0,0,0,14.83-5q6.21-4.72,4-12t-16.18-5.26c-.51,26.67-.55,98-.09,105.64H220.2c-.39-20.37-.9-95.53-1.54-117Q240,57.33,248.14,64.92Z"/><path class="cls-2" d="M259.7,104.45l9.22-.86q1.44,14.13,8.86,13.39t8.06-7.13q.63-6.39-12.44-12.69T259.88,76.53q-.45-14.34,12.17-19.5t19.25,2.84q6.65,8,6,21.92l-11.2.86q-.9-16.49-7.09-16.21c-4.11.18-6.76,2.73-7.91,7.65A10.73,10.73,0,0,0,275.39,86q6,4.53,13.14,8.87t8,11.36q.94,7-4.8,14.83T273,127.45Q259.93,126,259.7,104.45Z"/><line class="cls-3" x1="224.43" y1="179.62" x2="204.39" y2="159.58"/><line class="cls-3" x1="222.27" y1="183.01" x2="244.69" y2="160.58"/><line class="cls-3" x1="37.82" y1="5.23" x2="57.86" y2="25.27"/><line class="cls-3" x1="41" y1="2.83" x2="18.56" y2="25.27"/></g></g></svg>