<svg xmlns="http://www.w3.org/2000/svg" viewBox="0 0 214.16 214.2"><defs><style>.cls-1{fill:#eac3db;}.cls-2{fill:#f1d7e8;}.cls-3,.cls-9{fill:#fff;}.cls-4{fill:#d3ad59;}.cls-5{fill:#dbd9d9;}.cls-6{fill:#8c6929;}.cls-7{fill:#4378bc;}.cls-8{fill:none;}.cls-8,.cls-9{stroke:#000;stroke-miterlimit:10;}</style></defs><title>user8</title><g id="Lager_2" data-name="Lager 2"><g id="Layer_4" data-name="Layer 4"><circle class="cls-1" cx="107.08" cy="107.1" r="107.08"/><path class="cls-2" d="M203.15,151.75,201,155l-15.1-10.12,2.21-3.29a31.38,31.38,0,0,1-3.62-5.44l-3.89.76L177,119.11l3.89-.76a32,32,0,0,1,1.28-6.42l-3.29-2.2L189,94.63l3.28,2.21a31.46,31.46,0,0,1,5.45-3.62L197,89.33l14.94-3a107.09,107.09,0,0,0-8.43-25.48l-1.89-1.27a30.82,30.82,0,0,1-5.44,3.62l.76,3.89-17.83,3.52-.76-3.89a32,32,0,0,1-6.42-1.28l-2.2,3.29-15.1-10.12,2.21-3.29a31.46,31.46,0,0,1-3.62-5.45l-3.89.77-3.52-17.83,3.89-.77A31.94,31.94,0,0,1,151,25.68l-3.29-2.21,7.88-11.74A107.08,107.08,0,0,0,12.7,56.14l2.36-.47,1.52,7.7a62.84,62.84,0,0,1,12.7,2.55l4.37-6.52L63.54,79.45,59.18,86a62.82,62.82,0,0,1,7.17,10.79l7.7-1.52,7,35.32-7.7,1.52a63.52,63.52,0,0,1-2.54,12.7l6.51,4.36L57.24,179l-6.51-4.36a62.82,62.82,0,0,1-10.79,7.17l1.52,7.7L39.1,190a107.08,107.08,0,0,0,165-38Z"/><path class="cls-3" d="M109.51,48.68c-11.6.11-28.62,6.19-45.82,24.13s-24.36,39-16,47c7.39,7.09,24.42,1.65,40.14-12.07v64.59h39V63.68S128,48.49,109.51,48.68Z"/><path class="cls-4" d="M76,116C78.29,98.93,60.66,93,47.17,97.5c-3.89,9.62-4,18,.61,22.41,5.53,5.29,16.43,3.59,28.15-3.33A5,5,0,0,1,76,116Z"/><path class="cls-4" d="M111.05,66.77c4.8,2,10.36,4.21,15.88,5.11V63.76s1.19-15.18-17.34-15A48.25,48.25,0,0,0,91.26,53C94.61,60,104.28,64,111.05,66.77Z"/><path class="cls-5" d="M95.51,93.68c-12,8.45-29.41,24.41-43.62,28.91,8.53,2.72,22.63-2.93,35.84-14.41C88.17,104.94,95.77,96.9,95.51,93.68Z"/><path class="cls-6" d="M75.55,108.55C68.64,114,60.41,119.73,52,122.41c3.37,2,13.94.81,23.64-5.53C76.51,113.72,75.69,111.16,75.55,108.55Z"/><path class="cls-5" d="M124.88,97.64c-2.7,11-1.81,21.87-1.69,33.1a267.07,267.07,0,0,1-1.33,32.74,3,3,0,0,1-2.68,4.2,84.68,84.68,0,0,0-18.09,2.2c-3.79.83-8,1.16-11.52,2.8h37.27V90.45C126.15,92.83,125.47,95.22,124.88,97.64Z"/><rect class="cls-4" x="87.89" y="161.01" width="39" height="2.67"/><rect class="cls-4" x="87.89" y="154.34" width="39" height="2.67"/><path class="cls-6" d="M122,161c-.06.89-.11,1.78-.13,2.67h5V161Z"/><path class="cls-6" d="M122.65,154.34c-.08.89-.22,1.77-.32,2.67h4.56v-2.67Z"/><path class="cls-7" d="M100.51,213.91c2.5.18,5,.27,7.57.27,2.16,0,4.3-.07,6.43-.19V172.34h-14Z"/><circle class="cls-8" cx="78.51" cy="84.34" r="7"/><circle class="cls-9" cx="63.51" cy="79.68" r="7"/><circle cx="68.06" cy="80.22" r="2"/><circle cx="75.89" cy="87.88" r="2"/></g></g></svg>