<svg xmlns="http://www.w3.org/2000/svg" viewBox="0 0 214.16 214.52"><defs><style>.cls-1{fill:#cfdcea;}.cls-2{fill:#b3c9e1;}.cls-3{fill:#eac3db;}.cls-4{fill:#f1d7e8;}.cls-5{fill:#7e5724;}.cls-6{fill:#5697d1;}.cls-7{fill:none;stroke:#000;stroke-miterlimit:10;stroke-width:2px;}</style></defs><title>user2</title><g id="Lager_2" data-name="Lager 2"><g id="Layer_2_copy" data-name="Layer 2 copy"><circle class="cls-1" cx="107.08" cy="107.1" r="107.08" transform="translate(-33.08 164.48) rotate(-67.27)"/><path class="cls-2" d="M204.28,151.75l-2.2,3.28L187,144.91l2.21-3.29a31.38,31.38,0,0,1-3.62-5.44l-3.89.76-3.52-17.83,3.89-.76a32,32,0,0,1,1.28-6.42l-3.28-2.2,10.12-15.1,3.29,2.21a31,31,0,0,1,5.44-3.62l-.77-3.89,14.94-3a107.09,107.09,0,0,0-8.43-25.48l-1.89-1.27a31.43,31.43,0,0,1-5.44,3.63l.77,3.88-17.84,3.52-.76-3.89a32,32,0,0,1-6.42-1.28l-2.2,3.29-15.1-10.12L158,55.37a31.46,31.46,0,0,1-3.62-5.45l-3.89.77-3.52-17.83,3.89-.77a31.94,31.94,0,0,1,1.28-6.41l-3.28-2.21,7.87-11.74A107.08,107.08,0,0,0,13.83,56.14l2.36-.47,1.52,7.7a63.52,63.52,0,0,1,12.7,2.54l4.37-6.51,29.9,20.05L60.31,86a62.24,62.24,0,0,1,7.17,10.79l7.7-1.52,7,35.32-7.7,1.52a63.52,63.52,0,0,1-2.54,12.7l6.51,4.36L58.37,179l-6.51-4.36a62.82,62.82,0,0,1-10.79,7.17l1.52,7.7-2.36.46a107.08,107.08,0,0,0,165-38Z"/><path class="cls-3" d="M107.63,214.52a106.59,106.59,0,0,0,61.78-19.61,62.66,62.66,0,0,0-123.67-.08A106.56,106.56,0,0,0,107.63,214.52Z"/><ellipse class="cls-4" cx="107.57" cy="98.51" rx="48.5" ry="69.5"/><path class="cls-5" d="M107.57,101.34c-20.9,0-37.84,7.84-37.84,17.49H145.4C145.4,109.18,128.46,101.34,107.57,101.34Z"/><path class="cls-6" d="M118.19,98.14c0-1.52-1.68-2.86-4.27-3.7,0-.35,0-.7,0-1,0-9.19-2.85-16.63-6.37-16.63s-6.38,7.44-6.38,16.63c0,.35,0,.7,0,1-2.58.84-4.27,2.18-4.27,3.7,0,1.69,2.1,3.16,5.21,4,1.12,4.73,3.13,7.9,5.42,7.9s4.29-3.17,5.42-7.9C116.1,101.3,118.19,99.83,118.19,98.14Z"/><path class="cls-7" d="M103.85,74.57a17,17,0,1,0-14.33,19.3A17,17,0,0,0,103.85,74.57Z"/><path class="cls-7" d="M143.92,68.66A17,17,0,1,0,129.58,88,17,17,0,0,0,143.92,68.66Z"/><path class="cls-7" d="M110.14,73.12a9.19,9.19,0,0,0-3.23-.09,9.28,9.28,0,0,0-3.47,1.23"/><path d="M144.46,67.62a101.53,101.53,0,0,1,6.2-9.3,24.6,24.6,0,0,1,5.11-5.61c.59-.41,1.29-1,1.77-.53s.22,2.89.22,3.51a1,1,0,0,0,2,0c0-1.79.39-5.2-1.94-5.7-2.12-.46-4.24,1.85-5.52,3.21a76,76,0,0,0-9.56,13.41,1,1,0,0,0,1.72,1Z"/><path d="M70.83,77.24A74.59,74.59,0,0,0,57.69,67.09c-1.57-.9-4.12-2.41-6-1.49-2.25,1.1-.89,4.28-.36,6.05.38,1.23,2.31.71,1.93-.53-.22-.73-1-2.48-.77-3.19.31-.92,1.14-.51,2.12-.15A27.18,27.18,0,0,1,61,71.66a97.62,97.62,0,0,1,8.45,7c1,.87,2.37-.54,1.42-1.41Z"/></g></g></svg>