<svg xmlns="http://www.w3.org/2000/svg" viewBox="0 0 214.16 214.2"><defs><style>.cls-1{fill:#fae29e;}.cls-2{fill:#f9f0dd;}.cls-3{fill:#a4a3a4;}.cls-4{fill:#898989;}</style></defs><title>user5</title><g id="Lager_2" data-name="Lager 2"><g id="Layer_2_copy" data-name="Layer 2 copy"><circle class="cls-1" cx="107.08" cy="107.1" r="107.08" transform="translate(-1.6 1.63) rotate(-0.87)"/><path class="cls-2" d="M203.15,151.75,201,155l-15.1-10.12,2.21-3.29a31.43,31.43,0,0,1-3.63-5.44l-3.88.76L177,119.11l3.89-.76a32,32,0,0,1,1.28-6.42l-3.29-2.2L189,94.63l3.28,2.21a31.46,31.46,0,0,1,5.45-3.62L197,89.33l14.94-3a107.09,107.09,0,0,0-8.43-25.48l-1.89-1.27a30.53,30.53,0,0,1-5.45,3.62l.77,3.89-17.83,3.52-.77-3.89a32.08,32.08,0,0,1-6.41-1.28l-2.2,3.29-15.1-10.12,2.2-3.29a31.41,31.41,0,0,1-3.61-5.45l-3.89.77-3.52-17.83,3.89-.77A31.94,31.94,0,0,1,151,25.68l-3.29-2.21,7.88-11.74A107.08,107.08,0,0,0,12.7,56.14l2.36-.47,1.52,7.7a62.84,62.84,0,0,1,12.7,2.55l4.37-6.52L63.54,79.45,59.18,86a62.82,62.82,0,0,1,7.17,10.79l7.7-1.52,7,35.32-7.7,1.52a63.52,63.52,0,0,1-2.54,12.7l6.51,4.36L57.24,179l-6.51-4.36a62.82,62.82,0,0,1-10.79,7.17l1.52,7.7L39.1,190a107.08,107.08,0,0,0,165-38Z"/><path class="cls-3" d="M107.08,213.85a106.59,106.59,0,0,0,61.78-19.61,62.66,62.66,0,0,0-123.67-.08A106.56,106.56,0,0,0,107.08,213.85Z"/><ellipse class="cls-4" cx="107.02" cy="97.84" rx="48.5" ry="69.5"/></g></g></svg>