<svg xmlns="http://www.w3.org/2000/svg" viewBox="0 0 214.16 214.2"><defs><style>.cls-1{fill:#fae29e;}.cls-2{fill:#f9f0dd;}.cls-3{fill:#a4a3a4;}.cls-4{fill:#898989;}.cls-5{fill:#7e5724;}.cls-6{fill:#f1d7e8;}.cls-7{fill:none;stroke:#000;stroke-miterlimit:10;stroke-width:2px;}</style></defs><title>user6</title><g id="Lager_2" data-name="Lager 2"><g id="Layer_2_copy" data-name="Layer 2 copy"><circle class="cls-1" cx="107.08" cy="107.1" r="107.08" transform="translate(-7.32 206.35) rotate(-85.95)"/><path class="cls-2" d="M203.15,151.75,201,155l-15.1-10.12,2.21-3.29a31.43,31.43,0,0,1-3.63-5.44l-3.88.76L177,119.11l3.89-.76a32,32,0,0,1,1.28-6.42l-3.29-2.2L189,94.63l3.28,2.21a31.46,31.46,0,0,1,5.45-3.62L197,89.33l14.94-3a107.09,107.09,0,0,0-8.43-25.48l-1.89-1.27a31.13,31.13,0,0,1-5.45,3.63l.77,3.88-17.83,3.52-.77-3.89a32.08,32.08,0,0,1-6.41-1.28l-2.2,3.29-15.1-10.12,2.2-3.29a31.41,31.41,0,0,1-3.61-5.45l-3.89.77-3.52-17.83,3.89-.77A31.94,31.94,0,0,1,151,25.68l-3.29-2.21,7.88-11.74A107.08,107.08,0,0,0,12.7,56.14l2.36-.47,1.52,7.7a62.84,62.84,0,0,1,12.7,2.55l4.37-6.52L63.54,79.45,59.18,86a62.82,62.82,0,0,1,7.17,10.79l7.7-1.52,7,35.32-7.7,1.52a63.52,63.52,0,0,1-2.54,12.7l6.51,4.36L57.24,179l-6.51-4.36a62.82,62.82,0,0,1-10.79,7.17l1.52,7.7L39.1,190a107.09,107.09,0,0,0,165-38Z"/><path class="cls-3" d="M107.08,213.85a106.59,106.59,0,0,0,61.78-19.61,62.66,62.66,0,0,0-123.67-.08A106.56,106.56,0,0,0,107.08,213.85Z"/><ellipse class="cls-4" cx="107.02" cy="97.84" rx="48.5" ry="69.5"/><path class="cls-5" d="M107,100.68c-20.9,0-37.84,7.83-37.84,17.49h75.67C144.85,108.51,127.91,100.68,107,100.68Z"/><path class="cls-6" d="M117.64,97.47c0-1.52-1.68-2.86-4.27-3.7,0-.35,0-.7,0-1,0-9.18-2.85-16.63-6.37-16.63s-6.38,7.45-6.38,16.63c0,.35,0,.7,0,1-2.58.84-4.27,2.18-4.27,3.7,0,1.69,2.1,3.16,5.21,4,1.12,4.74,3.13,7.9,5.42,7.9s4.3-3.16,5.42-7.9C115.55,100.63,117.64,99.16,117.64,97.47Z"/><path class="cls-7" d="M103.31,73.9A17,17,0,1,0,89,93.2,17,17,0,0,0,103.31,73.9Z"/><path class="cls-7" d="M143.37,68A17,17,0,1,0,129,87.3,17,17,0,0,0,143.37,68Z"/><path class="cls-7" d="M109.59,72.45a9.43,9.43,0,0,0-6.7,1.14"/><path d="M143.92,67a99.41,99.41,0,0,1,6.19-9.3A25,25,0,0,1,155.22,52c.59-.41,1.29-1,1.77-.53s.23,2.89.22,3.52a1,1,0,0,0,2,0c0-1.79.39-5.2-1.94-5.7-2.12-.46-4.24,1.85-5.51,3.2a75.49,75.49,0,0,0-9.57,13.41,1,1,0,0,0,1.73,1Z"/><path d="M70.28,76.57A74.59,74.59,0,0,0,57.14,66.42c-1.57-.89-4.12-2.41-6-1.49C48.9,66,50.26,69.21,50.8,71c.37,1.22,2.3.7,1.92-.53-.22-.74-1-2.49-.77-3.2.31-.91,1.15-.51,2.12-.15A27,27,0,0,1,60.42,71a98.9,98.9,0,0,1,8.44,7c1,.87,2.37-.54,1.42-1.41Z"/></g></g></svg>