<svg xmlns="http://www.w3.org/2000/svg" viewBox="0 0 214.16 214.52"><defs><style>.cls-1{fill:#cfdcea;}.cls-2{fill:#b3c9e1;}.cls-3{fill:#eac3db;}.cls-4{fill:#f1d7e8;}</style></defs><title>Resurs 6</title><g id="Lager_2" data-name="Lager 2"><g id="Layer_2_copy" data-name="Layer 2 copy"><circle class="cls-1" cx="107.08" cy="107.1" r="107.08" transform="translate(-33.06 164.54) rotate(-67.29)"/><path class="cls-2" d="M204.28,151.75l-2.2,3.28L187,144.91l2.21-3.29a31.38,31.38,0,0,1-3.62-5.44l-3.89.76-3.52-17.83,3.89-.76a32,32,0,0,1,1.28-6.42l-3.28-2.2,10.12-15.1,3.29,2.21a31,31,0,0,1,5.44-3.62l-.77-3.89,14.94-3a107.09,107.09,0,0,0-8.43-25.48l-1.89-1.27a31.43,31.43,0,0,1-5.44,3.63l.77,3.88-17.84,3.52-.76-3.89a32,32,0,0,1-6.42-1.28l-2.2,3.29-15.1-10.13L158,55.37a31.46,31.46,0,0,1-3.62-5.45l-3.89.77-3.52-17.83,3.89-.77a31.94,31.94,0,0,1,1.28-6.41l-3.28-2.21,7.87-11.74A107.08,107.08,0,0,0,13.83,56.14l2.36-.47,1.52,7.7a63.52,63.52,0,0,1,12.7,2.54l4.37-6.51,29.9,20.05L60.31,86a62.24,62.24,0,0,1,7.17,10.79l7.7-1.52,7,35.32-7.7,1.52a63.52,63.52,0,0,1-2.54,12.7l6.51,4.36L58.37,179l-6.51-4.36a62.82,62.82,0,0,1-10.79,7.17l1.52,7.7-2.36.46a107.08,107.08,0,0,0,165-38Z"/><path class="cls-3" d="M107.63,214.52a106.52,106.52,0,0,0,61.78-19.62,62.66,62.66,0,0,0-123.67-.07A106.56,106.56,0,0,0,107.63,214.52Z"/><ellipse class="cls-4" cx="107.57" cy="98.51" rx="48.5" ry="69.5"/></g></g></svg>